<?xml version="1.0" encoding="UTF-8"?>
<svg version="1.1" xmlns="http://www.w3.org/2000/svg" width="60" height="60">
<path d="M0 0 C2.8125 2.625 2.8125 2.625 5 5 C7.40545638 6.20272819 8.94996953 6.10071472 11.625 6.0625 C12.44226562 6.05347656 13.25953125 6.04445313 14.1015625 6.03515625 C14.72804687 6.02355469 15.35453125 6.01195312 16 6 C16 6.99 16 7.98 16 9 C13.03 9 10.06 9 7 9 C7.495 9.99 7.495 9.99 8 11 C8.36392759 15.70566833 8.42621518 19.87052978 6.75 24.3125 C6.5025 25.199375 6.255 26.08625 6 27 C7.75047071 30.01080962 9.3470158 31.61755335 12.34765625 33.375 C15.18935505 35.11601134 17.45920308 37.01947308 19.875 39.3125 C20.67679688 40.05113281 21.47859375 40.78976563 22.3046875 41.55078125 C24 44 24 44 23.7578125 47.29296875 C23.38269531 48.63294922 23.38269531 48.63294922 23 50 C20.375 50.8125 20.375 50.8125 17 51 C14.6413502 49.57631048 12.99297163 47.94551992 11 46 C10.67 46.33 10.34 46.66 10 47 C5.63670962 47.21888186 1.26788532 47.1857901 -3.1003418 47.18530273 C-5.29300589 47.18748064 -7.48515998 47.20560789 -9.67773438 47.22460938 C-11.07291495 47.22754499 -12.46809791 47.22952866 -13.86328125 47.23046875 C-15.77040894 47.23663208 -15.77040894 47.23663208 -17.71606445 47.24291992 C-21 47 -21 47 -25 45 C-25 40.71 -25 36.42 -25 32 C-24.34 32 -23.68 32 -23 32 C-22.67 33.32 -22.34 34.64 -22 36 C-13.75 36 -5.5 36 3 36 C3 36.99 3 37.98 3 39 C3.99 39 4.98 39 6 39 C4.35 37.02 2.7 35.04 1 33 C-0.423125 33.495 -0.423125 33.495 -1.875 34 C-7.74047172 35.65375369 -13.55424703 35.87677937 -19.3125 33.8125 C-24.85344464 30.07558384 -27.93536437 26.41123696 -30 20 C-30.70336371 13.66972662 -29.65768179 9.25580737 -26 4 C-18.60098183 -4.00715665 -9.41965457 -5.15415061 0 0 Z M-14 0 C-14 0.33 -14 0.66 -14 1 C-12.02 1 -10.04 1 -8 1 C-8 0.67 -8 0.34 -8 0 C-9.98 0 -11.96 0 -14 0 Z M-21 8 C-23.54927287 12.1874654 -23.82051202 16.2178239 -23 21 C-20.95780227 24.84844433 -18.03885899 27.39644559 -14 29 C-9.21220161 29.33403245 -5.84978649 28.66898085 -2.0625 25.6875 C1.55247749 20.98278292 1.55247749 20.98278292 1.875 15.0625 C1.12904655 10.34982936 -0.93240386 7.5506971 -4.75 4.6875 C-11.31026296 2.68297521 -15.82314514 3.56269583 -21 8 Z M4 12 C5 14 5 14 5 14 Z M-27 13 C-27 15.31 -27 17.62 -27 20 C-26.67 20 -26.34 20 -26 20 C-26 17.69 -26 15.38 -26 13 C-26.33 13 -26.66 13 -27 13 Z M4 18 C5 21 5 21 5 21 Z M-26 21 C-25 23 -25 23 -25 23 Z M10 36 C9.57804666 39.94468043 9.57804666 39.94468043 11.75 42.140625 C12.4925 42.83671875 13.235 43.5328125 14 44.25 C14.7425 44.95640625 15.485 45.6628125 16.25 46.390625 C17.11625 47.18726563 17.11625 47.18726563 18 48 C18.99 47.67 19.98 47.34 21 47 C19.60249952 43.84164893 17.94801766 41.67727175 15.5 39.25 C14.8915625 38.63640625 14.283125 38.0228125 13.65625 37.390625 C12.10515723 35.78565912 12.10515723 35.78565912 10 36 Z M6 40 C6 40.66 6 41.32 6 42 C-3.24 42 -12.48 42 -22 42 C-21.67 42.66 -21.34 43.32 -21 44 C-10.77 44 -0.54 44 10 44 C8.68 42.68 7.36 41.36 6 40 Z " fill="#000000" transform="translate(33,6)"/>
<path d="M0 0 C2.12186938 1.91652718 2.64676678 2.93957887 2.9375 5.75 C-1.2770271 9.09255598 -4.52961844 10.1057859 -9.98828125 10.03515625 C-13.44002083 9.56062331 -15.51986228 8.03837395 -18.0625 5.75 C-18.0625 4.43 -18.0625 3.11 -18.0625 1.75 C-13.20690036 -2.78189299 -5.82678994 -2.37828161 0 0 Z M-4.0625 1.75 C-4.0625 3.07 -4.0625 4.39 -4.0625 5.75 C-3.0725 5.42 -2.0825 5.09 -1.0625 4.75 C-1.0625 4.09 -1.0625 3.43 -1.0625 2.75 C-2.0525 2.42 -3.0425 2.09 -4.0625 1.75 Z M-14.0625 2.75 C-14.0625 3.74 -14.0625 4.73 -14.0625 5.75 C-13.4025 5.75 -12.7425 5.75 -12.0625 5.75 C-12.0625 4.76 -12.0625 3.77 -12.0625 2.75 C-12.7225 2.75 -13.3825 2.75 -14.0625 2.75 Z M-9.0625 2.75 C-9.0625 3.41 -9.0625 4.07 -9.0625 4.75 C-8.4025 4.75 -7.7425 4.75 -7.0625 4.75 C-7.0625 4.09 -7.0625 3.43 -7.0625 2.75 C-7.7225 2.75 -8.3825 2.75 -9.0625 2.75 Z " fill="#F19F46" transform="translate(30.0625,18.25)"/>
<path d="M0 0 C2.12472576 -0.05386629 4.24983652 -0.09273071 6.375 -0.125 C7.55835938 -0.14820313 8.74171875 -0.17140625 9.9609375 -0.1953125 C13 0 13 0 15 2 C15.17488254 4.43744897 15.23177405 6.7593608 15.1953125 9.1953125 C15.1924826 9.90275604 15.18965271 10.61019958 15.18673706 11.33908081 C15.17553137 13.6012251 15.15042679 15.86297515 15.125 18.125 C15.11497067 19.65754637 15.10584474 21.19009894 15.09765625 22.72265625 C15.07559086 26.48192301 15.04105896 30.24089464 15 34 C14.34 34 13.68 34 13 34 C12.67 24.1 12.34 14.2 12 4 C8.37 3.67 4.74 3.34 1 3 C0.67 2.01 0.34 1.02 0 0 Z " fill="#000000" transform="translate(37,8)"/>
<path d="M0 0 C4.29 0 8.58 0 13 0 C13 0.99 13 1.98 13 3 C8.71 3 4.42 3 0 3 C0 2.01 0 1.02 0 0 Z " fill="#F19F46" transform="translate(16,29)"/>
<path d="M0 0 C4.29 0 8.58 0 13 0 C13 0.99 13 1.98 13 3 C8.71 3 4.42 3 0 3 C0 2.01 0 1.02 0 0 Z " fill="#F19F46" transform="translate(16,13)"/>
<path d="M0 0 C2.31 0 4.62 0 7 0 C7 0.99 7 1.98 7 3 C4.69 3 2.38 3 0 3 C0 2.01 0 1.02 0 0 Z " fill="#000000" transform="translate(42,25)"/>
<path d="M0 0 C2.31 0 4.62 0 7 0 C7 0.99 7 1.98 7 3 C4.69 3 2.38 3 0 3 C0 2.01 0 1.02 0 0 Z " fill="#000000" transform="translate(42,21)"/>
<path d="M0 0 C1.65 0 3.3 0 5 0 C5.33 0.99 5.66 1.98 6 3 C3.69 3 1.38 3 -1 3 C-0.67 2.01 -0.34 1.02 0 0 Z " fill="#000000" transform="translate(43,16)"/>
<path d="M0 0 C1.98 0 3.96 0 6 0 C6 0.99 6 1.98 6 3 C4.02 3 2.04 3 0 3 C0 2.01 0 1.02 0 0 Z " fill="#000000" transform="translate(43,34)"/>
<path d="M0 0 C2.31 0 4.62 0 7 0 C7 0.66 7 1.32 7 2 C4.69 2 2.38 2 0 2 C0 1.34 0 0.68 0 0 Z " fill="#000000" transform="translate(42,30)"/>
</svg>
