<svg width="40" height="40" viewBox="0 0 40 40" fill="none" xmlns="http://www.w3.org/2000/svg">
<path d="M10.5953 31.1646C10.3464 31.1646 10.1509 30.969 10.1509 30.7201V15.7157C10.1509 15.5735 10.2131 15.4401 10.3287 15.3601L22.3642 6.40014C22.5242 6.28459 22.7375 6.28459 22.8975 6.40014L34.9331 15.3601C35.0487 15.4401 35.1109 15.5735 35.1109 15.7157V17.8135C35.1109 18.0624 34.9153 18.2579 34.6664 18.2579C34.4175 18.2579 34.222 18.0624 34.222 17.8135V15.9379L22.6309 7.30681L11.0398 15.9468V30.7201C11.0398 30.969 10.8442 31.1646 10.5953 31.1646ZM32.1064 12.0801C31.8575 12.0801 31.662 11.8846 31.662 11.6357V7.56459C31.662 7.3157 31.8575 7.12014 32.1064 7.12014C32.3553 7.12014 32.5509 7.3157 32.5509 7.56459V11.6357C32.5509 11.8846 32.3553 12.0801 32.1064 12.0801ZM29.7064 10.3379C29.4575 10.3379 29.262 10.1424 29.262 9.89348V7.56459C29.262 7.3157 29.4575 7.12014 29.7064 7.12014C29.9553 7.12014 30.1509 7.3157 30.1509 7.56459V9.89348C30.1509 10.1335 29.9464 10.3379 29.7064 10.3379Z" fill="#FECC52"/>
<path d="M32.9688 8.00011H28.8443C28.5955 8.00011 28.3999 7.80455 28.3999 7.55566V6.00011C28.3999 5.75122 28.5955 5.55566 28.8443 5.55566H32.9688C33.2177 5.55566 33.4132 5.75122 33.4132 6.00011V7.55566C33.4132 7.80455 33.2088 8.00011 32.9688 8.00011ZM29.2888 7.11122H32.5243V6.44455H29.2888V7.11122ZM24.071 26.6934C24.0443 26.6934 24.0088 26.6934 23.9821 26.6846L23.9021 26.6579C23.8755 26.649 23.8488 26.6312 23.8221 26.6134C23.7955 26.5957 23.7777 26.5779 23.751 26.5601C23.671 26.4801 23.6177 26.3646 23.6177 26.249C23.6177 26.1334 23.6621 26.0179 23.751 25.9379C23.7688 25.9201 23.7955 25.9023 23.8221 25.8846C23.8488 25.8668 23.8755 25.8579 23.9021 25.8401L23.9821 25.8134C24.0355 25.8046 24.0977 25.8046 24.1599 25.8134L24.2399 25.8401C24.2666 25.849 24.2932 25.8668 24.3199 25.8846C24.3466 25.9023 24.3643 25.9201 24.391 25.9379C24.471 26.0179 24.5243 26.1334 24.5243 26.249C24.5243 26.3646 24.4799 26.4801 24.391 26.5601C24.3732 26.5779 24.3466 26.5957 24.3199 26.6134C24.2932 26.6312 24.2666 26.6401 24.2399 26.6579L24.1599 26.6846C24.1332 26.6934 24.1066 26.6934 24.071 26.6934Z" fill="#FECC52"/>
<path d="M19.76 31.1646C19.5111 31.1646 19.3155 30.969 19.3155 30.7201V21.7868C19.3155 21.5379 19.5111 21.3424 19.76 21.3424H25.4933C25.7422 21.3424 25.9378 21.5379 25.9378 21.7868V26.9335C25.9378 27.1824 25.7422 27.3779 25.4933 27.3779C25.2444 27.3779 25.0489 27.1824 25.0489 26.9335V22.2313H20.2044V30.7201C20.2044 30.969 20.0089 31.1646 19.76 31.1646ZM37.7422 16.169H34.6666C34.4178 16.169 34.2222 15.9735 34.2222 15.7246C34.2222 15.4757 34.4178 15.2801 34.6666 15.2801H36.3733L22.6311 5.30681L8.88886 15.2801H10.5955C10.8444 15.2801 11.04 15.4757 11.04 15.7246C11.04 15.9735 10.8444 16.169 10.5955 16.169H7.51997C7.32442 16.169 7.15553 16.0446 7.09331 15.8579C7.03109 15.6713 7.1022 15.4757 7.25331 15.3601L22.3644 4.40014C22.5244 4.28459 22.7289 4.28459 22.8889 4.40014L38 15.3601C38.16 15.4757 38.2222 15.6713 38.16 15.8579C38.0978 16.0446 37.9378 16.169 37.7422 16.169Z" fill="#FECC52"/>
<path d="M30.2309 20.5958H25.6354C25.3865 20.5958 25.1909 20.4002 25.1909 20.1513V15.5558C25.1909 15.3069 25.3865 15.1113 25.6354 15.1113H30.2309C30.4798 15.1113 30.6754 15.3069 30.6754 15.5558V20.1513C30.6754 20.4002 30.4798 20.5958 30.2309 20.5958ZM26.0798 19.7069H29.7865V16.0002H26.0798V19.7069Z" fill="#FECC52"/>
<path d="M27.9376 20.5958C27.6887 20.5958 27.4932 20.4002 27.4932 20.1513V15.5558C27.4932 15.3069 27.6887 15.1113 27.9376 15.1113C28.1865 15.1113 28.3821 15.3069 28.3821 15.5558V20.1513C28.3821 20.4002 28.1776 20.5958 27.9376 20.5958ZM19.6176 20.5958H15.0221C14.7732 20.5958 14.5776 20.4002 14.5776 20.1513V15.5558C14.5776 15.3069 14.7732 15.1113 15.0221 15.1113H19.6176C19.8665 15.1113 20.0621 15.3069 20.0621 15.5558V20.1513C20.0621 20.4002 19.8665 20.5958 19.6176 20.5958ZM15.4754 19.7069H19.1821V16.0002H15.4754V19.7069Z" fill="#FECC52"/>
<path d="M17.3243 20.5958C17.0754 20.5958 16.8799 20.4002 16.8799 20.1513V15.5558C16.8799 15.3069 17.0754 15.1113 17.3243 15.1113C17.5732 15.1113 17.7688 15.3069 17.7688 15.5558V20.1513C17.7688 20.4002 17.5732 20.5958 17.3243 20.5958Z" fill="#FECC52"/>
<path d="M19.6176 18.3026H15.0221C14.7732 18.3026 14.5776 18.107 14.5776 17.8581C14.5776 17.6092 14.7732 17.4137 15.0221 17.4137H19.6176C19.8665 17.4137 20.0621 17.6092 20.0621 17.8581C20.0621 18.107 19.8665 18.3026 19.6176 18.3026ZM30.231 18.3026H25.6354C25.3865 18.3026 25.191 18.107 25.191 17.8581C25.191 17.6092 25.3865 17.4137 25.6354 17.4137H30.231C30.4799 17.4137 30.6754 17.6092 30.6754 17.8581C30.6754 18.107 30.4799 18.3026 30.231 18.3026ZM22.631 14.3737C21.271 14.3737 20.1687 13.2714 20.1687 11.9114C20.1687 10.5514 21.271 9.44922 22.631 9.44922C23.991 9.44922 25.0932 10.5514 25.0932 11.9114C25.0932 13.2626 23.991 14.3737 22.631 14.3737ZM22.631 10.3381C21.7599 10.3381 21.0576 11.0403 21.0576 11.9114C21.0576 12.7826 21.7599 13.4848 22.631 13.4848C23.5021 13.4848 24.2043 12.7826 24.2043 11.9114C24.2043 11.0403 23.5021 10.3381 22.631 10.3381ZM21.7687 32.8714H9.45763C9.20874 32.8714 9.01318 32.6759 9.01318 32.427V30.7203C9.01318 30.4714 9.20874 30.2759 9.45763 30.2759H22.6576C22.9065 30.2759 23.1021 30.4714 23.1021 30.7203C23.1021 30.9692 22.9065 31.1648 22.6576 31.1648H9.90207V31.9825H21.7687C22.0176 31.9825 22.2132 32.1781 22.2132 32.427C22.2132 32.6759 22.0087 32.8714 21.7687 32.8714ZM39.111 35.6003H24.0799C23.9021 35.6003 23.7421 35.4937 23.671 35.3248C23.5998 35.1559 23.6443 34.9692 23.7687 34.8448L38.7999 19.8137C38.9243 19.6892 39.1199 19.6448 39.2799 19.7159C39.4487 19.787 39.5554 19.947 39.5554 20.1248V35.1559C39.5554 35.3959 39.3599 35.6003 39.111 35.6003ZM25.1554 34.7114H38.6665V21.1914L25.1554 34.7114Z" fill="#FECC52"/>
<path d="M36.3822 32.862H30.6755C30.4978 32.862 30.3378 32.7553 30.2667 32.5865C30.1955 32.4176 30.24 32.2309 30.3644 32.1065L36.0711 26.3998C36.1955 26.2753 36.3911 26.2309 36.5511 26.302C36.72 26.3731 36.8267 26.5331 36.8267 26.7109V32.4176C36.8267 32.6665 36.6222 32.862 36.3822 32.862ZM31.7422 31.9731H35.9289V27.7865L31.7422 31.9731ZM21.5733 33.2265C21.4578 33.2265 21.3422 33.182 21.2622 33.0931C21.1289 32.9598 21.0933 32.7465 21.1822 32.5687L23.3155 28.4976C23.3333 28.462 23.36 28.4176 23.3955 28.3909L34.0889 17.6976C34.7911 16.9953 35.9467 16.9953 36.6489 17.6976C37.3511 18.3998 37.3511 19.5553 36.6489 20.2576L25.9644 30.9598C25.9289 30.9953 25.8933 31.022 25.8578 31.0398L21.7867 33.1731C21.7155 33.2087 21.6444 33.2265 21.5733 33.2265ZM24.08 28.9776L22.64 31.7242L25.3867 30.2842L36.0355 19.6353C36.3911 19.2798 36.3911 18.6931 36.0355 18.3287C35.68 17.9731 35.0933 17.9731 34.7289 18.3287L24.08 28.9776Z" fill="#FECC52"/>
<path d="M25.6443 31.0936C25.5288 31.0936 25.4132 31.0492 25.3332 30.9603L23.3954 29.0225C23.2177 28.8447 23.2177 28.5692 23.3954 28.3914C23.5732 28.2136 23.8488 28.2136 24.0266 28.3914L25.9643 30.3292C26.1421 30.5069 26.1421 30.7825 25.9643 30.9603C25.8754 31.0492 25.7599 31.0936 25.6443 31.0936ZM35.2888 21.4492C35.1732 21.4492 35.0577 21.4047 34.9777 21.3158L33.0399 19.378C32.8621 19.2003 32.8621 18.9247 33.0399 18.7469C33.2177 18.5692 33.4932 18.5692 33.671 18.7469L35.6088 20.6847C35.7866 20.8625 35.7866 21.138 35.6088 21.3158C35.511 21.4047 35.4043 21.4492 35.2888 21.4492ZM6.36434 32.7647H0.88878C0.639892 32.7647 0.444336 32.5692 0.444336 32.3203V4.94249C0.444336 4.6936 0.639892 4.49805 0.88878 4.49805H6.36434C6.61322 4.49805 6.80878 4.6936 6.80878 4.94249V32.3203C6.80878 32.5692 6.60434 32.7647 6.36434 32.7647ZM1.33322 31.8758H5.91989V5.38694H1.33322V31.8758Z" fill="#FECC52"/>
<path d="M6.36421 7.71604H4.20421C3.95532 7.71604 3.75977 7.52048 3.75977 7.27159C3.75977 7.0227 3.95532 6.82715 4.20421 6.82715H6.36421C6.6131 6.82715 6.80865 7.0227 6.80865 7.27159C6.80865 7.52048 6.60421 7.71604 6.36421 7.71604ZM6.36421 10.2405H5.27977C5.03088 10.2405 4.83532 10.0449 4.83532 9.79604C4.83532 9.54715 5.03088 9.35159 5.27977 9.35159H6.35532C6.60421 9.35159 6.79977 9.54715 6.79977 9.79604C6.79977 10.0449 6.60421 10.2405 6.36421 10.2405ZM6.36421 12.7649H4.20421C3.95532 12.7649 3.75977 12.5694 3.75977 12.3205C3.75977 12.0716 3.95532 11.876 4.20421 11.876H6.36421C6.6131 11.876 6.80865 12.0716 6.80865 12.3205C6.80865 12.5694 6.60421 12.7649 6.36421 12.7649ZM6.36421 15.2894H5.27977C5.03088 15.2894 4.83532 15.0938 4.83532 14.8449C4.83532 14.596 5.03088 14.4005 5.27977 14.4005H6.35532C6.60421 14.4005 6.79977 14.596 6.79977 14.8449C6.79977 15.0938 6.60421 15.2894 6.36421 15.2894ZM6.36421 17.8138H4.20421C3.95532 17.8138 3.75977 17.6183 3.75977 17.3694C3.75977 17.1205 3.95532 16.9249 4.20421 16.9249H6.36421C6.6131 16.9249 6.80865 17.1205 6.80865 17.3694C6.80865 17.6183 6.60421 17.8138 6.36421 17.8138ZM6.36421 20.3383H5.27977C5.03088 20.3383 4.83532 20.1427 4.83532 19.8938C4.83532 19.6449 5.03088 19.4494 5.27977 19.4494H6.35532C6.60421 19.4494 6.79977 19.6449 6.79977 19.8938C6.80865 20.1427 6.60421 20.3383 6.36421 20.3383ZM6.36421 22.8627H4.20421C3.95532 22.8627 3.75977 22.6671 3.75977 22.4183C3.75977 22.1694 3.95532 21.9738 4.20421 21.9738H6.36421C6.6131 21.9738 6.80865 22.1694 6.80865 22.4183C6.80865 22.6671 6.60421 22.8627 6.36421 22.8627ZM6.36421 25.3871H5.27977C5.03088 25.3871 4.83532 25.1916 4.83532 24.9427C4.83532 24.6938 5.03088 24.4983 5.27977 24.4983H6.35532C6.60421 24.4983 6.79977 24.6938 6.79977 24.9427C6.79977 25.1916 6.60421 25.3871 6.36421 25.3871ZM6.36421 27.9205H4.20421C3.95532 27.9205 3.75977 27.7249 3.75977 27.476C3.75977 27.2271 3.95532 27.0316 4.20421 27.0316H6.36421C6.6131 27.0316 6.80865 27.2271 6.80865 27.476C6.80865 27.7249 6.60421 27.9205 6.36421 27.9205ZM6.36421 30.4449H5.27977C5.03088 30.4449 4.83532 30.2494 4.83532 30.0005C4.83532 29.7516 5.03088 29.556 5.27977 29.556H6.35532C6.60421 29.556 6.79977 29.7516 6.79977 30.0005C6.79977 30.2494 6.60421 30.4449 6.36421 30.4449Z" fill="#FECC52"/>
</svg>
