<svg width="40" height="40" viewBox="0 0 40 40" fill="none" xmlns="http://www.w3.org/2000/svg">
<path d="M36.25 35.0006H35.625V23.7506H37.5C37.6658 23.7506 37.8247 23.6848 37.9419 23.5676C38.0592 23.4504 38.125 23.2914 38.125 23.1256V21.2506C38.125 21.0849 38.0592 20.9259 37.9419 20.8087C37.8247 20.6915 37.6658 20.6256 37.5 20.6256H36.875V16.8756H37.5C37.6658 16.8756 37.8247 16.8098 37.9419 16.6926C38.0592 16.5754 38.125 16.4164 38.125 16.2506V14.3756C38.125 14.2099 38.0592 14.0509 37.9419 13.9337C37.8247 13.8165 37.6658 13.7506 37.5 13.7506H18.125V8.75063C18.1251 8.64953 18.1007 8.54993 18.0538 8.46035C18.007 8.37077 17.9391 8.29389 17.856 8.23631C17.7729 8.17872 17.6771 8.14215 17.5768 8.12973C17.4765 8.11732 17.3746 8.12942 17.28 8.165L2.28 13.79C2.16091 13.8348 2.05832 13.9149 1.98595 14.0195C1.91358 14.1241 1.87487 14.2484 1.875 14.3756V23.1256C1.875 23.2914 1.94085 23.4504 2.05806 23.5676C2.17527 23.6848 2.33424 23.7506 2.5 23.7506H4.375V35.0006H1.25C1.08424 35.0006 0.925268 35.0665 0.808058 35.1837C0.690848 35.3009 0.625 35.4599 0.625 35.6256C0.625 35.7914 0.690848 35.9504 0.808058 36.0676C0.925268 36.1848 1.08424 36.2506 1.25 36.2506H36.25C36.4158 36.2506 36.5747 36.1848 36.6919 36.0676C36.8092 35.9504 36.875 35.7914 36.875 35.6256C36.875 35.4599 36.8092 35.3009 36.6919 35.1837C36.5747 35.0665 36.4158 35.0006 36.25 35.0006ZM35.625 20.6256H20V16.8756H35.625V20.6256ZM36.875 15.0006V15.6256H19.375C19.2092 15.6256 19.0503 15.6915 18.9331 15.8087C18.8158 15.9259 18.75 16.0849 18.75 16.2506V21.2506C18.75 21.4164 18.8158 21.5754 18.9331 21.6926C19.0503 21.8098 19.2092 21.8756 19.375 21.8756H36.875V22.5006H18.125V15.0006H36.875ZM3.125 14.8088L16.875 9.6525V22.5006H3.125V14.8088ZM7.5 35.0006V26.2506H9.375V35.0006H7.5ZM10.625 35.0006V26.2506H12.5V35.0006H10.625ZM13.75 35.0006V26.2506H15.625V35.0006H13.75ZM16.875 35.0006V26.2506H18.75V35.0006H16.875ZM20 35.0006V25.6256C20 25.4599 19.9342 25.3009 19.8169 25.1837C19.6997 25.0665 19.5408 25.0006 19.375 25.0006H6.875C6.70924 25.0006 6.55027 25.0665 6.43306 25.1837C6.31585 25.3009 6.25 25.4599 6.25 25.6256V35.0006H5.625V23.7506H34.375V35.0006H20ZM38.75 35.0006H38.125C37.9592 35.0006 37.8003 35.0665 37.6831 35.1837C37.5658 35.3009 37.5 35.4599 37.5 35.6256C37.5 35.7914 37.5658 35.9504 37.6831 36.0676C37.8003 36.1848 37.9592 36.2506 38.125 36.2506H38.75C38.9158 36.2506 39.0747 36.1848 39.1919 36.0676C39.3092 35.9504 39.375 35.7914 39.375 35.6256C39.375 35.4599 39.3092 35.3009 39.1919 35.1837C39.0747 35.0665 38.9158 35.0006 38.75 35.0006Z" fill="#FECC52"/>
<path d="M33.125 25.0003H21.875C21.7092 25.0003 21.5503 25.0661 21.4331 25.1833C21.3158 25.3006 21.25 25.4595 21.25 25.6253V31.8753C21.25 32.041 21.3158 32.2 21.4331 32.3172C21.5503 32.4344 21.7092 32.5003 21.875 32.5003H33.125C33.2908 32.5003 33.4497 32.4344 33.5669 32.3172C33.6842 32.2 33.75 32.041 33.75 31.8753V25.6253C33.75 25.4595 33.6842 25.3006 33.5669 25.1833C33.4497 25.0661 33.2908 25.0003 33.125 25.0003ZM22.5 31.2503V26.2503H25V31.2503H22.5ZM26.25 31.2503V26.2503H28.75V31.2503H26.25ZM32.5 31.2503H30V26.2503H32.5V31.2503ZM15.625 21.8753C15.7908 21.8753 15.9497 21.8094 16.0669 21.6922C16.1842 21.575 16.25 21.416 16.25 21.2503V16.2503C16.25 16.0845 16.1842 15.9256 16.0669 15.8083C15.9497 15.6911 15.7908 15.6253 15.625 15.6253H5C4.83424 15.6253 4.67527 15.6911 4.55806 15.8083C4.44085 15.9256 4.375 16.0845 4.375 16.2503V21.2503C4.375 21.416 4.44085 21.575 4.55806 21.6922C4.67527 21.8094 4.83424 21.8753 5 21.8753H15.625ZM15 16.8753V20.6253H12.5V16.8753H15ZM11.25 16.8753V20.6253H9.375V16.8753H11.25ZM5.625 16.8753H8.125V20.6253H5.625V16.8753ZM21.875 10.6253H26.25C26.3607 10.6255 26.4691 10.594 26.5625 10.5347C27.0466 10.3906 27.466 10.0835 27.7494 9.6654C28.0328 9.24731 28.1628 8.74402 28.1173 8.24096C28.0719 7.73791 27.8537 7.26611 27.4999 6.90564C27.146 6.54517 26.6784 6.31825 26.1763 6.26341C26.0551 5.77956 25.7916 5.34316 25.4199 5.01055C25.0482 4.67794 24.5854 4.46441 24.0911 4.39753C23.5968 4.33065 23.0938 4.41349 22.6471 4.63535C22.2004 4.85722 21.8304 5.20792 21.585 5.64216C20.9514 5.71615 20.3701 6.02954 19.96 6.51817C19.5499 7.0068 19.3421 7.63371 19.3792 8.27053C19.4163 8.90735 19.6954 9.50592 20.1593 9.94368C20.6233 10.3814 21.2371 10.6253 21.875 10.6253ZM21.8531 6.87528L21.945 6.88528C22.0816 6.89511 22.2177 6.85942 22.3319 6.78378C22.4461 6.70813 22.532 6.5968 22.5763 6.46716C22.6713 6.19002 22.8609 5.95523 23.1119 5.80406C23.3628 5.6529 23.659 5.59503 23.9484 5.64062C24.2378 5.68622 24.5019 5.83237 24.6942 6.05337C24.8866 6.27438 24.9948 6.55611 25 6.84903C25 6.86966 24.9969 6.89091 24.9969 6.90716C24.9969 6.99985 25.0175 7.09138 25.0572 7.17513C25.0969 7.25888 25.1547 7.33274 25.2265 7.39137C25.2983 7.45 25.3823 7.49193 25.4723 7.51411C25.5623 7.5363 25.6561 7.5382 25.7469 7.51966C25.8829 7.49455 26.0228 7.49929 26.1568 7.53355C26.2908 7.56781 26.4158 7.63078 26.523 7.71809C26.6303 7.80541 26.7174 7.91499 26.7781 8.03925C26.8389 8.16351 26.872 8.29949 26.875 8.43778C26.875 8.65391 26.8004 8.86341 26.6637 9.03083C26.5271 9.19825 26.3368 9.31331 26.125 9.35653C26.1013 9.36154 26.078 9.36779 26.055 9.37528H21.875C21.5435 9.37819 21.2244 9.24927 20.9879 9.0169C20.7514 8.78453 20.617 8.46774 20.6141 8.13622C20.6112 7.8047 20.7401 7.48561 20.9724 7.24913C21.2048 7.01266 21.5216 6.87819 21.8531 6.87528Z" fill="#FECC52"/>
</svg>
