<svg width="40" height="40" viewBox="0 0 40 40" fill="none" xmlns="http://www.w3.org/2000/svg">
<path d="M31.875 6.87522H6.8125C6.65829 6.11575 6.22738 5.44067 5.60342 4.98104C4.97947 4.52141 4.20699 4.31002 3.43594 4.3879C2.66489 4.46578 1.95029 4.82738 1.43086 5.40251C0.911427 5.97763 0.624223 6.72525 0.625002 7.50022V28.7502C0.625829 29.5788 0.955335 30.3731 1.54121 30.959C2.12708 31.5449 2.92145 31.8744 3.75 31.8752H31.875C32.0408 31.8752 32.1997 31.8094 32.3169 31.6922C32.4342 31.5749 32.5 31.416 32.5 31.2502V7.50022C32.5 7.33446 32.4342 7.17549 32.3169 7.05828C32.1997 6.94107 32.0408 6.87522 31.875 6.87522ZM1.875 7.50022C1.875 7.00294 2.07255 6.52602 2.42418 6.17439C2.77581 5.82276 3.25272 5.62522 3.75 5.62522C4.24728 5.62522 4.7242 5.82276 5.07583 6.17439C5.42746 6.52602 5.625 7.00294 5.625 7.50022V25.6268C5.08449 25.2201 4.42641 25.0002 3.75 25.0002C3.07359 25.0002 2.41552 25.2201 1.875 25.6268V7.50022ZM31.25 30.6252H3.75C3.25292 30.6246 2.77639 30.4268 2.42491 30.0753C2.07342 29.7238 1.87566 29.2473 1.875 28.7502V28.1252C1.875 27.6279 2.07255 27.151 2.42418 26.7994C2.77581 26.4478 3.25272 26.2502 3.75 26.2502C4.24728 26.2502 4.7242 26.4478 5.07583 26.7994C5.42746 27.151 5.625 27.6279 5.625 28.1252C5.625 28.291 5.69085 28.4499 5.80806 28.5672C5.92527 28.6844 6.08424 28.7502 6.25 28.7502C6.41576 28.7502 6.57473 28.6844 6.69194 28.5672C6.80915 28.4499 6.875 28.291 6.875 28.1252V8.12522H31.25V30.6252Z" fill="#FECC52"/>
<path d="M38.75 18.75H35C34.8342 18.75 34.6753 18.8158 34.5581 18.9331C34.4408 19.0503 34.375 19.2092 34.375 19.375V33.75H17.5C17.3342 33.75 17.1753 33.8158 17.0581 33.9331C16.9408 34.0503 16.875 34.2092 16.875 34.375V38.125C16.875 38.2908 16.9408 38.4497 17.0581 38.5669C17.1753 38.6842 17.3342 38.75 17.5 38.75H38.75C38.9158 38.75 39.0747 38.6842 39.1919 38.5669C39.3092 38.4497 39.375 38.2908 39.375 38.125V19.375C39.375 19.2092 39.3092 19.0503 39.1919 18.9331C39.0747 18.8158 38.9158 18.75 38.75 18.75ZM38.125 37.5H18.125V35H19.375V35.625C19.375 35.7908 19.4408 35.9497 19.5581 36.0669C19.6753 36.1842 19.8342 36.25 20 36.25C20.1658 36.25 20.3247 36.1842 20.4419 36.0669C20.5592 35.9497 20.625 35.7908 20.625 35.625V35H21.25V35.625C21.25 35.7908 21.3158 35.9497 21.4331 36.0669C21.5503 36.1842 21.7092 36.25 21.875 36.25C22.0408 36.25 22.1997 36.1842 22.3169 36.0669C22.4342 35.9497 22.5 35.7908 22.5 35.625V35H23.125V35.625C23.125 35.7908 23.1908 35.9497 23.3081 36.0669C23.4253 36.1842 23.5842 36.25 23.75 36.25C23.9158 36.25 24.0747 36.1842 24.1919 36.0669C24.3092 35.9497 24.375 35.7908 24.375 35.625V35H25V35.625C25 35.7908 25.0658 35.9497 25.1831 36.0669C25.3003 36.1842 25.4592 36.25 25.625 36.25C25.7908 36.25 25.9497 36.1842 26.0669 36.0669C26.1842 35.9497 26.25 35.7908 26.25 35.625V35H26.875V35.625C26.875 35.7908 26.9408 35.9497 27.0581 36.0669C27.1753 36.1842 27.3342 36.25 27.5 36.25C27.6658 36.25 27.8247 36.1842 27.9419 36.0669C28.0592 35.9497 28.125 35.7908 28.125 35.625V35H28.75V35.625C28.75 35.7908 28.8158 35.9497 28.9331 36.0669C29.0503 36.1842 29.2092 36.25 29.375 36.25C29.5408 36.25 29.6997 36.1842 29.8169 36.0669C29.9342 35.9497 30 35.7908 30 35.625V35H30.625V35.625C30.625 35.7908 30.6908 35.9497 30.8081 36.0669C30.9253 36.1842 31.0842 36.25 31.25 36.25C31.4158 36.25 31.5747 36.1842 31.6919 36.0669C31.8092 35.9497 31.875 35.7908 31.875 35.625V35H32.5V35.625C32.5 35.7908 32.5658 35.9497 32.6831 36.0669C32.8003 36.1842 32.9592 36.25 33.125 36.25C33.2908 36.25 33.4497 36.1842 33.5669 36.0669C33.6842 35.9497 33.75 35.7908 33.75 35.625V35H38.125V37.5ZM38.125 33.75H35.625V20H38.125V33.75Z" fill="#FECC52"/>
<path d="M36.875 36.875C37.2202 36.875 37.5 36.5952 37.5 36.25C37.5 35.9048 37.2202 35.625 36.875 35.625C36.5298 35.625 36.25 35.9048 36.25 36.25C36.25 36.5952 36.5298 36.875 36.875 36.875Z" fill="#FECC52"/>
<path d="M8.55248 3.71797L12.3025 4.96797C12.3662 4.98916 12.433 4.99997 12.5001 5H30.9376C31.3519 4.99952 31.749 4.83475 32.042 4.54183C32.3349 4.24891 32.4997 3.85175 32.5001 3.4375V2.8125C32.4997 2.39825 32.3349 2.00109 32.042 1.70817C31.749 1.41525 31.3519 1.25048 30.9376 1.25H12.5001C12.433 1.25003 12.3662 1.26084 12.3025 1.28203L8.55248 2.53203C8.42801 2.57349 8.31974 2.65308 8.24301 2.7595C8.16629 2.86593 8.125 2.9938 8.125 3.125C8.125 3.2562 8.16629 3.38407 8.24301 3.4905C8.31974 3.59692 8.42801 3.67651 8.55248 3.71797ZM30.0001 2.5H30.9376C31.0205 2.5 31.1 2.53292 31.1586 2.59153C31.2172 2.65013 31.2501 2.72962 31.2501 2.8125V3.4375C31.2501 3.52038 31.2172 3.59987 31.1586 3.65847C31.1 3.71708 31.0205 3.75 30.9376 3.75H30.0001V2.5ZM28.1251 2.5H28.7501V3.75H28.1251V2.5ZM14.3751 2.5H26.8751V3.75H14.3751V2.5ZM12.6017 2.5H13.1251V3.75H12.6017L10.7267 3.125L12.6017 2.5ZM8.75014 29.375H23.7501C23.9159 29.375 24.0749 29.3092 24.1921 29.1919C24.3093 29.0747 24.3751 28.9158 24.3751 28.75V21.25C24.3751 21.0842 24.3093 20.9253 24.1921 20.8081C24.0749 20.6908 23.9159 20.625 23.7501 20.625H16.8751V13.75C16.8751 13.5842 16.8093 13.4253 16.6921 13.3081C16.5749 13.1908 16.4159 13.125 16.2501 13.125H8.75014C8.58438 13.125 8.42541 13.1908 8.3082 13.3081C8.19099 13.4253 8.12514 13.5842 8.12514 13.75V28.75C8.12514 28.9158 8.19099 29.0747 8.3082 29.1919C8.42541 29.3092 8.58438 29.375 8.75014 29.375ZM9.37514 21.875H11.2501C11.4159 21.875 11.5749 21.8092 11.6921 21.6919C11.8093 21.5747 11.8751 21.4158 11.8751 21.25C11.8751 21.0842 11.8093 20.9253 11.6921 20.8081C11.5749 20.6908 11.4159 20.625 11.2501 20.625H9.37514V14.375H15.6251V20.625H13.7501C13.5844 20.625 13.4254 20.6908 13.3082 20.8081C13.191 20.9253 13.1251 21.0842 13.1251 21.25C13.1251 21.4158 13.191 21.5747 13.3082 21.6919C13.4254 21.8092 13.5844 21.875 13.7501 21.875H15.6251V23.75C15.6251 23.9158 15.691 24.0747 15.8082 24.1919C15.9254 24.3092 16.0844 24.375 16.2501 24.375C16.4159 24.375 16.5749 24.3092 16.6921 24.1919C16.8093 24.0747 16.8751 23.9158 16.8751 23.75V21.875H23.1251V28.125H16.8751V26.25C16.8751 26.0842 16.8093 25.9253 16.6921 25.8081C16.5749 25.6908 16.4159 25.625 16.2501 25.625C16.0844 25.625 15.9254 25.6908 15.8082 25.8081C15.691 25.9253 15.6251 26.0842 15.6251 26.25V28.125H9.37514V21.875ZM18.7501 10.625H29.3751C29.5409 10.625 29.6999 10.5592 29.8171 10.4419C29.9343 10.3247 30.0001 10.1658 30.0001 10C30.0001 9.83424 29.9343 9.67527 29.8171 9.55806C29.6999 9.44085 29.5409 9.375 29.3751 9.375H18.7501C18.5844 9.375 18.4254 9.44085 18.3082 9.55806C18.191 9.67527 18.1251 9.83424 18.1251 10C18.1251 10.1658 18.191 10.3247 18.3082 10.4419C18.4254 10.5592 18.5844 10.625 18.7501 10.625ZM18.7501 12.5H29.3751C29.5409 12.5 29.6999 12.4342 29.8171 12.3169C29.9343 12.1997 30.0001 12.0408 30.0001 11.875C30.0001 11.7092 29.9343 11.5503 29.8171 11.4331C29.6999 11.3158 29.5409 11.25 29.3751 11.25H18.7501C18.5844 11.25 18.4254 11.3158 18.3082 11.4331C18.191 11.5503 18.1251 11.7092 18.1251 11.875C18.1251 12.0408 18.191 12.1997 18.3082 12.3169C18.4254 12.4342 18.5844 12.5 18.7501 12.5ZM18.7501 14.375H24.3751C24.5409 14.375 24.6999 14.3092 24.8171 14.1919C24.9343 14.0747 25.0001 13.9158 25.0001 13.75C25.0001 13.5842 24.9343 13.4253 24.8171 13.3081C24.6999 13.1908 24.5409 13.125 24.3751 13.125H18.7501C18.5844 13.125 18.4254 13.1908 18.3082 13.3081C18.191 13.4253 18.1251 13.5842 18.1251 13.75C18.1251 13.9158 18.191 14.0747 18.3082 14.1919C18.4254 14.3092 18.5844 14.375 18.7501 14.375Z" fill="#FECC52"/>
<path d="M18.75 16.875H29.375C29.5408 16.875 29.6997 16.8092 29.8169 16.6919C29.9342 16.5747 30 16.4158 30 16.25C30 16.0842 29.9342 15.9253 29.8169 15.8081C29.6997 15.6908 29.5408 15.625 29.375 15.625H18.75C18.5842 15.625 18.4253 15.6908 18.3081 15.8081C18.1908 15.9253 18.125 16.0842 18.125 16.25C18.125 16.4158 18.1908 16.5747 18.3081 16.6919C18.4253 16.8092 18.5842 16.875 18.75 16.875ZM18.75 18.75H24.375C24.5408 18.75 24.6997 18.6842 24.8169 18.5669C24.9342 18.4497 25 18.2908 25 18.125C25 17.9592 24.9342 17.8003 24.8169 17.6831C24.6997 17.5658 24.5408 17.5 24.375 17.5H18.75C18.5842 17.5 18.4253 17.5658 18.3081 17.6831C18.1908 17.8003 18.125 17.9592 18.125 18.125C18.125 18.2908 18.1908 18.4497 18.3081 18.5669C18.4253 18.6842 18.5842 18.75 18.75 18.75Z" fill="#FECC52"/>
</svg>
