<svg width="40" height="40" viewBox="0 0 40 40" fill="none" xmlns="http://www.w3.org/2000/svg">
<path d="M4.375 38.75H6.875C7.04076 38.75 7.19973 38.6842 7.31694 38.5669C7.43415 38.4497 7.5 38.2908 7.5 38.125V33.75H22.5V38.125C22.5 38.2908 22.5658 38.4497 22.6831 38.5669C22.8003 38.6842 22.9592 38.75 23.125 38.75H38.125C38.2908 38.75 38.4497 38.6842 38.5669 38.5669C38.6842 38.4497 38.75 38.2908 38.75 38.125V28.75C38.75 28.5843 38.6841 28.4253 38.5669 28.3081L37.5 27.2412V1.875C37.5 1.70924 37.4342 1.55027 37.3169 1.43306C37.1997 1.31585 37.0408 1.25 36.875 1.25H4.375C2.65188 1.25 1.25 2.65188 1.25 4.375V35.625C1.25 37.3481 2.65188 38.75 4.375 38.75ZM29.375 37.5V31.25H31.875V37.5H29.375ZM37.5 37.5H33.125V30.625C33.125 30.4592 33.0592 30.3003 32.9419 30.1831C32.8247 30.0658 32.6658 30 32.5 30H28.75C28.5842 30 28.4253 30.0658 28.3081 30.1831C28.1908 30.3003 28.125 30.4592 28.125 30.625V37.5H23.75V29.0088L30.625 22.1338L33.3081 24.8169C33.3954 24.9046 33.5068 24.9643 33.6281 24.9886C33.7494 25.0129 33.8752 25.0006 33.9895 24.9532C34.1039 24.9059 34.2015 24.8256 34.2702 24.7227C34.3388 24.6197 34.3753 24.4987 34.375 24.375V22.5H36.25V27.5C36.25 27.6657 36.3159 27.8247 36.4331 27.9419L37.5 29.0088V37.5ZM4.375 2.5H36.25V21.25H33.75C33.5842 21.25 33.4253 21.3158 33.3081 21.4331C33.1908 21.5503 33.125 21.7092 33.125 21.875V22.8662L31.0669 20.8081C30.9497 20.691 30.7907 20.6251 30.625 20.6251C30.4593 20.6251 30.3003 20.691 30.1831 20.8081L22.6831 28.3081C22.5659 28.4253 22.5 28.5843 22.5 28.75V32.5H7.5V6.875C7.5 6.70924 7.43415 6.55027 7.31694 6.43306C7.19973 6.31585 7.04076 6.25 6.875 6.25H4.375C3.34125 6.25 2.5 5.40875 2.5 4.375C2.5 3.34125 3.34125 2.5 4.375 2.5ZM2.5 6.87375C3.04021 7.28095 3.69851 7.50082 4.375 7.5H6.25V37.5H4.375C3.34125 37.5 2.5 36.6587 2.5 35.625V6.87375Z" fill="#FECC52"/>
<path d="M10 26.875H13.75C13.9158 26.875 14.0747 26.8092 14.1919 26.6919C14.3092 26.5747 14.375 26.4158 14.375 26.25C14.375 25.435 14.8975 24.74 15.625 24.4819V26.25C15.625 26.4158 15.6908 26.5747 15.8081 26.6919C15.9253 26.8092 16.0842 26.875 16.25 26.875H20.625C20.7908 26.875 20.9497 26.8092 21.0669 26.6919C21.1842 26.5747 21.25 26.4158 21.25 26.25V18.125H33.75C33.9158 18.125 34.0747 18.0592 34.1919 17.9419C34.3092 17.8247 34.375 17.6658 34.375 17.5V5C34.375 4.83424 34.3092 4.67527 34.1919 4.55806C34.0747 4.44085 33.9158 4.375 33.75 4.375H10C9.83424 4.375 9.67527 4.44085 9.55806 4.55806C9.44085 4.67527 9.375 4.83424 9.375 5V26.25C9.375 26.4158 9.44085 26.5747 9.55806 26.6919C9.67527 26.8092 9.83424 26.875 10 26.875ZM33.125 16.875H25.625V15.625H27.5C27.6658 15.625 27.8247 15.5592 27.9419 15.4419C28.0592 15.3247 28.125 15.1658 28.125 15C28.1241 14.2799 27.8749 13.5821 27.4195 13.0242C26.9642 12.4664 26.3304 12.0826 25.625 11.9375V5.625H33.125V16.875ZM17.5 5.625V11.875H16.875V13.125H18.125C18.2908 13.125 18.4497 13.0592 18.5669 12.9419C18.6842 12.8247 18.75 12.6658 18.75 12.5V5.625H24.375V12.5C24.375 12.6658 24.4408 12.8247 24.5581 12.9419C24.6753 13.0592 24.8342 13.125 25 13.125C25.815 13.125 26.51 13.6475 26.7688 14.375H25C24.8342 14.375 24.6753 14.4408 24.5581 14.5581C24.4408 14.6753 24.375 14.8342 24.375 15V16.875H20.625C20.4592 16.875 20.3003 16.9408 20.1831 17.0581C20.0658 17.1753 20 17.3342 20 17.5V25.625H16.875V23.75C16.875 23.5842 16.8092 23.4253 16.6919 23.3081C16.5747 23.1908 16.4158 23.125 16.25 23.125C15.5299 23.1259 14.8321 23.3751 14.2742 23.8305C13.7164 24.2858 13.3326 24.9196 13.1875 25.625H10.625V13.125H15V11.875H10.625V5.625H17.5ZM8.75 30H10V31.25H8.75V30ZM11.25 30H12.5V31.25H11.25V30ZM13.75 30H15V31.25H13.75V30Z" fill="#FECC52"/>
</svg>
