<?xml version="1.0" encoding="UTF-8"?>
<svg version="1.1" xmlns="http://www.w3.org/2000/svg" width="60" height="60">
<path d="M0 0 C1.04220703 -0.04253906 1.04220703 -0.04253906 2.10546875 -0.0859375 C5.95289989 -0.10042877 8.54851208 0.42850783 11.546875 2.76171875 C15.95418271 7.44281376 16.15049927 12.6413441 16.4375 18.875 C16.125 22.5 16.125 22.5 14.875 24.375 C13.01108361 25.57323197 11.1470468 26.59356523 9.125 27.5 C11.51073379 29.39213369 13.19675348 30.52391783 16.125 31.5 C16.62 32.49 16.62 32.49 17.125 33.5 C18.9503125 33.4071875 18.9503125 33.4071875 20.8125 33.3125 C25.72107399 33.32117239 28.31270682 34.87518542 31.9375 38.125 C33.81087786 41.87175571 33.90402557 45.40657475 33.125 49.5 C31.40595248 52.56881816 29.31785833 54.90357084 26.125 56.5 C24.13671875 56.66796875 24.13671875 56.66796875 21.8125 56.6875 C21.05324219 56.70167969 20.29398438 56.71585938 19.51171875 56.73046875 C17.125 56.5 17.125 56.5 14.953125 55.4934082 C11.41449942 54.25042931 8.18354457 54.28608557 4.48828125 54.375 C3.76762985 54.38257324 3.04697845 54.39014648 2.30448914 54.39794922 C0.01524314 54.42227336 -2.27348565 54.45955039 -4.5625 54.5 C-7.58722519 54.55308198 -10.61170473 54.59308336 -13.63671875 54.625 C-14.33254562 54.64159668 -15.0283725 54.65819336 -15.74528503 54.67529297 C-17.45609818 54.6928325 -19.16732092 54.60498296 -20.875 54.5 C-23.42903148 51.94596852 -23.20107024 50.85990775 -23.25 47.3125 C-23.12658783 41.7662119 -22.33702501 38.84972372 -18.875 34.5 C-16.61619387 32.88057751 -14.38294557 31.75397278 -11.875 30.5 C-10.52112711 29.52798869 -9.17644802 28.54115841 -7.875 27.5 C-8.535 26.51 -9.195 25.52 -9.875 24.5 C-9.875 23.51 -9.875 22.52 -9.875 21.5 C-11.195 21.17 -12.515 20.84 -13.875 20.5 C-14.39326327 6.24776017 -14.39326327 6.24776017 -10.2890625 1.76953125 C-6.9082057 -0.00842742 -3.73064085 -0.01369043 0 0 Z M-8.8125 5.3125 C-10.19052396 8.14960815 -10.08719778 10.38776587 -9.875 13.5 C-7.93701737 10.72739701 -7.93701737 10.72739701 -6.875 8.5 C-1.925 8.5 3.025 8.5 8.125 8.5 C8.785 10.15 9.445 11.8 10.125 13.5 C10.455 13.5 10.785 13.5 11.125 13.5 C11.125 11.52 11.125 9.54 11.125 7.5 C9.805 7.17 8.485 6.84 7.125 6.5 C7.125 5.51 7.125 4.52 7.125 3.5 C4.85520335 3.39205723 2.58394804 3.31443824 0.3125 3.25 C-0.95207031 3.20359375 -2.21664063 3.1571875 -3.51953125 3.109375 C-6.90306242 3.16649946 -6.90306242 3.16649946 -8.8125 5.3125 Z M-3.875 9.5 C-6.94335647 12.56835647 -7.52137173 16.24172628 -7.875 20.5 C-6.37674939 24.20619887 -5.21825095 25.27116603 -1.875 27.5 C0.75031524 27.66713569 0.75031524 27.66713569 3.125 27.5 C2.795 25.52 2.465 23.54 2.125 21.5 C4.435 21.5 6.745 21.5 9.125 21.5 C8.980625 20.79875 8.83625 20.0975 8.6875 19.375 C8.11021625 16.42443859 7.60804859 13.46729849 7.125 10.5 C5.33491533 10.27848451 3.54281838 10.07317787 1.75 9.875 C0.75226562 9.75898438 -0.24546875 9.64296875 -1.2734375 9.5234375 C-2.13195312 9.51570312 -2.99046875 9.50796875 -3.875 9.5 Z M12.125 16.5 C13.125 18.5 13.125 18.5 13.125 18.5 Z M3.125 29.5 C1.475 29.83 -0.175 30.16 -1.875 30.5 C-1.545 31.16 -1.215 31.82 -0.875 32.5 C0.775 32.17 2.425 31.84 4.125 31.5 C3.795 30.84 3.465 30.18 3.125 29.5 Z M-6.875 32.5 C-5.885 33.985 -5.885 33.985 -4.875 35.5 C-3.885 35.17 -2.895 34.84 -1.875 34.5 C-4.35 33.51 -4.35 33.51 -6.875 32.5 Z M6.125 32.5 C5.135 33.985 5.135 33.985 4.125 35.5 C5.445 34.84 6.765 34.18 8.125 33.5 C7.465 33.17 6.805 32.84 6.125 32.5 Z M9.16796875 34.36328125 C7.10560129 35.97409878 5.58517309 37.31605235 4.125 39.5 C3.6962277 43.69172922 4.23348866 47.71697732 6.125 51.5 C7.775 51.5 9.425 51.5 11.125 51.5 C10.795 50.51 10.465 49.52 10.125 48.5 C9.75211684 43.46607729 10.09447017 40.57955939 13.125 36.5 C13.785 35.84 14.445 35.18 15.125 34.5 C12.69286896 33.61019596 11.58147332 33.29864151 9.16796875 34.36328125 Z M-10.875 33.5 C-15.06074325 36.01144595 -18.03294757 37.89486893 -19.875 42.5 C-20.10369139 45.51872632 -20.05266109 48.47976154 -19.875 51.5 C-18.225 51.5 -16.575 51.5 -14.875 51.5 C-14.875 50.18 -14.875 48.86 -14.875 47.5 C-13.885 47.5 -12.895 47.5 -11.875 47.5 C-11.875 48.82 -11.875 50.14 -11.875 51.5 C-9.565 51.5 -7.255 51.5 -4.875 51.5 C-2.62810094 45.62829293 -2.62810094 45.62829293 -2.875 39.5 C-5.32754803 37.15455014 -8.0080477 35.30464408 -10.875 33.5 Z M0.125 36.5 C1.125 38.5 1.125 38.5 1.125 38.5 Z M14.125 38.5625 C11.59524867 42.27807226 11.3371872 44.0882483 12.125 48.5 C14.38168676 51.46593118 16.11384076 53.08516544 19.5625 54.5 C23.23573036 54.5 25.11196002 53.59602781 28.125 51.5 C30.36243084 48.27948751 30.36243084 48.27948751 31.125 44.5 C29.73732842 40.41407812 28.72978184 38.9031879 25.125 36.5 C20.22012657 35.94622397 18.22520612 35.74360829 14.125 38.5625 Z M0.125 41.5 C-0.205 44.8 -0.535 48.1 -0.875 51.5 C0.445 51.17 1.765 50.84 3.125 50.5 C2.465 47.53 1.805 44.56 1.125 41.5 C0.795 41.5 0.465 41.5 0.125 41.5 Z " fill="#000000" transform="translate(24.875,1.5)"/>
<path d="M0 0 C4.86480496 3.89184397 4.86480496 3.89184397 5.54296875 7.796875 C5.80757752 12.05922172 5.56332441 14.88064703 2.8125 18.25 C-1.031533 21.91098381 -3.35150251 22.09305875 -8.48828125 22.03515625 C-12.06329353 21.5965413 -14.1456253 20.09164608 -16.8125 17.75 C-19.40286348 14.33542996 -19.24358741 10.91717829 -18.8125 6.75 C-17.19929279 3.69642921 -15.78189098 1.51166434 -13.0625 -0.625 C-8.39863264 -1.92051871 -4.37274106 -1.94344047 0 0 Z M-13.8125 3.8125 C-16.34225133 7.52807226 -16.6003128 9.3382483 -15.8125 13.75 C-13.55581324 16.71593118 -11.82365924 18.33516544 -8.375 19.75 C-4.70176964 19.75 -2.82553998 18.84602781 0.1875 16.75 C2.42493084 13.52948751 2.42493084 13.52948751 3.1875 9.75 C1.79982842 5.66407812 0.79228184 4.1531879 -2.8125 1.75 C-7.71737343 1.19622397 -9.71229388 0.99360829 -13.8125 3.8125 Z " fill="#F19F46" transform="translate(52.8125,36.25)"/>
<path d="M0 0 C1.65 0 3.3 0 5 0 C5.94616328 3.42984189 6 6.44175575 6 10 C4.02 10 2.04 10 0 10 C-0.33 9.34 -0.66 8.68 -1 8 C-0.34 7.01 0.32 6.02 1 5 C0.34 4.67 -0.32 4.34 -1 4 C-0.67 2.68 -0.34 1.36 0 0 Z M2 2 C3 4 3 4 3 4 Z " fill="#F19F46" transform="translate(40,42)"/>
<path d="M0 0 C0.99 0.66 1.98 1.32 3 2 C3.40843923 4.71203652 3.13336867 7.2437142 3 10 C2.01 10 1.02 10 0 10 C0 9.34 0 8.68 0 8 C-1.32 8 -2.64 8 -4 8 C-3.40072174 4.64404172 -2.15377564 2.62198774 0 0 Z " fill="#F19F46" transform="translate(50,41)"/>
</svg>
