<?xml version="1.0" encoding="UTF-8"?>
<svg version="1.1" xmlns="http://www.w3.org/2000/svg" width="60" height="60">
<path d="M0 0 C1.06089844 0.28617187 2.12179688 0.57234375 3.21484375 0.8671875 C5.81245558 1.56924475 8.40721785 2.28034984 11 3 C11 4.98 11 6.96 11 9 C10.01 9 9.02 9 8 9 C8 21.87 8 34.74 8 48 C8.99 48 9.98 48 11 48 C11 48.99 11 49.98 11 51 C-6.82 51 -24.64 51 -43 51 C-43 41.1 -43 31.2 -43 21 C-42.01 20.67 -41.02 20.34 -40 20 C-40 16.37 -40 12.74 -40 9 C-40.99 9 -41.98 9 -43 9 C-43 7.02 -43 5.04 -43 3 C-39.33770771 1.98349761 -35.66957758 0.9898496 -32 0 C-30.97003906 -0.28617187 -29.94007812 -0.57234375 -28.87890625 -0.8671875 C-17.98460751 -3.78158589 -10.83749626 -3.01116917 0 0 Z M-21.5703125 4.09375 C-22.46621094 4.31933594 -23.36210937 4.54492188 -24.28515625 4.77734375 C-25.69087891 5.13505859 -25.69087891 5.13505859 -27.125 5.5 C-28.54232422 5.85771484 -28.54232422 5.85771484 -29.98828125 6.22265625 C-32.32605255 6.81300254 -34.66309564 7.4062312 -37 8 C-37 11.96 -37 15.92 -37 20 C-35.68 20 -34.36 20 -33 20 C-33 17.69 -33 15.38 -33 13 C-21.78 13 -10.56 13 1 13 C1 24.55 1 36.1 1 48 C2.32 48 3.64 48 5 48 C5 34.8 5 21.6 5 8 C0.111875 6.7625 0.111875 6.7625 -4.875 5.5 C-5.90093262 5.23896484 -6.92686523 4.97792969 -7.98388672 4.70898438 C-8.79100098 4.50595703 -9.59811523 4.30292969 -10.4296875 4.09375 C-11.25710449 3.88427734 -12.08452148 3.67480469 -12.93701172 3.45898438 C-16.15007114 2.74412618 -18.41309231 3.29445375 -21.5703125 4.09375 Z M-30 16 C-30 16.33 -30 16.66 -30 17 C-20.76 17 -11.52 17 -2 17 C-2 16.67 -2 16.34 -2 16 C-11.24 16 -20.48 16 -30 16 Z M-40 23 C-40 26.63 -40 30.26 -40 34 C-37.03 34 -34.06 34 -31 34 C-31 33.01 -31 32.02 -31 31 C-30.01 31 -29.02 31 -28 31 C-27.67 31.99 -27.34 32.98 -27 34 C-27 30.37 -27 26.74 -27 23 C-27.66 23 -28.32 23 -29 23 C-29.33 24.32 -29.66 25.64 -30 27 C-32.64 27.33 -35.28 27.66 -38 28 C-38 26.35 -38 24.7 -38 23 C-38.66 23 -39.32 23 -40 23 Z M-35 23 C-35 23.99 -35 24.98 -35 26 C-34.01 26 -33.02 26 -32 26 C-32 25.01 -32 24.02 -32 23 C-32.99 23 -33.98 23 -35 23 Z M-24 23 C-24 23.33 -24 23.66 -24 24 C-16.74 24 -9.48 24 -2 24 C-2 23.67 -2 23.34 -2 23 C-9.26 23 -16.52 23 -24 23 Z M-24 30 C-24 31.32 -24 32.64 -24 34 C-19.05 34.33 -14.1 34.66 -9 35 C-8.67 39.29 -8.34 43.58 -8 48 C-6.02 48 -4.04 48 -2 48 C-2 42.06 -2 36.12 -2 30 C-9.26 30 -16.52 30 -24 30 Z M-40 37 C-40 40.63 -40 44.26 -40 48 C-37.03 48 -34.06 48 -31 48 C-31 47.01 -31 46.02 -31 45 C-30.01 45 -29.02 45 -28 45 C-27.67 45.99 -27.34 46.98 -27 48 C-27 44.37 -27 40.74 -27 37 C-27.66 37 -28.32 37 -29 37 C-29.33 38.65 -29.66 40.3 -30 42 C-32.31 42 -34.62 42 -37 42 C-37.33 40.35 -37.66 38.7 -38 37 C-38.66 37 -39.32 37 -40 37 Z M-35 37 C-35 37.99 -35 38.98 -35 40 C-34.01 40 -33.02 40 -32 40 C-32 39.01 -32 38.02 -32 37 C-32.99 37 -33.98 37 -35 37 Z M-24 37 C-24 40.63 -24 44.26 -24 48 C-21.03 48 -18.06 48 -15 48 C-15 47.01 -15 46.02 -15 45 C-14.01 45 -13.02 45 -12 45 C-11.67 45.99 -11.34 46.98 -11 48 C-11 44.37 -11 40.74 -11 37 C-11.99 37 -12.98 37 -14 37 C-14.33 38.65 -14.66 40.3 -15 42 C-16.98 42 -18.96 42 -21 42 C-21.33 40.35 -21.66 38.7 -22 37 C-22.66 37 -23.32 37 -24 37 Z M-18 38 C-18.33 38.99 -18.66 39.98 -19 41 C-18.01 41 -17.02 41 -16 41 C-16 40.01 -16 39.02 -16 38 C-16.66 38 -17.32 38 -18 38 Z " fill="#F19F46" transform="translate(46,6)"/>
<path d="M0 0 C0.79792969 0.00386719 1.59585937 0.00773437 2.41796875 0.01171875 C3.21589844 0.00785156 4.01382812 0.00398438 4.8359375 0 C10.79136108 0.01011108 10.79136108 0.01011108 11.91796875 1.13671875 C11.99055821 3.32311328 12.00170658 5.51172264 11.98046875 7.69921875 C11.97144531 8.89675781 11.96242188 10.09429687 11.953125 11.328125 C11.94152344 12.25496094 11.92992188 13.18179688 11.91796875 14.13671875 C12.98917969 14.12511719 14.06039063 14.11351562 15.1640625 14.1015625 C16.56119618 14.09218576 17.95833174 14.08308544 19.35546875 14.07421875 C20.06251953 14.06583984 20.76957031 14.05746094 21.49804688 14.04882812 C23.30490434 14.04018287 25.11184478 14.08451864 26.91796875 14.13671875 C28.67356817 15.89231817 28.05018794 18.17254317 28.0546875 20.5078125 C28.05082031 21.21035156 28.04695313 21.91289063 28.04296875 22.63671875 C28.04876953 23.69052734 28.04876953 23.69052734 28.0546875 24.765625 C28.04458253 30.01010497 28.04458253 30.01010497 26.91796875 31.13671875 C24.39702799 31.22519618 21.90365982 31.25199176 19.3828125 31.234375 C18.25293663 31.23225258 18.25293663 31.23225258 17.10023499 31.23008728 C14.68527315 31.22447251 12.27040274 31.21191758 9.85546875 31.19921875 C8.22200654 31.19420565 6.58854289 31.18964241 4.95507812 31.18554688 C0.9426729 31.17449829 -3.06966366 31.15722381 -7.08203125 31.13671875 C-7.10668747 26.88257252 -7.12487024 22.62846377 -7.13696289 18.37426758 C-7.14200226 16.92601802 -7.14883378 15.47777358 -7.1574707 14.02954102 C-7.16955372 11.95197287 -7.17526336 9.87447178 -7.1796875 7.796875 C-7.18492432 6.54527588 -7.19016113 5.29367676 -7.19555664 4.00415039 C-6.99109787 -1.16008241 -4.58568215 0.00778554 0 0 Z M-4.08203125 3.13671875 C-4.08203125 6.76671875 -4.08203125 10.39671875 -4.08203125 14.13671875 C-1.11203125 14.13671875 1.85796875 14.13671875 4.91796875 14.13671875 C4.91796875 13.14671875 4.91796875 12.15671875 4.91796875 11.13671875 C5.90796875 11.13671875 6.89796875 11.13671875 7.91796875 11.13671875 C8.24796875 12.12671875 8.57796875 13.11671875 8.91796875 14.13671875 C8.91796875 10.50671875 8.91796875 6.87671875 8.91796875 3.13671875 C8.25796875 3.13671875 7.59796875 3.13671875 6.91796875 3.13671875 C6.58796875 4.45671875 6.25796875 5.77671875 5.91796875 7.13671875 C3.27796875 7.46671875 0.63796875 7.79671875 -2.08203125 8.13671875 C-2.08203125 6.48671875 -2.08203125 4.83671875 -2.08203125 3.13671875 C-2.74203125 3.13671875 -3.40203125 3.13671875 -4.08203125 3.13671875 Z M0.91796875 3.13671875 C0.91796875 4.12671875 0.91796875 5.11671875 0.91796875 6.13671875 C1.90796875 6.13671875 2.89796875 6.13671875 3.91796875 6.13671875 C3.91796875 5.14671875 3.91796875 4.15671875 3.91796875 3.13671875 C2.92796875 3.13671875 1.93796875 3.13671875 0.91796875 3.13671875 Z M-4.08203125 17.13671875 C-4.08203125 20.76671875 -4.08203125 24.39671875 -4.08203125 28.13671875 C-1.11203125 28.13671875 1.85796875 28.13671875 4.91796875 28.13671875 C4.91796875 27.14671875 4.91796875 26.15671875 4.91796875 25.13671875 C5.90796875 25.13671875 6.89796875 25.13671875 7.91796875 25.13671875 C8.24796875 26.12671875 8.57796875 27.11671875 8.91796875 28.13671875 C8.91796875 24.50671875 8.91796875 20.87671875 8.91796875 17.13671875 C8.25796875 17.13671875 7.59796875 17.13671875 6.91796875 17.13671875 C6.58796875 18.78671875 6.25796875 20.43671875 5.91796875 22.13671875 C3.60796875 22.13671875 1.29796875 22.13671875 -1.08203125 22.13671875 C-1.41203125 20.48671875 -1.74203125 18.83671875 -2.08203125 17.13671875 C-2.74203125 17.13671875 -3.40203125 17.13671875 -4.08203125 17.13671875 Z M0.91796875 17.13671875 C0.91796875 18.12671875 0.91796875 19.11671875 0.91796875 20.13671875 C1.90796875 20.13671875 2.89796875 20.13671875 3.91796875 20.13671875 C3.91796875 19.14671875 3.91796875 18.15671875 3.91796875 17.13671875 C2.92796875 17.13671875 1.93796875 17.13671875 0.91796875 17.13671875 Z M11.91796875 17.13671875 C11.91796875 20.76671875 11.91796875 24.39671875 11.91796875 28.13671875 C14.88796875 28.13671875 17.85796875 28.13671875 20.91796875 28.13671875 C20.91796875 27.14671875 20.91796875 26.15671875 20.91796875 25.13671875 C21.90796875 25.13671875 22.89796875 25.13671875 23.91796875 25.13671875 C24.24796875 26.12671875 24.57796875 27.11671875 24.91796875 28.13671875 C24.91796875 24.50671875 24.91796875 20.87671875 24.91796875 17.13671875 C23.92796875 17.13671875 22.93796875 17.13671875 21.91796875 17.13671875 C21.58796875 18.78671875 21.25796875 20.43671875 20.91796875 22.13671875 C18.93796875 22.13671875 16.95796875 22.13671875 14.91796875 22.13671875 C14.58796875 20.48671875 14.25796875 18.83671875 13.91796875 17.13671875 C13.25796875 17.13671875 12.59796875 17.13671875 11.91796875 17.13671875 Z M17.91796875 18.13671875 C17.58796875 19.12671875 17.25796875 20.11671875 16.91796875 21.13671875 C17.90796875 21.13671875 18.89796875 21.13671875 19.91796875 21.13671875 C19.91796875 20.14671875 19.91796875 19.15671875 19.91796875 18.13671875 C19.25796875 18.13671875 18.59796875 18.13671875 17.91796875 18.13671875 Z " fill="#000000" transform="translate(10.08203125,25.86328125)"/>
<path d="M0 0 C2.64 0 5.28 0 8 0 C8 1.32 8 2.64 8 4 C5.36 4 2.72 4 0 4 C0 2.68 0 1.36 0 0 Z " fill="#000000" transform="translate(26,12)"/>
</svg>
