<?xml version="1.0" encoding="UTF-8"?>
<svg version="1.1" xmlns="http://www.w3.org/2000/svg" width="60" height="60">
<path d="M0 0 C3.75317334 1.55022377 5.9244698 3.69830454 7.875 7.1875 C8.875 10.875 8.875 10.875 8.875 14.1875 C7.4375 16.125 7.4375 16.125 5.875 17.1875 C7.43000981 21.00434226 9.91095495 23.37945732 12.875 26.1875 C15.5655528 24.96742056 15.5655528 24.96742056 17.875 23.1875 C23.97724858 23.42680387 26.81848306 24.84123185 30.875 29.1875 C32.0625 32.0625 32.0625 32.0625 31.875 35.1875 C30.46069367 37.74770416 28.77295283 39.96774894 26.875 42.1875 C15.25311969 41.62515095 6.78773714 36.61562615 -1.125 28.1875 C-6.05005406 22.03655912 -9.22786008 15.76291359 -10.75 8 C-10.04235911 4.815616 -9.46794747 4.23746213 -7 2.25 C-4.36273176 0.6123415 -3.18203752 0.19092225 0 0 Z M-6.125 6.1875 C-5.75786375 16.10017875 -0.55563883 23.64487129 6.52734375 30.359375 C11.46248167 34.20237757 17.33253237 37.7427965 23.61328125 38.53125 C24.35964844 38.4178125 25.10601562 38.304375 25.875 38.1875 C28.13642258 35.44055475 28.13642258 35.44055475 27.75 32.6875 C26.67227556 29.60828731 25.78474151 28.64237076 22.875 27.1875 C19.55149546 27.42195929 19.55149546 27.42195929 16.875 29.1875 C12.63776918 29.77874151 11.1714214 29.39841523 7.625 26.875 C2.96774194 22.32358871 2.96774194 22.32358871 2.625 18.125 C2.875 15.1875 2.875 15.1875 4.875 13.1875 C4.70337291 9.92658537 4.06745443 8.42486046 2 5.875 C-1.36538204 3.20249074 -2.6387714 3.8633476 -6.125 6.1875 Z " fill="#000000" transform="translate(14.125,13.8125)"/>
<path d="M0 0 C6.34709705 -0.55192148 11.45561789 0.83178165 17 4 C22.07719331 8.28951659 25.59708659 13.46606068 27 20 C27.20034834 22.39962674 27.15085429 24.58633134 27 27 C26.01 27.33 25.02 27.66 24 28 C23.76216797 26.82244141 23.76216797 26.82244141 23.51953125 25.62109375 C21.92562493 18.44411226 20.50740352 12.12657969 14.21484375 7.76171875 C9.4095692 5.13458058 4.36252884 3.94340785 -1 3 C-0.67 2.01 -0.34 1.02 0 0 Z " fill="#F19F46" transform="translate(29,4)"/>
<path d="M0 0 C7.11306163 0.84799845 12.08069256 1.58876182 17 7 C19.96852716 11.60633524 20.53902686 15.65271161 21 21 C19.68 21 18.36 21 17 21 C16.731875 19.783125 16.46375 18.56625 16.1875 17.3125 C14.92557109 12.38662578 13.74307521 9.06961434 9.25 6.3125 C5.84982671 4.9393531 2.54581286 3.92191134 -1 3 C-0.67 2.01 -0.34 1.02 0 0 Z " fill="#F19F46" transform="translate(29,10)"/>
<path d="M0 0 C5.69292334 -0.45543387 8.6015015 0.31753614 13 4 C15.58629613 7.40920854 15.15980561 10.84505405 15 15 C14.01 15 13.02 15 12 15 C11.608125 13.741875 11.21625 12.48375 10.8125 11.1875 C9.67766542 8.1577058 9.16823219 7.13372302 6.5625 5.0625 C4.36411759 4.15097559 2.33678289 3.43273757 0 3 C0 2.01 0 1.02 0 0 Z " fill="#F19F46" transform="translate(28,17)"/>
</svg>
