<?xml version="1.0" encoding="UTF-8"?>
<svg version="1.1" xmlns="http://www.w3.org/2000/svg" width="60" height="60">
<path d="M0 0 C2.69990662 1.79993774 4.5418865 3.083773 6 6 C6.44143161 9.97288453 6.32030013 11.53956856 4 14.875 C3.34 15.57625 2.68 16.2775 2 17 C3.75244247 18.6483633 3.75244247 18.6483633 6 20 C8.20800528 19.78282648 8.20800528 19.78282648 10 19 C9.484375 18.46375 8.96875 17.9275 8.4375 17.375 C7 15 7 15 7.1875 11.875 C8 9 8 9 10 7 C17.10659898 6.32318105 17.10659898 6.32318105 20.0625 8.5625 C21.37275033 11.96915087 20.7181044 14.47476024 20 18 C19.7715451 20.24362573 19.7715451 20.24362573 22 22.125 C24 25 24 25 24 33 C6.18 33 -11.64 33 -30 33 C-30 24 -30 24 -25 19 C-25.66 18.01 -26.32 17.02 -27 16 C-26.54716981 9.54716981 -26.54716981 9.54716981 -24 7 C-16.8627451 6.32026144 -16.8627451 6.32026144 -13.9375 8.625 C-12.68143392 11.80703406 -13.07929747 13.74212952 -14 17 C-14.66 17.66 -15.32 18.32 -16 19 C-14.20800528 19.78282648 -14.20800528 19.78282648 -12 20 C-9.75244247 18.6483633 -9.75244247 18.6483633 -8 17 C-8.66 16.29875 -9.32 15.5975 -10 14.875 C-12.36494446 11.47539234 -12.67568691 10.05412149 -12 6 C-8.54235344 0.81353016 -6.24330406 -0.61208863 0 0 Z M-4 3 C-5.65 4.65 -7.3 6.3 -9 8 C-7.92598892 10.91517292 -7.22189824 12.77810176 -5 15 C-1.86790553 14.83937977 -0.40233915 14.3634031 1.9375 12.25 C3.26777107 10.00466317 3.26777107 10.00466317 2.5 7.375 C0.67193589 4.48056516 -0.76714516 3.9358264 -4 3 Z M-22 10 C-22.66 11.32 -23.32 12.64 -24 14 C-23.01 15.485 -23.01 15.485 -22 17 C-20.35 16.67 -18.7 16.34 -17 16 C-16.67 15.01 -16.34 14.02 -16 13 C-16.66 12.01 -17.32 11.02 -18 10 C-19.32 10 -20.64 10 -22 10 Z M12 10 C11.34 11.32 10.68 12.64 10 14 C11.22809091 15.64555699 11.22809091 15.64555699 13 17 C15.16299211 16.77242269 15.16299211 16.77242269 17 16 C17.6814823 14.10820797 17.6814823 14.10820797 18 12 C17.34 11.34 16.68 10.68 16 10 C14.68 10 13.36 10 12 10 Z M-12 25 C-12.33 26.32 -12.66 27.64 -13 29 C-6.4 29 0.2 29 7 29 C5.02275969 24.05689923 4.34988243 22.66924604 0 20 C-5.73349864 18.90209601 -8.1544956 21.06506526 -12 25 Z M-27 26 C-27 26.99 -27 27.98 -27 29 C-23.37 29 -19.74 29 -16 29 C-15.67 27.35 -15.34 25.7 -15 24 C-20.1688203 20.5541198 -22.85289884 21.96809609 -27 26 Z M9 24 C9.33 25.65 9.66 27.3 10 29 C13.63 29 17.26 29 21 29 C20.39251841 25.06994261 20.39251841 25.06994261 18.1875 23.25 C14.44742036 21.11281164 12.47443349 21.68371101 9 24 Z " fill="#000000" transform="translate(33,23)"/>
<path d="M0 0 C0.99 0.33 1.98 0.66 3 1 C3.6875 3.0625 3.6875 3.0625 4 5 C6.97 5.495 6.97 5.495 10 6 C10 6.99 10 7.98 10 9 C9.505 9.45375 9.01 9.9075 8.5 10.375 C6.43476658 12.24375691 6.43476658 12.24375691 7 17 C3.04 17 -0.92 17 -5 17 C-7.14285714 9.57142857 -7.14285714 9.57142857 -8 6 C-6.576875 5.9071875 -6.576875 5.9071875 -5.125 5.8125 C-4.09375 5.544375 -3.0625 5.27625 -2 5 C-0.54708727 2.53744315 -0.54708727 2.53744315 0 0 Z M-3 9 C-2.01 10.485 -2.01 10.485 -1 12 C0.32 12 1.64 12 3 12 C3.66 10.68 4.32 9.36 5 8 C0.82189931 6.81068813 0.82189931 6.81068813 -3 9 Z " fill="#F19F46" transform="translate(29,4)"/>
<path d="M0 0 C1.32 0.33 2.64 0.66 4 1 C4 1.66 4 2.32 4 3 C5.32 3.33 6.64 3.66 8 4 C8 7.38023517 7.12544378 9.83468937 6 13 C3.03 13 0.06 13 -3 13 C-3.66 10.03 -4.32 7.06 -5 4 C-3.68 3.34 -2.36 2.68 -1 2 C-0.67 1.34 -0.34 0.68 0 0 Z M0 6 C0.33 6.66 0.66 7.32 1 8 C1.66 8 2.32 8 3 8 C3 7.34 3 6.68 3 6 C2.01 6 1.02 6 0 6 Z " fill="#F19F46" transform="translate(46,14)"/>
<path d="M0 0 C3 0 3 0 4.5625 1.4375 C5.036875 1.953125 5.51125 2.46875 6 3 C6.66 3.33 7.32 3.66 8 4 C7.34 6.97 6.68 9.94 6 13 C3.03 13 0.06 13 -3 13 C-4 10 -5 7 -6 4 C-4.35 3.67 -2.7 3.34 -1 3 C-0.67 2.01 -0.34 1.02 0 0 Z M0 6 C0 6.66 0 7.32 0 8 C0.99 7.67 1.98 7.34 3 7 C2.01 6.67 1.02 6.34 0 6 Z " fill="#F19F46" transform="translate(11,14)"/>
<path d="M0 0 C1.9375 0.75 1.9375 0.75 4 2 C4.75 4.125 4.75 4.125 5 6 C3.125 5.75 3.125 5.75 1 5 C-0.25 2.9375 -0.25 2.9375 -1 1 C-0.67 0.67 -0.34 0.34 0 0 Z " fill="#000000" transform="translate(33,45)"/>
<path d="M0 0 C0.99 0.33 1.98 0.66 3 1 C2.67 1.66 2.34 2.32 2 3 C1.01 2.67 0.02 2.34 -1 2 C-0.67 1.34 -0.34 0.68 0 0 Z " fill="#000000" transform="translate(29,44)"/>
</svg>
