<?xml version="1.0" encoding="UTF-8"?>
<svg version="1.1" xmlns="http://www.w3.org/2000/svg" width="60" height="60">
<path d="M0 0 C3.74326381 2.18812916 6.09627136 4.82979634 8.5625 8.375 C8.5625 9.035 8.5625 9.695 8.5625 10.375 C9.8825 10.705 11.2025 11.035 12.5625 11.375 C13.0575 13.355 13.0575 13.355 13.5625 15.375 C12.2425 15.375 10.9225 15.375 9.5625 15.375 C9.5625 14.715 9.5625 14.055 9.5625 13.375 C-3.6375 13.375 -16.8375 13.375 -30.4375 13.375 C-30.4375 17.335 -30.4375 21.295 -30.4375 25.375 C-17.2375 25.375 -4.0375 25.375 9.5625 25.375 C10.0575 23.89 10.0575 23.89 10.5625 22.375 C11.5525 22.705 12.5425 23.035 13.5625 23.375 C12.9025 25.025 12.2425 26.675 11.5625 28.375 C10.5725 28.375 9.5825 28.375 8.5625 28.375 C9.0678125 28.90609375 9.573125 29.4371875 10.09375 29.984375 C11.06828125 31.04398438 11.06828125 31.04398438 12.0625 32.125 C12.7121875 32.82109375 13.361875 33.5171875 14.03125 34.234375 C15.5625 36.375 15.5625 36.375 15.5625 40.375 C12.5925 40.375 9.6225 40.375 6.5625 40.375 C6.0675 45.325 6.0675 45.325 5.5625 50.375 C1.1768567 49.27858918 0.60987779 48.58959341 -2.1875 45.3125 C-5.69560587 41.70121901 -5.69560587 41.70121901 -10.375 40.3125 C-15.43496169 40.78249644 -18.29721438 44.78224765 -21.45703125 48.40625 C-23.4375 50.375 -23.4375 50.375 -26.4375 50.375 C-26.7675 47.075 -27.0975 43.775 -27.4375 40.375 C-30.4075 40.375 -33.3775 40.375 -36.4375 40.375 C-36.4375 35.79265954 -35.9194242 35.31991878 -32.9375 32.125 C-32.2878125 31.41859375 -31.638125 30.7121875 -30.96875 29.984375 C-30.21078125 29.18773437 -30.21078125 29.18773437 -29.4375 28.375 C-30.076875 28.25125 -30.71625 28.1275 -31.375 28 C-32.3959375 27.690625 -32.3959375 27.690625 -33.4375 27.375 C-34.79300385 24.6639923 -34.60667207 22.46160831 -34.625 19.4375 C-34.63917969 18.37660156 -34.65335938 17.31570312 -34.66796875 16.22265625 C-34.4375 13.375 -34.4375 13.375 -32.4375 10.375 C-31.4475 10.375 -30.4575 10.375 -29.4375 10.375 C-29.23125 9.653125 -29.025 8.93125 -28.8125 8.1875 C-26.69966338 3.86578874 -23.41062601 1.3219685 -19.1015625 -0.74609375 C-13.00874013 -2.75618911 -5.87249448 -2.67946516 0 0 Z M-15.4375 1.375 C-15.4375 1.705 -15.4375 2.035 -15.4375 2.375 C-12.1375 2.375 -8.8375 2.375 -5.4375 2.375 C-5.4375 2.045 -5.4375 1.715 -5.4375 1.375 C-8.7375 1.375 -12.0375 1.375 -15.4375 1.375 Z M-22.4375 9.375 C-22.7675 8.385 -23.0975 7.395 -23.4375 6.375 C-24.4275 7.695 -25.4175 9.015 -26.4375 10.375 C-15.8775 10.375 -5.3175 10.375 5.5625 10.375 C4.2425 9.055 2.9225 7.735 1.5625 6.375 C1.5625 7.365 1.5625 8.355 1.5625 9.375 C1.0778125 9.08625 0.593125 8.7975 0.09375 8.5 C-8.42699328 3.78081911 -14.16771293 4.44831834 -22.4375 9.375 Z M-26.4375 28.375 C-25.1175 29.695 -23.7975 31.015 -22.4375 32.375 C-22.4375 31.385 -22.4375 30.395 -22.4375 29.375 C-21.48875 30.035 -20.54 30.695 -19.5625 31.375 C-14.95650589 33.98568492 -10.61493544 34.23514902 -5.4375 33.375 C-2.79152219 32.28271023 -0.80761007 31.02377222 1.5625 29.375 C1.8925 30.365 2.2225 31.355 2.5625 32.375 C3.5525 31.055 4.5425 29.735 5.5625 28.375 C-4.9975 28.375 -15.5575 28.375 -26.4375 28.375 Z M-28.4375 33.375 C-30.07426257 35.3350281 -30.07426257 35.3350281 -31.4375 37.375 C-28.4675 37.87 -28.4675 37.87 -25.4375 38.375 C-25.1075 40.355 -24.7775 42.335 -24.4375 44.375 C-21.27634224 43.00516497 -20.4447908 42.3859362 -18.4375 39.375 C-19.72466647 38.36921411 -21.01738658 37.37053202 -22.3125 36.375 C-23.03179687 35.818125 -23.75109375 35.26125 -24.4921875 34.6875 C-26.3227085 33.18856623 -26.3227085 33.18856623 -28.4375 33.375 Z M1.4375 36.375 C0.35082031 37.2103125 0.35082031 37.2103125 -0.7578125 38.0625 C-1.31210937 38.495625 -1.86640625 38.92875 -2.4375 39.375 C-0.7875 41.025 0.8625 42.675 2.5625 44.375 C3.2225 42.395 3.8825 40.415 4.5625 38.375 C6.5425 38.045 8.5225 37.715 10.5625 37.375 C9.19926257 35.3350281 9.19926257 35.3350281 7.5625 33.375 C4.74765955 33.375 3.64040244 34.66952714 1.4375 36.375 Z M-16.4375 36.375 C-12.4375 37.375 -12.4375 37.375 -12.4375 37.375 Z M-8.4375 36.375 C-4.4375 37.375 -4.4375 37.375 -4.4375 37.375 Z " fill="#000000" transform="translate(40.4375,5.625)"/>
<path d="M0 0 C1.98 0 3.96 0 6 0 C6.33 0.66 6.66 1.32 7 2 C7.66 1.34 8.32 0.68 9 0 C11.9375 -0.375 11.9375 -0.375 15 0 C16.9375 1.6875 16.9375 1.6875 18 4 C17.58974359 8.41025641 17.58974359 8.41025641 16 10 C9.53846154 10.35897436 9.53846154 10.35897436 6 8 C6 8.66 6 9.32 6 10 C4.02 10 2.04 10 0 10 C-0.95024979 6.30458414 -0.95024979 3.69541586 0 0 Z M11 3 C11 4.32 11 5.64 11 7 C11.99 7 12.98 7 14 7 C14 5.68 14 4.36 14 3 C13.01 3 12.02 3 11 3 Z " fill="#F19F46" transform="translate(25,20)"/>
<path d="M0 0 C0.99 0.33 1.98 0.66 3 1 C3 3.97 3 6.94 3 10 C1.68 10 0.36 10 -1 10 C-1.02689216 8.52093108 -1.04634621 7.04172517 -1.0625 5.5625 C-1.07410156 4.73878906 -1.08570312 3.91507813 -1.09765625 3.06640625 C-1 1 -1 1 0 0 Z " fill="#F19F46" transform="translate(20,20)"/>
<path d="M0 0 C1.32 0 2.64 0 4 0 C3.67 0.99 3.34 1.98 3 3 C2.01 2.67 1.02 2.34 0 2 C0 1.34 0 0.68 0 0 Z " fill="#000000" transform="translate(50,24)"/>
</svg>
