<?xml version="1.0" encoding="UTF-8"?>
<svg version="1.1" xmlns="http://www.w3.org/2000/svg" width="60" height="60">
<path d="M0 0 C17.16 0 34.32 0 52 0 C53.125 6.75 53.125 6.75 52 11 C42.58997722 12.14806378 42.58997722 12.14806378 38 12 C37.608125 13.11375 37.21625 14.2275 36.8125 15.375 C35.65111658 18.06137753 35.24848975 18.8455334 32.6875 20.4375 C29.71858169 21.05890151 27.02514904 21.14070461 24 21 C24.33 21.99 24.66 22.98 25 24 C28.37464024 24.2503577 28.37464024 24.2503577 32 24 C32.46792969 23.50886719 32.93585937 23.01773437 33.41796875 22.51171875 C35.59822475 20.42836302 37.03189077 20.59849902 40 20.625 C40.86625 20.61726563 41.7325 20.60953125 42.625 20.6015625 C45.50045624 21.08395812 46.20786492 21.74678623 48 24 C48.43237305 25.99291992 48.43237305 25.99291992 48.51171875 28.23046875 C48.54716797 29.03291016 48.58261719 29.83535156 48.61914062 30.66210938 C48.65297852 31.91217773 48.65297852 31.91217773 48.6875 33.1875 C48.72166016 34.03248047 48.75582031 34.87746094 48.79101562 35.74804688 C48.87341471 37.83156649 48.93838645 39.91576216 49 42 C46.525 42.495 46.525 42.495 44 43 C44 44.32 44 45.64 44 47 C43.01 47 42.02 47 41 47 C41 48.65 41 50.3 41 52 C40.34 52 39.68 52 39 52 C39 50.35 39 48.7 39 47 C38.01 47 37.02 47 36 47 C36 45.68 36 44.36 36 43 C34.35 42.67 32.7 42.34 31 42 C31 40.35 31 38.7 31 37 C30.443125 37.144375 29.88625 37.28875 29.3125 37.4375 C24.06404248 38.71415183 19.39400452 39.62930053 14 39 C11 36.9375 11 36.9375 9 34 C8.46396446 29.55856266 8.49968346 27.75047482 11 24 C11.45139459 21.9507906 11.45139459 21.9507906 11.625 19.8125 C11.74875 18.554375 11.8725 17.29625 12 16 C11.0409375 15.8453125 11.0409375 15.8453125 10.0625 15.6875 C9.0415625 15.3471875 9.0415625 15.3471875 8 15 C7.67 14.01 7.34 13.02 7 12 C5.865625 11.855625 4.73125 11.71125 3.5625 11.5625 C0 11 0 11 -1 10 C-1.23880597 2.47761194 -1.23880597 2.47761194 0 0 Z M3 2 C2.67 2.66 2.34 3.32 2 4 C4.475 4.495 4.475 4.495 7 5 C7 4.01 7 3.02 7 2 C5.68 2 4.36 2 3 2 Z M10 2 C9.79375 3.423125 9.5875 4.84625 9.375 6.3125 C9.25898438 7.11300781 9.14296875 7.91351563 9.0234375 8.73828125 C8.78466593 11.28723215 8.78466593 11.28723215 11 14 C14.08365871 14.2502157 14.08365871 14.2502157 17 14 C17 14.66 17 15.32 17 16 C16.34 16 15.68 16 15 16 C15 17.65 15 19.3 15 21 C17.31 21.33 19.62 21.66 22 22 C22 20.02 22 18.04 22 16 C20.68 16 19.36 16 18 16 C18 15.34 18 14.68 18 14 C19.299375 14.020625 20.59875 14.04125 21.9375 14.0625 C23.29165633 14.08399454 24.64756083 14.07148199 26 14 C27.28612676 12.94021067 27.28612676 12.94021067 27.09765625 10.49609375 C27.08605469 9.48675781 27.07445313 8.47742188 27.0625 7.4375 C27.041875 5.643125 27.02125 3.84875 27 2 C21.39 2 15.78 2 10 2 Z M30 2 C30 2.66 30 3.32 30 4 C36.27 4.33 42.54 4.66 49 5 C49.33 4.01 49.66 3.02 50 2 C43.4 2 36.8 2 30 2 Z M2 7 C2 7.66 2 8.32 2 9 C3.65 9 5.3 9 7 9 C7 8.34 7 7.68 7 7 C5.35 7 3.7 7 2 7 Z M30 7 C30 7.66 30 8.32 30 9 C36.6 9 43.2 9 50 9 C50 8.34 50 7.68 50 7 C43.4 7 36.8 7 30 7 Z M30 12 C29.01 13.485 29.01 13.485 28 15 C25.875 15.6875 25.875 15.6875 24 16 C24 16.66 24 17.32 24 18 C29.32170494 18.29562367 29.32170494 18.29562367 34 16 C34 14.68 34 13.36 34 12 C32.68 12 31.36 12 30 12 Z M35 25 C34.63539547 27.66653905 34.63539547 27.66653905 34.8125 30.625 C34.83957031 31.62789062 34.86664063 32.63078125 34.89453125 33.6640625 C34.92933594 34.43492188 34.96414062 35.20578125 35 36 C38.69541586 36.95024979 41.30458414 36.95024979 45 36 C45.08086147 34.20906809 45.13912702 32.41710372 45.1875 30.625 C45.22230469 29.62726562 45.25710937 28.62953125 45.29296875 27.6015625 C45.19628906 26.74304688 45.09960938 25.88453125 45 25 C40.90086392 22.26724261 39.09913608 22.26724261 35 25 Z M13.125 25.125 C11.44531955 27.92446741 11.54257723 29.79804064 12 33 C13.47993156 35.56338689 13.47993156 35.56338689 16 37 C19.55053329 37 21.28808667 36.64301849 23.9375 34.25 C25.2027898 32.02756768 25.2027898 32.02756768 24.875 29.4375 C23.91041439 26.75044008 23.38918727 25.56532959 21 24 C17.85075452 23.60634432 15.88090884 23.47145469 13.125 25.125 Z M27 28 C27 29.98 27 31.96 27 34 C28.65 34 30.3 34 32 34 C32 32.02 32 30.04 32 28 C30.35 28 28.7 28 27 28 Z M33 39 C33 39.33 33 39.66 33 40 C37.62 40 42.24 40 47 40 C47 39.67 47 39.34 47 39 C41.97874074 38.22083908 38.02296004 37.86983399 33 39 Z M39 43 C39 43.66 39 44.32 39 45 C39.66 45 40.32 45 41 45 C41 44.34 41 43.68 41 43 C40.34 43 39.68 43 39 43 Z " fill="#000000" transform="translate(4,4)"/>
<path d="M0 0 C0.86625 -0.00773437 1.7325 -0.01546875 2.625 -0.0234375 C5.50045624 0.45895812 6.20786492 1.12178623 8 3.375 C8.43237305 5.36791992 8.43237305 5.36791992 8.51171875 7.60546875 C8.56489258 8.80913086 8.56489258 8.80913086 8.61914062 10.03710938 C8.64169922 10.87048828 8.66425781 11.70386719 8.6875 12.5625 C8.73874023 13.8299707 8.73874023 13.8299707 8.79101562 15.12304688 C8.87341471 17.20656649 8.93838645 19.29076216 9 21.375 C7.35 21.705 5.7 22.035 4 22.375 C4 23.695 4 25.015 4 26.375 C3.01 26.375 2.02 26.375 1 26.375 C1 28.025 1 29.675 1 31.375 C0.34 31.375 -0.32 31.375 -1 31.375 C-1 29.725 -1 28.075 -1 26.375 C-1.99 26.375 -2.98 26.375 -4 26.375 C-4 25.055 -4 23.735 -4 22.375 C-5.65 22.045 -7.3 21.715 -9 21.375 C-9.08226668 18.33113276 -8.97608217 16.30324652 -8 13.375 C-8.00838415 10.82621959 -8.12902959 8.29535636 -8.2578125 5.75 C-8 3.375 -8 3.375 -6.8046875 1.5859375 C-4.4284446 -0.0085112 -2.84531826 -0.02540463 0 0 Z M-5 4.375 C-5.36460453 7.04153905 -5.36460453 7.04153905 -5.1875 10 C-5.16042969 11.00289062 -5.13335937 12.00578125 -5.10546875 13.0390625 C-5.07066406 13.80992188 -5.03585938 14.58078125 -5 15.375 C-1.30458414 16.32524979 1.30458414 16.32524979 5 15.375 C5.08086147 13.58406809 5.13912702 11.79210372 5.1875 10 C5.22230469 9.00226562 5.25710937 8.00453125 5.29296875 6.9765625 C5.19628906 6.11804688 5.09960938 5.25953125 5 4.375 C0.90086392 1.64224261 -0.90086392 1.64224261 -5 4.375 Z M-7 18.375 C-7 18.705 -7 19.035 -7 19.375 C-2.38 19.375 2.24 19.375 7 19.375 C7 19.045 7 18.715 7 18.375 C1.97874074 17.59583908 -1.97703996 17.24483399 -7 18.375 Z M-1 22.375 C-1 23.035 -1 23.695 -1 24.375 C-0.34 24.375 0.32 24.375 1 24.375 C1 23.715 1 23.055 1 22.375 C0.34 22.375 -0.32 22.375 -1 22.375 Z " fill="#F19F46" transform="translate(44,24.625)"/>
<path d="M0 0 C3 -0.3125 3 -0.3125 6 0 C6.66 0.66 7.32 1.32 8 2 C7.625 5.125 7.625 5.125 7 8 C1.25 9.125 1.25 9.125 -1 8 C-1.75 5.625 -1.75 5.625 -2 3 C-1.34 2.01 -0.68 1.02 0 0 Z M2 2 C2 3.32 2 4.64 2 6 C2.99 6 3.98 6 5 6 C4.67 4.68 4.34 3.36 4 2 C3.34 2 2.68 2 2 2 Z " fill="#000000" transform="translate(19,30)"/>
<path d="M0 0 C0.66 0.33 1.32 0.66 2 1 C2 2.98 2 4.96 2 7 C1.01 7 0.02 7 -1 7 C-1.04254356 5.00045254 -1.04080783 2.99958364 -1 1 C-0.67 0.67 -0.34 0.34 0 0 Z " fill="#000000" transform="translate(22,8)"/>
<path d="M0 0 C0.66 0 1.32 0 2 0 C2 2.64 2 5.28 2 8 C1.34 8 0.68 8 0 8 C0 5.36 0 2.72 0 0 Z " fill="#000000" transform="translate(26,8)"/>
<path d="M0 0 C0.66 0 1.32 0 2 0 C2 2.64 2 5.28 2 8 C1.34 8 0.68 8 0 8 C0 5.36 0 2.72 0 0 Z " fill="#000000" transform="translate(17,8)"/>
</svg>
