<?xml version="1.0" encoding="UTF-8"?>
<svg version="1.1" xmlns="http://www.w3.org/2000/svg" width="60" height="60">
<path d="M0 0 C0.99 0 1.98 0 3 0 C3.04898438 0.71027344 3.09796875 1.42054688 3.1484375 2.15234375 C3.22320312 3.07144531 3.29796875 3.99054687 3.375 4.9375 C3.47941406 6.31228516 3.47941406 6.31228516 3.5859375 7.71484375 C3.79089844 8.84599609 3.79089844 8.84599609 4 10 C10.26808495 13.13404247 17.99206799 11 25 11 C25 25.19 25 39.38 25 54 C7.18 54 -10.64 54 -29 54 C-29 46.74 -29 39.48 -29 32 C-27.68 32 -26.36 32 -25 32 C-25 30.68 -25 29.36 -25 28 C-23.68 28 -22.36 28 -21 28 C-20.67 29.32 -20.34 30.64 -20 32 C-20 30.68 -20 29.36 -20 28 C-17.36 28 -14.72 28 -12 28 C-12 29.32 -12 30.64 -12 32 C-6.06 32 -0.12 32 6 32 C5.67 26.72 5.34 21.44 5 16 C2.69 16 0.38 16 -2 16 C-2.042721 14.33388095 -2.04063832 12.66617115 -2 11 C-1.67 10.67 -1.34 10.34 -1 10 C-0.76712992 8.31816052 -0.58735834 6.6287584 -0.4375 4.9375 C-0.35371094 4.01839844 -0.26992188 3.09929688 -0.18359375 2.15234375 C-0.09271484 1.08693359 -0.09271484 1.08693359 0 0 Z M9 14 C9 16.97 9 19.94 9 23 C13.29 23 17.58 23 22 23 C22 20.03 22 17.06 22 14 C17.71 14 13.42 14 9 14 Z M9 26 C9 34.25 9 42.5 9 51 C13.29 51 17.58 51 22 51 C22 42.75 22 34.5 22 26 C17.71 26 13.42 26 9 26 Z M-26 35 C-25 37 -25 37 -25 37 Z M-19 35 C-18 37 -18 37 -18 37 Z M-12 35 C-11 37 -11 37 -11 37 Z M-8 35 C-8 35.66 -8 36.32 -8 37 C-6.35 37 -4.7 37 -3 37 C-3 36.34 -3 35.68 -3 35 C-4.65 35 -6.3 35 -8 35 Z M1 35 C1 35.66 1 36.32 1 37 C2.65 37 4.3 37 6 37 C6 36.34 6 35.68 6 35 C4.35 35 2.7 35 1 35 Z M-26 40 C-26 43.63 -26 47.26 -26 51 C-21.05 51 -16.1 51 -11 51 C-11 47.37 -11 43.74 -11 40 C-11.99 40.495 -11.99 40.495 -13 41 C-12.67 43.97 -12.34 46.94 -12 50 C-16.29 50 -20.58 50 -25 50 C-24.67 46.7 -24.34 43.4 -24 40 C-24.66 40 -25.32 40 -26 40 Z M-8 40 C-8 43.63 -8 47.26 -8 51 C-6.02 51 -4.04 51 -2 51 C-2 47.37 -2 43.74 -2 40 C-3.98 40 -5.96 40 -8 40 Z M0 40 C0 43.63 0 47.26 0 51 C1.98 51 3.96 51 6 51 C6 47.37 6 43.74 6 40 C4.02 40 2.04 40 0 40 Z M-22 43 C-22 44.32 -22 45.64 -22 47 C-19.69 47 -17.38 47 -15 47 C-15 45.68 -15 44.36 -15 43 C-17.31 43 -19.62 43 -22 43 Z " fill="#F19F46" transform="translate(32,3)"/>
<path d="M0 0 C3.46679688 0.04882812 3.46679688 0.04882812 6.93359375 0.09765625 C6.93359375 3.06765625 6.93359375 6.03765625 6.93359375 9.09765625 C8.25359375 9.75765625 9.57359375 10.41765625 10.93359375 11.09765625 C11.92359375 12.58265625 11.92359375 12.58265625 12.93359375 14.09765625 C12.60359375 15.41765625 12.27359375 16.73765625 11.93359375 18.09765625 C5.33359375 18.09765625 -1.26640625 18.09765625 -8.06640625 18.09765625 C-8.06640625 16.44765625 -8.06640625 14.79765625 -8.06640625 13.09765625 C-7.42703125 12.49953125 -6.78765625 11.90140625 -6.12890625 11.28515625 C-3.11434348 8.0878927 -3.42088298 5.42227231 -3.06640625 1.09765625 C-2.06640625 0.09765625 -2.06640625 0.09765625 0 0 Z M-0.06640625 3.09765625 C-0.06640625 5.07765625 -0.06640625 7.05765625 -0.06640625 9.09765625 C1.25359375 9.09765625 2.57359375 9.09765625 3.93359375 9.09765625 C3.93359375 7.11765625 3.93359375 5.13765625 3.93359375 3.09765625 C2.61359375 3.09765625 1.29359375 3.09765625 -0.06640625 3.09765625 Z M-3.06640625 12.09765625 C-4.05640625 13.58265625 -4.05640625 13.58265625 -5.06640625 15.09765625 C-0.11640625 15.09765625 4.83359375 15.09765625 9.93359375 15.09765625 C9.27359375 14.10765625 8.61359375 13.11765625 7.93359375 12.09765625 C5.34061113 11.61890828 5.34061113 11.61890828 2.43359375 11.72265625 C0.9640625 11.71105469 0.9640625 11.71105469 -0.53515625 11.69921875 C-1.788125 11.89644531 -1.788125 11.89644531 -3.06640625 12.09765625 Z " fill="#000000" transform="translate(11.06640625,2.90234375)"/>
<path d="M0 0 C0.99 0 1.98 0 3 0 C3.06058594 1.21558594 3.12117188 2.43117188 3.18359375 3.68359375 C3.26798332 5.26824228 3.3526321 6.85287702 3.4375 8.4375 C3.47681641 9.23994141 3.51613281 10.04238281 3.55664062 10.86914062 C3.4054296 14.75239561 3.4054296 14.75239561 5 18 C5.04063832 19.66617115 5.042721 21.33388095 5 23 C2.36 23 -0.28 23 -3 23 C-2.125 18.125 -2.125 18.125 -1 17 C-0.76298761 14.14122091 -0.57780818 11.30116703 -0.4375 8.4375 C-0.39431641 7.63119141 -0.35113281 6.82488281 -0.30664062 5.99414062 C-0.20024738 3.99631195 -0.09959112 1.9981793 0 0 Z " fill="#000000" transform="translate(26,3)"/>
<path d="M0 0 C0.99 0 1.98 0 3 0 C3.07347656 0.99580078 3.07347656 0.99580078 3.1484375 2.01171875 C3.71125812 8.7112236 3.71125812 8.7112236 6 15 C5 16 5 16 1.4375 16.0625 C0.303125 16.041875 -0.83125 16.02125 -2 16 C-2.042721 14.33388095 -2.04063832 12.66617115 -2 11 C-1.67 10.67 -1.34 10.34 -1 10 C-0.76712992 8.31816052 -0.58735834 6.6287584 -0.4375 4.9375 C-0.35371094 4.01839844 -0.26992188 3.09929688 -0.18359375 2.15234375 C-0.12300781 1.44207031 -0.06242187 0.73179687 0 0 Z " fill="#000000" transform="translate(32,3)"/>
<path d="M0 0 C0.99 0 1.98 0 3 0 C3 1.65 3 3.3 3 5 C2.01 5 1.02 5 0 5 C0 3.35 0 1.7 0 0 Z " fill="#F2A047" transform="translate(33,46)"/>
<path d="M0 0 C0.99 0 1.98 0 3 0 C3 1.65 3 3.3 3 5 C2.01 5 1.02 5 0 5 C0 3.35 0 1.7 0 0 Z " fill="#F2A047" transform="translate(26,46)"/>
<path d="M0 0 C0.99 0 1.98 0 3 0 C3 1.65 3 3.3 3 5 C2.01 5 1.02 5 0 5 C0 3.35 0 1.7 0 0 Z " fill="#F19F46" transform="translate(42,31)"/>
<path d="M0 0 C0.99 0 1.98 0 3 0 C2.67 1.65 2.34 3.3 2 5 C1.34 5 0.68 5 0 5 C0 3.35 0 1.7 0 0 Z " fill="#F09F46" transform="translate(42,19)"/>
</svg>
