<svg xmlns="http://www.w3.org/2000/svg" version="1.1" xmlns:xlink="http://www.w3.org/1999/xlink" width="512" height="512" x="0" y="0" viewBox="0 0 48 48" style="enable-background:new 0 0 512 512" xml:space="preserve" class=""><g><path d="M24 2C11.85 2 2 11.85 2 24s9.85 22 22 22 22-9.85 22-22S36.15 2 24 2zm10.366 24.83-13.465 7.774c-.512.295-1.073.443-1.634.443s-1.122-.148-1.634-.443a3.234 3.234 0 0 1-1.634-2.83V16.226c0-1.181.611-2.239 1.634-2.83s2.244-.591 3.267 0l13.465 7.774c1.023.591 1.634 1.648 1.634 2.83s-.611 2.239-1.634 2.83z" fill="#fecc52" opacity="1" data-original="#000000" class=""></path></g></svg>





