<?xml version="1.0" encoding="UTF-8"?>
<svg version="1.1" xmlns="http://www.w3.org/2000/svg" width="60" height="60">
<path d="M0 0 C3 0.375 3 0.375 4.27734375 1.80078125 C6.78098505 4.08868929 9.26669265 4.2930684 12.5625 4.9375 C18.79166667 6.16666667 18.79166667 6.16666667 21 8.375 C21.26069641 10.22776794 21.26069641 10.22776794 21.2746582 12.50170898 C21.28895622 13.77829628 21.28895622 13.77829628 21.30354309 15.08067322 C21.30263168 16.00151199 21.30172028 16.92235077 21.30078125 17.87109375 C21.30506638 18.81557877 21.3093515 19.76006378 21.31376648 20.73316956 C21.31951586 22.73299355 21.32000558 24.73283845 21.31567383 26.73266602 C21.31251623 29.79674904 21.33595726 32.85986475 21.36132812 35.92382812 C21.36360125 37.86458211 21.36430456 39.8053387 21.36328125 41.74609375 C21.372491 42.66490829 21.38170074 43.58372284 21.39118958 44.53038025 C21.38184639 45.81169579 21.38184639 45.81169579 21.37231445 47.11889648 C21.37294388 47.87009262 21.3735733 48.62128876 21.3742218 49.39524841 C20.88976376 51.95818454 20.08177069 52.83561164 18 54.375 C15.23580967 54.67325343 12.70151406 54.79544886 9.9375 54.7734375 C8.75595337 54.77774277 8.75595337 54.77774277 7.55053711 54.78213501 C5.88622315 54.78417522 4.22188519 54.77864832 2.55761719 54.76611328 C0.00922053 54.75005809 -2.53759021 54.76596244 -5.0859375 54.78515625 C-6.7031285 54.78317381 -8.32031852 54.77933011 -9.9375 54.7734375 C-11.08134155 54.78254654 -11.08134155 54.78254654 -12.24829102 54.7918396 C-17.5322693 54.72154526 -17.5322693 54.72154526 -19.69960022 53.11575317 C-21.309424 50.96079599 -21.38475953 49.80639834 -21.40405273 47.13476562 C-21.41673691 46.28378296 -21.42942108 45.43280029 -21.44248962 44.55603027 C-21.43955399 43.64035278 -21.43661835 42.72467529 -21.43359375 41.78125 C-21.4388356 40.83817993 -21.44407745 39.89510986 -21.44947815 38.92346191 C-21.45590146 36.92961614 -21.45455736 34.93573248 -21.44604492 32.94189453 C-21.43753165 29.88636043 -21.46629723 26.83269321 -21.49804688 23.77734375 C-21.49965884 21.84114639 -21.49908145 19.90494572 -21.49609375 17.96875 C-21.50732773 17.05307251 -21.51856171 16.13739502 -21.53013611 15.19396973 C-21.46058236 8.88447773 -21.46058236 8.88447773 -19.13720703 6.31445312 C-15.70061839 4.8038302 -12.25413044 4.48137249 -8.55859375 4 C-4.77143161 3.07489169 -3.92662238 0.4908278 0 0 Z M-2 3.375 C-2.66 4.695 -3.32 6.015 -4 7.375 C-5.32 7.375 -6.64 7.375 -8 7.375 C-8 8.695 -8 10.015 -8 11.375 C-2.72 11.375 2.56 11.375 8 11.375 C8 10.055 8 8.735 8 7.375 C6.68 7.375 5.36 7.375 4 7.375 C3.34 6.055 2.68 4.735 2 3.375 C0.68 3.375 -0.64 3.375 -2 3.375 Z M-17 8.375 C-17 8.705 -17 9.035 -17 9.375 C-15.02 9.375 -13.04 9.375 -11 9.375 C-11 9.045 -11 8.715 -11 8.375 C-12.98 8.375 -14.96 8.375 -17 8.375 Z M11 8.375 C11 8.705 11 9.035 11 9.375 C12.98 9.375 14.96 9.375 17 9.375 C17 9.045 17 8.715 17 8.375 C15.02 8.375 13.04 8.375 11 8.375 Z M-18 9.375 C-18 22.905 -18 36.435 -18 50.375 C-17.67 50.375 -17.34 50.375 -17 50.375 C-17 36.845 -17 23.315 -17 9.375 C-17.33 9.375 -17.66 9.375 -18 9.375 Z M17 9.375 C17 22.905 17 36.435 17 50.375 C17.33 50.375 17.66 50.375 18 50.375 C18 36.845 18 23.315 18 9.375 C17.67 9.375 17.34 9.375 17 9.375 Z M-14 12.375 C-13.67 13.695 -13.34 15.015 -13 16.375 C-11.68 16.045 -10.36 15.715 -9 15.375 C-8.67 16.365 -8.34 17.355 -8 18.375 C-7.67 17.385 -7.34 16.395 -7 15.375 C-6.01 15.375 -5.02 15.375 -4 15.375 C-4.66 17.025 -5.32 18.675 -6 20.375 C-5.34 20.375 -4.68 20.375 -4 20.375 C-4.33 21.695 -4.66 23.015 -5 24.375 C-7.97 24.375 -10.94 24.375 -14 24.375 C-13.67 25.365 -13.34 26.355 -13 27.375 C-11.68 27.045 -10.36 26.715 -9 26.375 C-8.67 27.035 -8.34 27.695 -8 28.375 C-6.68 27.715 -5.36 27.055 -4 26.375 C-4.66 28.025 -5.32 29.675 -6 31.375 C-5.34 31.375 -4.68 31.375 -4 31.375 C-4 32.695 -4 34.015 -4 35.375 C-7.3 35.045 -10.6 34.715 -14 34.375 C-13.67 35.365 -13.34 36.355 -13 37.375 C-11.68 37.045 -10.36 36.715 -9 36.375 C-8.67 37.365 -8.34 38.355 -8 39.375 C-6.68 38.385 -5.36 37.395 -4 36.375 C-4.66 38.355 -5.32 40.335 -6 42.375 C-5.34 42.375 -4.68 42.375 -4 42.375 C-4 43.695 -4 45.015 -4 46.375 C-7.3 46.045 -10.6 45.715 -14 45.375 C-14 46.365 -14 47.355 -14 48.375 C-4.76 48.375 4.48 48.375 14 48.375 C14 36.495 14 24.615 14 12.375 C4.76 12.375 -4.48 12.375 -14 12.375 Z M-11 18.375 C-11 19.695 -11 21.015 -11 22.375 C-9.68 22.045 -8.36 21.715 -7 21.375 C-7.99 21.375 -8.98 21.375 -10 21.375 C-10.33 20.385 -10.66 19.395 -11 18.375 Z M-11 28.375 C-11 30.025 -11 31.675 -11 33.375 C-9.68 33.045 -8.36 32.715 -7 32.375 C-7.66 32.045 -8.32 31.715 -9 31.375 C-9.66 30.385 -10.32 29.395 -11 28.375 Z M-11 39.375 C-11 40.695 -11 42.015 -11 43.375 C-9.68 43.045 -8.36 42.715 -7 42.375 C-7.99 42.375 -8.98 42.375 -10 42.375 C-10.33 41.385 -10.66 40.395 -11 39.375 Z M-17 50.375 C-17 50.705 -17 51.035 -17 51.375 C-5.78 51.375 5.44 51.375 17 51.375 C17 51.045 17 50.715 17 50.375 C5.78 50.375 -5.44 50.375 -17 50.375 Z " fill="#000000" transform="translate(30,2.625)"/>
<path d="M0 0 C1.32 0 2.64 0 4 0 C4.33 0.66 4.66 1.32 5 2 C5.33 1.34 5.66 0.68 6 0 C6.99 0 7.98 0 9 0 C8.814375 0.556875 8.62875 1.11375 8.4375 1.6875 C7.92561498 4.39317796 8.42343384 6.33338149 9 9 C8 10 8 10 6.1875 10.1328125 C5.465625 10.13023438 4.74375 10.12765625 4 10.125 C3.278125 10.12757812 2.55625 10.13015625 1.8125 10.1328125 C0 10 0 10 -1 9 C-1.1328125 7.1875 -1.1328125 7.1875 -1.125 5 C-1.12757812 4.278125 -1.13015625 3.55625 -1.1328125 2.8125 C-1 1 -1 1 0 0 Z M2 3 C2 4.32 2 5.64 2 7 C3.32 6.67 4.64 6.34 6 6 C5.01 6 4.02 6 3 6 C2.67 5.01 2.34 4.02 2 3 Z " fill="#F19F46" transform="translate(17,18)"/>
<path d="M0 0 C1.32 0 2.64 0 4 0 C4.33 0.66 4.66 1.32 5 2 C6.32 1.34 7.64 0.68 9 0 C8.49396008 2.16874252 8.00016187 3.99967627 7 6 C7.66 6 8.32 6 9 6 C9 7.32 9 8.64 9 10 C7.52093108 10.02689216 6.04172517 10.04634621 4.5625 10.0625 C3.32693359 10.07990234 3.32693359 10.07990234 2.06640625 10.09765625 C0 10 0 10 -1 9 C-1.1328125 7.1875 -1.1328125 7.1875 -1.125 5 C-1.12757812 4.278125 -1.13015625 3.55625 -1.1328125 2.8125 C-1 1 -1 1 0 0 Z M2 3 C2 4.32 2 5.64 2 7 C3.32 6.67 4.64 6.34 6 6 C5.01 6 4.02 6 3 6 C2.67 5.01 2.34 4.02 2 3 Z " fill="#F19F46" transform="translate(17,39)"/>
<path d="M0 0 C1.1446875 0.2475 1.1446875 0.2475 2.3125 0.5 C5.00856207 1.00159294 6.44020291 0.8532657 9 0 C8.814375 0.556875 8.62875 1.11375 8.4375 1.6875 C7.92448835 4.399133 8.3359276 6.34371039 9 9 C7.52093108 9.02689216 6.04172517 9.04634621 4.5625 9.0625 C3.32693359 9.07990234 3.32693359 9.07990234 2.06640625 9.09765625 C0 9 0 9 -1 8 C-1.125 4.5 -1.125 4.5 -1 1 C-0.67 0.67 -0.34 0.34 0 0 Z M2 2 C2 3.65 2 5.3 2 7 C3.32 6.67 4.64 6.34 6 6 C5.34 5.67 4.68 5.34 4 5 C3.34 4.01 2.68 3.02 2 2 Z " fill="#F19F46" transform="translate(17,29)"/>
<path d="M0 0 C4.95 0 9.9 0 15 0 C15 0.99 15 1.98 15 3 C10.05 3 5.1 3 0 3 C0 2.01 0 1.02 0 0 Z " fill="#F1A046" transform="translate(28,32)"/>
<path d="M0 0 C4.95 0 9.9 0 15 0 C15 0.99 15 1.98 15 3 C10.05 3 5.1 3 0 3 C0 2.01 0 1.02 0 0 Z " fill="#F19F46" transform="translate(28,25)"/>
<path d="M0 0 C4.62 0 9.24 0 14 0 C14.33 0.99 14.66 1.98 15 3 C10.05 3 5.1 3 0 3 C0 2.01 0 1.02 0 0 Z " fill="#F2A047" transform="translate(28,46)"/>
<path d="M0 0 C1.65 0.33 3.3 0.66 5 1 C4.67 2.65 4.34 4.3 4 6 C2.35 5.67 0.7 5.34 -1 5 C-0.67 3.35 -0.34 1.7 0 0 Z " fill="#000000" transform="translate(28,7)"/>
<path d="M0 0 C4.95 0 9.9 0 15 0 C15 0.66 15 1.32 15 2 C10.05 2 5.1 2 0 2 C0 1.34 0 0.68 0 0 Z " fill="#F2A047" transform="translate(28,43)"/>
<path d="M0 0 C4.95 0 9.9 0 15 0 C15 0.66 15 1.32 15 2 C10.05 2 5.1 2 0 2 C0 1.34 0 0.68 0 0 Z " fill="#F2A047" transform="translate(28,36)"/>
<path d="M0 0 C4.95 0 9.9 0 15 0 C15 0.66 15 1.32 15 2 C10.05 2 5.1 2 0 2 C0 1.34 0 0.68 0 0 Z " fill="#F2A047" transform="translate(28,22)"/>
<path d="M0 0 C2.31 0 4.62 0 7 0 C7 0.99 7 1.98 7 3 C4.69 3 2.38 3 0 3 C0 2.01 0 1.02 0 0 Z " fill="#F19F46" transform="translate(28,39)"/>
<path d="M0 0 C2.31 0 4.62 0 7 0 C7 0.99 7 1.98 7 3 C4.69 3 2.38 3 0 3 C0 2.01 0 1.02 0 0 Z " fill="#F19F46" transform="translate(28,18)"/>
<path d="M0 0 C2.31 0 4.62 0 7 0 C7 0.66 7 1.32 7 2 C4.69 2 2.38 2 0 2 C0 1.34 0 0.68 0 0 Z " fill="#F2A047" transform="translate(28,29)"/>
</svg>
