<?xml version="1.0" encoding="UTF-8"?>
<svg version="1.1" xmlns="http://www.w3.org/2000/svg" width="60" height="60">
<path d="M0 0 C0.33 0.33 0.66 0.66 1 1 C2.68183948 1.23287008 4.3712416 1.41264166 6.0625 1.5625 C6.98160156 1.64628906 7.90070312 1.73007812 8.84765625 1.81640625 C9.91306641 1.90728516 9.91306641 1.90728516 11 2 C11 2.99 11 3.98 11 5 C9.35 5.33 7.7 5.66 6 6 C6.5775 6.51949219 7.155 7.03898438 7.75 7.57421875 C8.4925 8.27160156 9.235 8.96898437 10 9.6875 C10.7425 10.37199219 11.485 11.05648438 12.25 11.76171875 C14 14 14 14 14.51171875 16.4921875 C13.81866693 19.88867048 12.35217387 21.11326339 9.8125 23.4375 C8.99523438 24.21609375 8.17796875 24.9946875 7.3359375 25.796875 C6.17964844 26.88742188 6.17964844 26.88742188 5 28 C1.99032346 30.99593372 0.09509166 32.97301007 -0.3125 37.375 C-0.209375 38.24125 -0.10625 39.1075 0 40 C0.99 40 1.98 40 3 40 C3.04898438 39.38511719 3.09796875 38.77023438 3.1484375 38.13671875 C3.22320312 37.32847656 3.29796875 36.52023438 3.375 35.6875 C3.44460937 34.88699219 3.51421875 34.08648437 3.5859375 33.26171875 C4 31 4 31 6 28 C8.9375 27.5625 8.9375 27.5625 12 28 C14.05289536 30.10531863 14.92203724 31.45476369 15.34057617 34.38183594 C15.3170105 35.67009277 15.3170105 35.67009277 15.29296875 36.984375 C15.2784668 38.38623047 15.2784668 38.38623047 15.26367188 39.81640625 C15.23853516 40.78449219 15.21339844 41.75257812 15.1875 42.75 C15.16719727 44.22533203 15.16719727 44.22533203 15.14648438 45.73046875 C15.11118726 48.15420415 15.06188054 50.57682145 15 53 C16.32 53 17.64 53 19 53 C19.33 48.38 19.66 43.76 20 39 C20.66 39 21.32 39 22 39 C22.05383848 41.45862401 22.09359038 43.9160755 22.125 46.375 C22.14175781 47.07367188 22.15851562 47.77234375 22.17578125 48.4921875 C22.19344267 50.32897486 22.10303261 52.16601963 22 54 C20 56 20 56 17 56.25 C14 56 14 56 12 54 C11.68115234 51.75341797 11.68115234 51.75341797 11.5859375 48.9921875 C11.52792969 47.51298828 11.52792969 47.51298828 11.46875 46.00390625 C11.4378125 44.97136719 11.406875 43.93882813 11.375 42.875 C11.31699219 41.31458984 11.31699219 41.31458984 11.2578125 39.72265625 C11.16335234 37.14861689 11.07778786 34.57458845 11 32 C9.68 31.67 8.36 31.34 7 31 C7.04640625 31.60328125 7.0928125 32.2065625 7.140625 32.828125 C7.43402545 39.3248493 7.43402545 39.3248493 5.3125 42.625 C3 44 3 44 0.5 44.25 C-2.90778129 42.54610935 -3.46493961 40.40892883 -4.953125 37.01171875 C-6.40242792 34.22667769 -8.42000441 32.71999706 -11 31 C-11.72316406 31.97453125 -11.72316406 31.97453125 -12.4609375 32.96875 C-13.09257812 33.8040625 -13.72421875 34.639375 -14.375 35.5 C-15.00148438 36.3353125 -15.62796875 37.170625 -16.2734375 38.03125 C-17.12808594 39.00578125 -17.12808594 39.00578125 -18 40 C-18.66 40 -19.32 40 -20 40 C-20.66 41.32 -21.32 42.64 -22 44 C-24.33294775 44.04241723 -26.66702567 44.04092937 -29 44 C-30 43 -30 43 -30.4375 40.375 C-29.72548929 34.88234595 -26.27189103 31.80481563 -22.04296875 28.4453125 C-20.3915825 27.25470001 -18.6991292 26.12142527 -17 25 C-18.65 22.69 -20.3 20.38 -22 18 C-19.87740612 13.22857089 -16.44539596 10.27504254 -12.6875 6.75 C-11.69073242 5.77546875 -11.69073242 5.77546875 -10.67382812 4.78125 C-10.02220703 4.16765625 -9.37058594 3.5540625 -8.69921875 2.921875 C-8.10971436 2.36081055 -7.52020996 1.79974609 -6.9128418 1.22167969 C-4.46148537 -0.34393455 -2.85563414 -0.3002468 0 0 Z M-3 3 C-3.99 4.485 -3.99 4.485 -5 6 C-4.34 6 -3.68 6 -3 6 C-4.65 8.31 -6.3 10.62 -8 13 C-7.34 13 -6.68 13 -6 13 C-6.33 14.32 -6.66 15.64 -7 17 C-4.69433317 19.12802546 -4.69433317 19.12802546 -2 21 C-1.01 20.67 -0.02 20.34 1 20 C0.67 21.32 0.34 22.64 0 24 C0.99 24.66 1.98 25.32 3 26 C5.64 23.36 8.28 20.72 11 18 C8.97997083 13.95994165 6.61026707 11.34558068 3.4375 8.25 C2.93025391 7.74339844 2.42300781 7.23679687 1.90039062 6.71484375 C-0.19761779 4.14575989 -0.19761779 4.14575989 -3 3 Z M-15 13 C-16.35827971 14.64639965 -17.69254251 16.31295807 -19 18 C-17.515 18.99 -17.515 18.99 -16 20 C-15.34 19.67 -14.68 19.34 -14 19 C-12.65499045 20.06880223 -11.32428562 21.15562508 -10 22.25 C-8.88625 23.15492187 -8.88625 23.15492187 -7.75 24.078125 C-6 26 -6 26 -6 30 C-4.5833253 31.7511573 -4.5833253 31.7511573 -3 33 C-1.68 31.35 -0.36 29.7 1 28 C-1.4751482 25.49599357 -3.95576894 22.99748094 -6.4375 20.5 C-7.49807617 19.42685547 -7.49807617 19.42685547 -8.58007812 18.33203125 C-9.25361328 17.65527344 -9.92714844 16.97851562 -10.62109375 16.28125 C-11.2442749 15.65283203 -11.86745605 15.02441406 -12.50952148 14.37695312 C-13.7842263 12.88690335 -13.7842263 12.88690335 -15 13 Z M-20.5625 31.4375 C-22.04943359 32.67306641 -22.04943359 32.67306641 -23.56640625 33.93359375 C-25.3255283 35.42087741 -25.3255283 35.42087741 -27 37 C-27.04063832 38.66617115 -27.042721 40.33388095 -27 42 C-24.19027009 41.6143508 -22.44730181 41.33535348 -20 40 C-17.88471165 37.19970895 -16.45086902 34.18430428 -15 31 C-14.33698129 29.66484892 -13.67152395 28.33089361 -13 27 C-16.30820447 27 -18.08989385 29.37108469 -20.5625 31.4375 Z " fill="#000000" transform="translate(34,2)"/>
<path d="M0 0 C2.9375 -0.4375 2.9375 -0.4375 6 0 C8.05289536 2.10531863 8.92203724 3.45476369 9.34057617 6.38183594 C9.32486572 7.24067383 9.30915527 8.09951172 9.29296875 8.984375 C9.28330078 9.91894531 9.27363281 10.85351562 9.26367188 11.81640625 C9.23853516 12.78449219 9.21339844 13.75257812 9.1875 14.75 C9.16719727 16.22533203 9.16719727 16.22533203 9.14648438 17.73046875 C9.11118726 20.15420415 9.06188054 22.57682145 9 25 C10.32 25 11.64 25 13 25 C13.33 20.38 13.66 15.76 14 11 C14.66 11 15.32 11 16 11 C16.05383848 13.45862401 16.09359038 15.9160755 16.125 18.375 C16.14175781 19.07367188 16.15851562 19.77234375 16.17578125 20.4921875 C16.19344267 22.32897486 16.10303261 24.16601963 16 26 C14 28 14 28 11 28.25 C8 28 8 28 6 26 C5.68115234 23.75341797 5.68115234 23.75341797 5.5859375 20.9921875 C5.54726563 20.00605469 5.50859375 19.01992188 5.46875 18.00390625 C5.4378125 16.97136719 5.406875 15.93882813 5.375 14.875 C5.33632813 13.83472656 5.29765625 12.79445313 5.2578125 11.72265625 C5.16335234 9.14861689 5.07778786 6.57458845 5 4 C3.68 3.67 2.36 3.34 1 3 C1.04640625 3.60328125 1.0928125 4.2065625 1.140625 4.828125 C1.43402545 11.3248493 1.43402545 11.3248493 -0.6875 14.625 C-3 16 -3 16 -5.625 15.9375 C-8 15 -8 15 -10 12 C-9.625 9.3125 -9.625 9.3125 -9 7 C-8.34 7 -7.68 7 -7 7 C-6.67 8.65 -6.34 10.3 -6 12 C-5.01 12 -4.02 12 -3 12 C-2.95101562 11.38511719 -2.90203125 10.77023438 -2.8515625 10.13671875 C-2.77679688 9.32847656 -2.70203125 8.52023438 -2.625 7.6875 C-2.55539063 6.88699219 -2.48578125 6.08648437 -2.4140625 5.26171875 C-2 3 -2 3 0 0 Z " fill="#F19F46" transform="translate(40,30)"/>
<path d="M0 0 C6.15234375 -0.09765625 6.15234375 -0.09765625 8 0 C9 1 9 1 9.11352539 4.32641602 C9.11336629 5.80225556 9.10767314 7.27810069 9.09765625 8.75390625 C9.0962413 9.52935287 9.09482635 10.3047995 9.09336853 11.10374451 C9.08775345 13.59003494 9.07519846 16.0762366 9.0625 18.5625 C9.05748694 20.24413933 9.0529237 21.92578006 9.04882812 23.60742188 C9.03777913 27.73831566 9.02050445 31.86914276 9 36 C8.34 36 7.68 36 7 36 C7 25.11 7 14.22 7 3 C4.36 3 1.72 3 -1 3 C-0.67 2.01 -0.34 1.02 0 0 Z " fill="#F19F46" transform="translate(47,4)"/>
<path d="M0 0 C3.3 0 6.6 0 10 0 C10 0.99 10 1.98 10 3 C8.72125 3.061875 7.4425 3.12375 6.125 3.1875 C5.40570313 3.22230469 4.68640625 3.25710938 3.9453125 3.29296875 C3.30335937 3.19628906 2.66140625 3.09960938 2 3 C1.34 2.01 0.68 1.02 0 0 Z " fill="#E59743" transform="translate(35,4)"/>
<path d="M0 0 C0.66 0.33 1.32 0.66 2 1 C2 2.32 2 3.64 2 5 C1.34 5 0.68 5 0 5 C-0.5625 3.0625 -0.5625 3.0625 -1 1 C-0.67 0.67 -0.34 0.34 0 0 Z " fill="#F19F46" transform="translate(50,21)"/>
<path d="M0 0 C0.66 0 1.32 0 2 0 C2 0.99 2 1.98 2 3 C1.34 3 0.68 3 0 3 C0 2.01 0 1.02 0 0 Z " fill="#000000" transform="translate(45,26)"/>
</svg>
