<svg xmlns="http://www.w3.org/2000/svg" version="1.1" xmlns:xlink="http://www.w3.org/1999/xlink" 
width="118" height="60" x="0" y="0" viewBox="0 0 512 512" style="enable-background:new 0 0 512 512" xml:space="preserve" class="">
<g>
<path d="M204.98 390.39h-13.96v-87.48c0-12.66-10.3-22.97-22.97-22.97H113.5v-47.73l3.13 2.81a5.99 5.99 0 0 0 4.01 1.53h20.79c-.56.91-.89 1.98-.89 3.13 0 3.31 2.69 6 6 6h81.84c2.72 0 5.09-1.82 5.8-4.45l18.56-69.27a6 6 0 0 0-4.24-7.35c-3.2-.85-6.49 1.04-7.35 4.24l-17.37 64.82h-31.46c5.21-3.29 8.68-9.08 8.68-15.69 0-10.23-8.33-18.56-18.56-18.56h-50.29l-30.19-26.61-.03-.03c-6.56-5.99-15.02-9.29-23.87-9.29-19.54 0-35.44 15.9-35.44 35.44v91.49c0 19.54 15.9 35.44 35.44 35.44h71.56v84.49c0 11.01 8.96 19.97 19.97 19.97h35.39c11.01 0 19.97-8.96 19.97-19.97.01-11-8.95-19.96-19.97-19.96zm0 27.95H169.6c-4.4 0-7.97-3.58-7.97-7.97v-90.49c0-3.31-2.69-6-6-6H78.06c-12.93 0-23.44-10.52-23.44-23.44v-91.49c0-12.93 10.52-23.44 23.44-23.44 5.88 0 11.51 2.21 15.86 6.23l.1.1 31.89 28.11c1.1.97 2.51 1.5 3.97 1.5h52.56c3.62 0 6.56 2.94 6.56 6.56s-2.94 6.56-6.56 6.56h-59.51l-11.42-10.25c-2.47-2.21-6.26-2.01-8.47.46-1.03 1.15-1.51 2.58-1.51 4.01h-.02v67.17c0 3.31 2.69 6 6 6h60.55c6.05 0 10.97 4.92 10.97 10.97v93.48c0 3.31 2.69 6 6 6h19.96c4.4 0 7.97 3.58 7.97 7.97s-3.58 7.96-7.98 7.96zM87.21 157.54c20.92 0 37.94-17.02 37.94-37.94s-17.02-37.94-37.94-37.94-37.94 17.02-37.94 37.94 17.02 37.94 37.94 37.94zm0-63.88c14.3 0 25.94 11.64 25.94 25.94s-11.64 25.94-25.94 25.94-25.94-11.64-25.94-25.94 11.64-25.94 25.94-25.94zm46.25 241.69c0 3.31-2.69 6-6 6H111.5v82.99c0 3.31-2.69 6-6 6s-6-2.69-6-6v-82.99H48.96v82.99c0 3.31-2.69 6-6 6s-6-2.69-6-6v-82.99H21c-3.31 0-6-2.69-6-6V174.33c0-3.31 2.69-6 6-6s6 2.69 6 6v155.02h100.46c3.31 0 6 2.69 6 6zM262 262.32v162.02c0 3.31-2.69 6-6 6s-6-2.69-6-6V262.32H146.88c-3.31 0-6-2.69-6-6s2.69-6 6-6h218.24c3.31 0 6 2.69 6 6s-2.69 6-6 6zm207.38 28.11v-91.49c0-19.54-15.9-35.44-35.44-35.44-8.84 0-17.31 3.3-23.87 9.29l-.03.03-30.19 26.61h-50.29c-10.23 0-18.56 8.33-18.56 18.56 0 6.6 3.48 12.39 8.68 15.69h-31.46l-17.37-64.82a6 6 0 0 0-11.59 3.11l18.56 69.27c.7 2.62 3.08 4.45 5.8 4.45h81.84c3.31 0 6-2.69 6-6 0-1.15-.33-2.21-.89-3.13h20.79c1.48 0 2.91-.55 4.01-1.53l3.13-2.81v47.73h-54.55c-12.66 0-22.97 10.3-22.97 22.97v87.48h-13.96c-11.01 0-19.97 8.96-19.97 19.97s8.96 19.97 19.97 19.97h36.11c11.01 0 19.97-8.96 19.97-19.97v-84.49h70.84c19.54-.01 35.44-15.91 35.44-35.45zM357.1 313.87c-3.31 0-6 2.69-6 6v90.49c0 4.4-3.58 7.97-7.97 7.97h-36.11c-4.4 0-7.97-3.58-7.97-7.97s3.58-7.97 7.97-7.97h19.96c3.31 0 6-2.69 6-6v-93.48c0-6.05 4.92-10.97 10.97-10.97h60.55c3.31 0 6-2.69 6-6v-67.17h-.02c0-1.43-.48-2.86-1.51-4.01a5.996 5.996 0 0 0-8.47-.46l-11.42 10.25h-59.51c-3.62 0-6.56-2.94-6.56-6.56s2.94-6.56 6.56-6.56h52.56c1.46 0 2.87-.53 3.97-1.5l31.89-28.11.1-.1c4.35-4.02 9.99-6.23 15.86-6.23 12.93 0 23.44 10.52 23.44 23.44v91.49c0 12.93-10.52 23.44-23.44 23.44H357.1zm67.69-156.33c20.92 0 37.94-17.02 37.94-37.94s-17.02-37.94-37.94-37.94-37.94 17.02-37.94 37.94 17.02 37.94 37.94 37.94zm0-63.88c14.3 0 25.94 11.64 25.94 25.94s-11.64 25.94-25.94 25.94-25.94-11.64-25.94-25.94 11.64-25.94 25.94-25.94zM497 174.33v161.02c0 3.31-2.69 6-6 6h-15.96v82.99c0 3.31-2.69 6-6 6s-6-2.69-6-6v-82.99H412.5v82.99c0 3.31-2.69 6-6 6s-6-2.69-6-6v-82.99h-15.96c-3.31 0-6-2.69-6-6s2.69-6 6-6H485V174.33c0-3.31 2.69-6 6-6s6 2.69 6 6z" fill="#ffffff" opacity="1" data-original="#000000" class=""></path>
</g>
</svg>