<?xml version="1.0" encoding="UTF-8"?>
<svg version="1.1" xmlns="http://www.w3.org/2000/svg" width="60" height="60">
<path d="M0 0 C3.0625 0.375 3.0625 0.375 4.9375 2.1875 C6.0625 4.375 6.0625 4.375 6.0625 7.375 C6.7225 7.375 7.3825 7.375 8.0625 7.375 C8.0625 8.695 8.0625 10.015 8.0625 11.375 C7.4025 11.375 6.7425 11.375 6.0625 11.375 C5.7325 14.345 5.4025 17.315 5.0625 20.375 C7.5375 21.365 7.5375 21.365 10.0625 22.375 C9.93230469 21.65054687 9.80210938 20.92609375 9.66796875 20.1796875 C8.55480405 12.37713119 8.55480405 12.37713119 10.109375 9.30859375 C11.5 7.6875 11.5 7.6875 14.0625 5.375 C17.01580771 5.69427651 18.62118243 5.92958668 20.74609375 8.07421875 C22.42351976 11.00598112 22.22829605 12.6156511 21.8125 15.9375 C21.70421875 16.88753906 21.5959375 17.83757813 21.484375 18.81640625 C21.0625 21.375 21.0625 21.375 20.0625 24.375 C22.5375 25.365 22.5375 25.365 25.0625 26.375 C25.0625 30.335 25.0625 34.295 25.0625 38.375 C24.0725 38.375 23.0825 38.375 22.0625 38.375 C22.083125 37.405625 22.10375 36.43625 22.125 35.4375 C22.41868499 32.50034105 22.41868499 32.50034105 21.0625 31.375 C21.0625 33.685 21.0625 35.995 21.0625 38.375 C20.0725 38.375 19.0825 38.375 18.0625 38.375 C18.083125 37.240625 18.10375 36.10625 18.125 34.9375 C18.47827477 31.55924326 18.47827477 31.55924326 17.0625 30.375 C17.0625 32.355 17.0625 34.335 17.0625 36.375 C16.0725 36.375 15.0825 36.375 14.0625 36.375 C14.0625 34.395 14.0625 32.415 14.0625 30.375 C13.5675 30.87 13.5675 30.87 13.0625 31.375 C13.0625 33.685 13.0625 35.995 13.0625 38.375 C4.4825 38.375 -4.0975 38.375 -12.9375 38.375 C-12.9375 36.065 -12.9375 33.755 -12.9375 31.375 C-13.2675 31.045 -13.5975 30.715 -13.9375 30.375 C-13.9375 32.355 -13.9375 34.335 -13.9375 36.375 C-14.9275 36.375 -15.9175 36.375 -16.9375 36.375 C-16.9375 34.395 -16.9375 32.415 -16.9375 30.375 C-18.35327477 31.55924326 -18.35327477 31.55924326 -18 34.9375 C-17.979375 36.071875 -17.95875 37.20625 -17.9375 38.375 C-20.2475 38.375 -22.5575 38.375 -24.9375 38.375 C-24.9375 34.415 -24.9375 30.455 -24.9375 26.375 C-23.2875 25.715 -21.6375 25.055 -19.9375 24.375 C-20.081875 23.79492188 -20.22625 23.21484375 -20.375 22.6171875 C-22.57278077 13.36819342 -22.57278077 13.36819342 -21.9375 9.375 C-19.6875 6.4375 -19.6875 6.4375 -16.9375 4.375 C-13.96741035 4.19499457 -12.95626574 5.36029172 -10.625 7.1875 C-7.98843805 12.16767257 -9.13953061 16.93666513 -9.9375 22.375 C-8.2875 21.715 -6.6375 21.055 -4.9375 20.375 C-5.06125 19.075625 -5.185 17.77625 -5.3125 16.4375 C-5.38210937 15.70660156 -5.45171875 14.97570312 -5.5234375 14.22265625 C-5.66007812 13.61292969 -5.79671875 13.00320313 -5.9375 12.375 C-6.5975 12.045 -7.2575 11.715 -7.9375 11.375 C-7.9375 10.055 -7.9375 8.735 -7.9375 7.375 C-7.2775 7.375 -6.6175 7.375 -5.9375 7.375 C-5.81375 6.59125 -5.69 5.8075 -5.5625 5 C-4.67144799 1.25758158 -3.82446329 0.48822936 0 0 Z M3.0625 5.375 C4.0625 7.375 4.0625 7.375 4.0625 7.375 Z M-15.9375 7.375 C-16.2675 8.035 -16.5975 8.695 -16.9375 9.375 C-16.2775 9.375 -15.6175 9.375 -14.9375 9.375 C-15.2675 8.715 -15.5975 8.055 -15.9375 7.375 Z M15.0625 8.375 C16.0625 10.375 16.0625 10.375 16.0625 10.375 Z M-12.9375 10.375 C-15.41016765 10.71944881 -15.41016765 10.71944881 -17.9375 11.375 C-18.2675 12.035 -18.5975 12.695 -18.9375 13.375 C-16.6275 13.375 -14.3175 13.375 -11.9375 13.375 C-12.2675 12.385 -12.5975 11.395 -12.9375 10.375 Z M12.0625 11.375 C12.0625 12.035 12.0625 12.695 12.0625 13.375 C12.7225 13.045 13.3825 12.715 14.0625 12.375 C13.4025 12.045 12.7425 11.715 12.0625 11.375 Z M-2.9375 12.375 C-2.6075 14.025 -2.2775 15.675 -1.9375 17.375 C-0.2875 17.045 1.3625 16.715 3.0625 16.375 C2.7325 15.055 2.4025 13.735 2.0625 12.375 C0.4125 12.375 -1.2375 12.375 -2.9375 12.375 Z M-17.9375 15.375 C-18.2675 16.365 -18.5975 17.355 -18.9375 18.375 C-17.9475 19.365 -16.9575 20.355 -15.9375 21.375 C-14.9475 20.715 -13.9575 20.055 -12.9375 19.375 C-12.9375 18.055 -12.9375 16.735 -12.9375 15.375 C-14.5875 15.375 -16.2375 15.375 -17.9375 15.375 Z M13.0625 16.375 C13.41036708 18.35036745 13.41036708 18.35036745 14.0625 20.375 C14.7225 20.705 15.3825 21.035 16.0625 21.375 C16.7225 21.045 17.3825 20.715 18.0625 20.375 C18.0625 19.055 18.0625 17.735 18.0625 16.375 C16.4125 16.375 14.7625 16.375 13.0625 16.375 Z M-1.9375 20.375 C-1.6075 21.035 -1.2775 21.695 -0.9375 22.375 C0.0525 22.045 1.0425 21.715 2.0625 21.375 C0.7425 21.045 -0.5775 20.715 -1.9375 20.375 Z M-16.9375 23.375 C-16.6075 24.365 -16.2775 25.355 -15.9375 26.375 C-15.2775 26.045 -14.6175 25.715 -13.9375 25.375 C-13.9375 24.715 -13.9375 24.055 -13.9375 23.375 C-14.9275 23.375 -15.9175 23.375 -16.9375 23.375 Z M14.0625 23.375 C14.3925 24.365 14.7225 25.355 15.0625 26.375 C15.7225 26.045 16.3825 25.715 17.0625 25.375 C17.0625 24.715 17.0625 24.055 17.0625 23.375 C16.0725 23.375 15.0825 23.375 14.0625 23.375 Z M-7.9375 24.375 C-7.2775 25.035 -6.6175 25.695 -5.9375 26.375 C-5.9375 25.715 -5.9375 25.055 -5.9375 24.375 C-6.5975 24.375 -7.2575 24.375 -7.9375 24.375 Z M-2.9375 24.375 C-2.9375 25.365 -2.9375 26.355 -2.9375 27.375 C-0.9575 27.375 1.0225 27.375 3.0625 27.375 C2.7325 26.385 2.4025 25.395 2.0625 24.375 C0.7425 24.375 -0.5775 24.375 -1.9375 24.375 C-2.2675 24.375 -2.5975 24.375 -2.9375 24.375 Z M6.0625 24.375 C6.3925 25.035 6.7225 25.695 7.0625 26.375 C7.3925 25.715 7.7225 25.055 8.0625 24.375 C7.4025 24.375 6.7425 24.375 6.0625 24.375 Z M-5.9375 29.375 C-5.9375 30.035 -5.9375 30.695 -5.9375 31.375 C-4.9475 31.375 -3.9575 31.375 -2.9375 31.375 C-2.9375 32.035 -2.9375 32.695 -2.9375 33.375 C-3.9275 33.375 -4.9175 33.375 -5.9375 33.375 C-5.9375 34.035 -5.9375 34.695 -5.9375 35.375 C-1.9775 35.375 1.9825 35.375 6.0625 35.375 C6.0625 34.715 6.0625 34.055 6.0625 33.375 C5.0725 33.375 4.0825 33.375 3.0625 33.375 C3.0625 32.715 3.0625 32.055 3.0625 31.375 C4.0525 31.375 5.0425 31.375 6.0625 31.375 C5.7325 30.715 5.4025 30.055 5.0625 29.375 C1.4325 29.375 -2.1975 29.375 -5.9375 29.375 Z " fill="#F19F46" transform="translate(29.9375,2.625)"/>
<path d="M0 0 C17.82 0 35.64 0 54 0 C54 0.99 54 1.98 54 3 C52.35 3 50.7 3 49 3 C48.75765625 3.59554687 48.5153125 4.19109375 48.265625 4.8046875 C45.53794056 9.53604137 39.88301982 12.11858647 35.0625 14.375 C26.62686171 16.09655884 19.58175145 15.15161014 12 11 C9.44508556 9.20836054 7.04397933 7.36885022 5 5 C5 4.34 5 3.68 5 3 C3.35 3 1.7 3 0 3 C0 2.01 0 1.02 0 0 Z M8 3 C8.99 4.485 8.99 4.485 10 6 C13.08365871 6.2502157 13.08365871 6.2502157 16 6 C15.67 5.01 15.34 4.02 15 3 C12.69 3 10.38 3 8 3 Z M18 3 C18.99 4.485 18.99 4.485 20 6 C21.32 6 22.64 6 24 6 C24 6.99 24 7.98 24 9 C23.01 9.495 23.01 9.495 22 10 C23.88659875 12.30662599 23.88659875 12.30662599 27 12.3125 C27.99 12.209375 28.98 12.10625 30 12 C30.66 11.01 31.32 10.02 32 9 C29.69 9 27.38 9 25 9 C25 8.01 25 7.02 25 6 C28.3 6 31.6 6 35 6 C35.33 5.01 35.66 4.02 36 3 C30.06 3 24.12 3 18 3 Z M39 3 C38.67 3.99 38.34 4.98 38 6 C40.91634129 6.2502157 40.91634129 6.2502157 44 6 C44.66 5.01 45.32 4.02 46 3 C43.69 3 41.38 3 39 3 Z M16 9 C17.485 9.99 17.485 9.99 19 11 C19 10.34 19 9.68 19 9 C18.01 9 17.02 9 16 9 Z M35 9 C35.33 9.66 35.66 10.32 36 11 C36.66 10.34 37.32 9.68 38 9 C37.01 9 36.02 9 35 9 Z " fill="#000000" transform="translate(3,42)"/>
</svg>
