<?xml version="1.0" encoding="UTF-8"?>
<svg version="1.1" xmlns="http://www.w3.org/2000/svg" width="60" height="60">
<path d="M0 0 C3.08213387 1.14125261 5.52022421 2.67672448 8.24047852 4.52416992 C9.30717773 5.24282227 10.37387695 5.96147461 11.47290039 6.7019043 C12.58695261 7.46409882 13.70088341 8.22647086 14.81469727 8.98901367 C15.94765792 9.75603305 17.08111671 10.52231718 18.21508789 11.2878418 C20.98244421 13.1602233 23.74449028 15.03996185 26.50219727 16.92651367 C26.00719727 19.40151367 26.00719727 19.40151367 25.50219727 21.92651367 C24.18219727 21.92651367 22.86219727 21.92651367 21.50219727 21.92651367 C21.50743408 22.86035889 21.5126709 23.7942041 21.51806641 24.75634766 C21.53507346 28.20964164 21.54763028 31.66289135 21.55712891 35.11621094 C21.56216847 36.61296286 21.56900014 38.10970983 21.57763672 39.60644531 C21.58971885 41.75351174 21.59542918 43.90051329 21.59985352 46.04760742 C21.60509033 47.34110107 21.61032715 48.63459473 21.61572266 49.96728516 C21.50219727 52.92651367 21.50219727 52.92651367 20.50219727 53.92651367 C17.41138261 54.02768288 14.34337171 54.06619925 11.25219727 54.05932617 C10.32375 54.0602829 9.39530273 54.06123962 8.4387207 54.06222534 C6.47159762 54.06290722 4.5044723 54.06105239 2.53735352 54.05688477 C-0.484833 54.05153662 -3.50687088 54.05682949 -6.52905273 54.06323242 C-8.43530306 54.06257164 -10.3415533 54.06129048 -12.24780273 54.05932617 C-13.61340332 54.06236252 -13.61340332 54.06236252 -15.0065918 54.06546021 C-21.38285305 54.04146336 -21.38285305 54.04146336 -22.49780273 52.92651367 C-22.58571249 50.6349995 -22.60474312 48.34078843 -22.59545898 46.04760742 C-22.59404404 45.36094498 -22.59262909 44.67428253 -22.59117126 43.96681213 C-22.58555753 41.76583566 -22.5730028 39.56495958 -22.56030273 37.36401367 C-22.5552895 35.87508285 -22.55072629 34.38615043 -22.54663086 32.8972168 C-22.53558366 29.24028292 -22.51830986 25.58340809 -22.49780273 21.92651367 C-24.14780273 21.59651367 -25.79780273 21.26651367 -27.49780273 20.92651367 C-27.22989999 17.5185244 -26.82136613 16.22331353 -24.26049805 13.87426758 C-23.29208984 13.22377441 -22.32368164 12.57328125 -21.32592773 11.90307617 C-19.74038086 10.83766602 -19.74038086 10.83766602 -18.12280273 9.75073242 C-17.29135742 9.21005127 -17.29135742 9.21005127 -16.44311523 8.65844727 C-14.75286751 7.55482066 -13.08635055 6.42080992 -11.41967773 5.28198242 C-10.35749023 4.57944336 -9.29530273 3.8769043 -8.20092773 3.15307617 C-7.22800781 2.50935059 -6.25508789 1.865625 -5.25268555 1.20239258 C-2.49780273 -0.07348633 -2.49780273 -0.07348633 0 0 Z M-18.7956543 17.28051758 C-24.58240143 26.27603758 -21.2134438 41.54366416 -20.49780273 50.92651367 C-7.29780273 50.92651367 5.90219727 50.92651367 19.50219727 50.92651367 C21.90231715 33.90985087 21.90231715 33.90985087 17.80004883 17.28051758 C6.00054066 5.92009801 -6.99614613 5.92009801 -18.7956543 17.28051758 Z " fill="#000000" transform="translate(30.497802734375,3.073486328125)"/>
<path d="M0 0 C3.79914099 1.71865902 6.60916884 4.34549196 9.625 7.1875 C10.00011719 6.754375 10.37523438 6.32125 10.76171875 5.875 C14.91383872 1.35682411 14.91383872 1.35682411 18.25 0.5625 C21.43690591 1.40115945 22.68897796 2.53443276 24.625 5.1875 C25.25 7.5 25.25 7.5 24.625 10.1875 C22.80993046 12.70551555 20.78243397 14.95943575 18.625 17.1875 C19.40037109 17.85845703 19.40037109 17.85845703 20.19140625 18.54296875 C25.55637956 23.46698535 25.55637956 23.46698535 25.875 26.8125 C24.19687236 30.00094252 22.48044836 31.98101718 19.625 34.1875 C15.71246583 34.49638428 13.66819561 32.5382639 10.8125 30.125 C9.74182846 29.15477525 8.67653748 28.17843014 7.625 27.1875 C7.17125 27.80625 6.7175 28.425 6.25 29.0625 C2.43964877 32.14707005 -1.60890116 32.49623376 -6.375 33.1875 C-7.91108118 28.53774076 -6.39605433 25.45708663 -4.375 21.1875 C-2.6875 18.6875 -2.6875 18.6875 -1.375 17.1875 C-1.89191406 16.74019531 -2.40882812 16.29289062 -2.94140625 15.83203125 C-8.30637956 10.90801465 -8.30637956 10.90801465 -8.625 7.5625 C-6.63379621 3.77921281 -4.53330864 0.35789279 0 0 Z M-3.5 5.1875 C-4.11875 5.8475 -4.7375 6.5075 -5.375 7.1875 C-3.93246343 10.55341866 -2.04235273 12.69797079 0.625 15.1875 C3.74697478 13.8785428 3.74697478 13.8785428 5.625 11.1875 C4.965 10.8575 4.305 10.5275 3.625 10.1875 C3.625 9.1975 3.625 8.2075 3.625 7.1875 C2.305 7.5175 0.985 7.8475 -0.375 8.1875 C-0.045 6.5375 0.285 4.8875 0.625 3.1875 C-1.61862573 2.9590451 -1.61862573 2.9590451 -3.5 5.1875 Z M17.625 4.1875 C18.9339572 7.30947478 18.9339572 7.30947478 21.625 9.1875 C21.35823796 7.20258358 21.35823796 7.20258358 20.625 5.1875 C19.635 4.8575 18.645 4.5275 17.625 4.1875 Z M14.625 7.1875 C15.9339572 10.30947478 15.9339572 10.30947478 18.625 12.1875 C17.3160428 9.06552522 17.3160428 9.06552522 14.625 7.1875 Z M13.625 14.1875 C9.995 17.8175 6.365 21.4475 2.625 25.1875 C2.955 25.8475 3.285 26.5075 3.625 27.1875 C7.585 23.2275 11.545 19.2675 15.625 15.1875 C14.965 14.8575 14.305 14.5275 13.625 14.1875 Z M12.5 21.1875 C11.88125 21.8475 11.2625 22.5075 10.625 23.1875 C12.06753657 26.55341866 13.95764727 28.69797079 16.625 31.1875 C19.24687494 30.13875002 20.41871361 29.53818687 21.875 27.0625 C22.24625 26.134375 22.24625 26.134375 22.625 25.1875 C20.975 25.5175 19.325 25.8475 17.625 26.1875 C18.285 24.8675 18.945 23.5475 19.625 22.1875 C18.305 22.5175 16.985 22.8475 15.625 23.1875 C15.955 21.8675 16.285 20.5475 16.625 19.1875 C14.38137427 18.9590451 14.38137427 18.9590451 12.5 21.1875 Z M-2.375 26.1875 C-1.715 26.8475 -1.055 27.5075 -0.375 28.1875 C-0.375 27.5275 -0.375 26.8675 -0.375 26.1875 C-1.035 26.1875 -1.695 26.1875 -2.375 26.1875 Z " fill="#F19F46" transform="translate(21.375,18.8125)"/>
</svg>
