<svg xmlns="http://www.w3.org/2000/svg" version="1.1" xmlns:xlink="http://www.w3.org/1999/xlink" width="512" height="512" x="0" y="0" viewBox="0 0 512 512" style="enable-background:new 0 0 512 512" xml:space="preserve" class=""><g><path d="M451.289 149.996a4.837 4.837 0 0 1-4.838-4.838V97.896h-13.767c-2.674 0-4.838-2.166-4.838-4.838s2.164-4.838 4.838-4.838h16.961a6.489 6.489 0 0 1 6.482 6.484v50.453a4.838 4.838 0 0 1-4.838 4.839zm-1.644-52.1h.047zM135.321 78.45h-30.35a4.837 4.837 0 0 1-4.838-4.838V38.017c0-2.672 2.164-4.838 4.838-4.838s4.838 2.166 4.838 4.838v30.757h25.512a4.837 4.837 0 0 1 4.838 4.838 4.837 4.837 0 0 1-4.838 4.838zM148.266 267.273a4.839 4.839 0 0 1-4.819-5.325l4.375-43.185a12.463 12.463 0 0 1 12.435-11.24h11.901c2.674 0 4.838 2.166 4.838 4.838s-2.164 4.838-4.838 4.838h-11.901a2.811 2.811 0 0 0-2.806 2.537l-4.375 43.185a4.842 4.842 0 0 1-4.81 4.352z" fill="#ffffff" opacity="1" data-original="#000000"></path><path d="M489.699 237.036h-82.682l-5.481-28.288H449.659c16.909 0 30.662-13.753 30.662-30.66V94.69c0-16.904-13.753-30.658-30.662-30.658H308.414c-16.799 0-30.643 13.703-30.643 30.658v83.398c0 16.957 13.847 30.66 30.643 30.66h48.156l-5.481 28.288h-94.657l-2.099-20.712a36.586 36.586 0 0 0-36.502-32.989h-57.573a36.587 36.587 0 0 0-36.502 32.991l-2.098 20.71H22.306c-7.191 0-13.04 5.849-13.04 13.037v24.723c0 7.188 5.849 13.037 13.04 13.037H34.23v201.646c0 7.309 5.948 13.255 13.257 13.255h24.964c7.309 0 13.257-5.946 13.257-13.255V287.834h30.802l-2.408 23.764c-2.19 21.6 14.797 40.385 36.502 40.385h14.348v23.901h-33.988c-12.605 0-22.857 10.255-22.857 22.857 0 12.605 10.252 22.86 22.857 22.86h53.241v37.834h-17.074c-21.208 0-38.462 17.254-38.462 38.46 0 2.672 2.164 4.838 4.838 4.838s4.838-2.166 4.838-4.838c0-15.872 12.912-28.784 28.787-28.784h17.074v28.784c0 2.672 2.164 4.838 4.838 4.838s4.838-2.166 4.838-4.838v-28.784h17.079c15.874 0 28.787 12.912 28.787 28.784 0 2.672 2.164 4.838 4.838 4.838s4.838-2.166 4.838-4.838c0-21.206-17.254-38.46-38.462-38.46h-17.079v-37.834h53.241c12.605 0 22.862-10.255 22.862-22.86 0-12.603-10.257-22.857-22.862-22.857H213.14v-23.901h14.348c21.706 0 38.69-18.789 36.502-40.385l-2.409-23.764h35.06v210.062a4.837 4.837 0 0 0 4.838 4.838h168.359a4.837 4.837 0 0 0 4.838-4.838V287.834H489.7c7.186 0 13.035-5.849 13.035-13.037v-24.723c-.001-7.189-5.85-13.038-13.036-13.038zM449.645 73.709c11.58 0 21.001 9.418 21.001 20.996v50.453c0 11.577-9.421 20.998-21.001 20.998H308.414c-11.551 0-20.949-9.421-20.949-20.998V94.704c0-12.016 10.117-20.996 20.967-20.996h141.213zm-162.18 104.365v-10.603c5.484 5.168 12.843 8.361 20.949 8.361h141.231c8.127 0 15.506-3.199 21.001-8.376v10.618c0 11.577-9.421 20.998-21.001 20.998H308.433c-10.875 0-20.968-9.001-20.968-20.998zm78.962 30.674h25.253l5.485 28.288h-36.223zM76.033 489.479a3.585 3.585 0 0 1-3.581 3.579H47.487a3.584 3.584 0 0 1-3.581-3.579V287.834h32.127zM22.306 278.158a3.365 3.365 0 0 1-3.364-3.362v-24.723a3.365 3.365 0 0 1 3.364-3.362h98.372l-3.186 31.447H22.306zm238.003 120.584c0 7.269-5.915 13.184-13.186 13.184H130.965c-7.266 0-13.181-5.915-13.181-13.184s5.915-13.181 13.181-13.181h116.157c7.272 0 13.187 5.913 13.187 13.181zm-56.846-22.857h-28.834v-23.901h28.834zm24.024-33.577h-76.882c-15.982 0-28.487-13.834-26.873-29.734l9.652-95.273a26.934 26.934 0 0 1 26.873-24.291h57.573a26.935 26.935 0 0 1 26.873 24.291l9.657 95.273c1.611 15.864-10.859 29.734-26.873 29.734zm237.512 150.75H306.316v-97.774h158.683zm0-107.45H306.316v-97.774h158.683zm28.059-110.811a3.364 3.364 0 0 1-3.359 3.362h-229.1l-3.187-31.447h232.287a3.364 3.364 0 0 1 3.359 3.362z" fill="#ffffff" opacity="1" data-original="#000000"></path><path d="M357.209 352.01h56.898a4.837 4.837 0 0 0 4.838-4.838V326.27c0-2.672-2.164-4.838-4.838-4.838s-4.838 2.166-4.838 4.838v16.063h-47.222V326.27c0-2.672-2.164-4.838-4.838-4.838s-4.838 2.166-4.838 4.838v20.901a4.838 4.838 0 0 0 4.838 4.839zM357.209 459.46h56.898a4.837 4.837 0 0 0 4.838-4.838v-20.901c0-2.672-2.164-4.838-4.838-4.838s-4.838 2.166-4.838 4.838v16.063h-47.222v-16.063c0-2.672-2.164-4.838-4.838-4.838s-4.838 2.166-4.838 4.838v20.901a4.837 4.837 0 0 0 4.838 4.838zM40.627 73.593c0 35.488 28.872 64.362 64.362 64.362 35.467 0 64.325-28.874 64.325-64.362 0-35.469-28.857-64.327-64.325-64.327-35.49 0-64.362 28.857-64.362 64.327zm119.011 0c0 30.154-24.516 54.686-54.649 54.686-30.152 0-54.687-24.532-54.687-54.686 0-30.135 24.535-54.651 54.687-54.651 30.134 0 54.649 24.515 54.649 54.651z" fill="#ffffff" opacity="1" data-original="#000000"></path></g></svg>