<svg clip-rule="evenodd" fill-rule="evenodd" stroke-linejoin="round" stroke-miterlimit="2" viewBox="0 0 510 510" xmlns="http://www.w3.org/2000/svg"><path d="m73.258 289.845c14.779-24.811 41.865-41.433 72.831-41.433 2.565 0 5.102.114 7.608.337-10.441 12.014-18.784 25.904-24.454 41.096zm73.227 0c18.159-41.95 59.911-71.303 108.515-71.303 48.629 0 90.387 29.353 108.53 71.303zm234.286 0c-5.666-15.193-14.005-29.083-24.446-41.098 2.499-.221 5.029-.335 7.586-.335 30.982 0 58.073 16.622 72.845 41.433zm-16.86-51.433c-23.59 0-42.818-19.251-42.818-42.84 0-23.59 19.228-42.841 42.818-42.841 23.612 0 42.84 19.251 42.84 42.841 0 23.589-19.228 42.84-42.84 42.84zm-217.822 0c-23.589 0-42.818-19.251-42.818-42.84 0-23.59 19.229-42.841 42.818-42.841 23.612 0 42.841 19.251 42.841 42.841 0 23.589-19.229 42.84-42.841 42.84zm108.911-29.87c-32.909 0-59.735-26.857-59.735-59.767 0-32.909 26.826-59.766 59.735-59.766 32.941 0 59.766 26.857 59.766 59.766 0 32.91-26.825 59.767-59.766 59.767zm240 114.23v81.292c0 9.348-7.579 16.927-16.927 16.927h-446.146c-9.348 0-16.927-7.579-16.927-16.927v-81.292c0-9.349 7.579-16.927 16.927-16.927h446.146c9.348 0 16.927 7.578 16.927 16.927zm-76.608 5.229-5.999 18.464c-.711 2.188-2.75 3.67-5.05 3.67h-19.414c-2.301-.001-4.34 1.481-5.05 3.669-.711 2.187.067 4.584 1.929 5.936l15.706 11.412c1.861 1.352 2.64 3.749 1.929 5.937l-5.999 18.464c-.711 2.188.068 4.584 1.929 5.936 1.861 1.353 4.381 1.353 6.242 0l15.706-11.411c1.862-1.352 4.382-1.352 6.243 0l15.706 11.411c1.861 1.353 4.381 1.353 6.243 0 1.861-1.352 2.639-3.748 1.928-5.936l-5.999-18.464c-.711-2.188.068-4.585 1.929-5.937l15.707-11.412c1.861-1.352 2.639-3.749 1.929-5.936-.711-2.188-2.75-3.67-5.051-3.669h-19.414c-2.3 0-4.339-1.482-5.05-3.67l-5.999-18.464c-.711-2.188-2.75-3.669-5.05-3.669-2.301 0-4.34 1.481-5.051 3.669zm-112.295 0-5.999 18.464c-.711 2.188-2.75 3.67-5.05 3.67h-19.414c-2.301-.001-4.34 1.481-5.05 3.669-.711 2.187.067 4.584 1.929 5.936l15.706 11.412c1.861 1.352 2.64 3.749 1.929 5.937l-5.999 18.464c-.711 2.188.068 4.584 1.929 5.936 1.861 1.353 4.381 1.353 6.242 0l15.706-11.411c1.861-1.352 4.382-1.352 6.243 0l15.706 11.411c1.861 1.353 4.381 1.353 6.242 0 1.862-1.352 2.64-3.748 1.929-5.936l-5.999-18.464c-.711-2.188.068-4.585 1.929-5.937l15.707-11.412c1.861-1.352 2.639-3.749 1.929-5.936-.711-2.188-2.75-3.67-5.051-3.669h-19.414c-2.3 0-4.339-1.482-5.05-3.67l-5.999-18.464c-.711-2.188-2.75-3.669-5.05-3.669-2.301 0-4.34 1.481-5.051 3.669zm-224.59 0-5.999 18.464c-.711 2.188-2.75 3.67-5.05 3.67h-19.414c-2.301-.001-4.34 1.481-5.051 3.669-.71 2.187.068 4.584 1.929 5.936l15.707 11.412c1.861 1.352 2.64 3.749 1.929 5.937l-5.999 18.464c-.711 2.188.067 4.584 1.928 5.936 1.862 1.353 4.382 1.353 6.243 0l15.706-11.411c1.861-1.352 4.381-1.352 6.243 0l15.706 11.411c1.861 1.353 4.381 1.353 6.242 0 1.861-1.352 2.64-3.748 1.929-5.936l-5.999-18.464c-.711-2.188.068-4.585 1.929-5.937l15.706-11.412c1.862-1.352 2.64-3.749 1.929-5.936-.71-2.188-2.749-3.67-5.05-3.669h-19.414c-2.3 0-4.339-1.482-5.05-3.67l-5.999-18.464c-.711-2.188-2.75-3.669-5.051-3.669-2.3 0-4.339 1.481-5.05 3.669zm112.295 0-5.999 18.464c-.711 2.188-2.75 3.67-5.05 3.67h-19.414c-2.301-.001-4.34 1.481-5.051 3.669-.71 2.187.068 4.584 1.929 5.936l15.707 11.412c1.861 1.352 2.64 3.749 1.929 5.937l-5.999 18.464c-.711 2.188.067 4.584 1.929 5.936 1.861 1.353 4.381 1.353 6.242 0l15.706-11.411c1.861-1.352 4.382-1.352 6.243 0l15.706 11.411c1.861 1.353 4.381 1.353 6.242 0 1.861-1.352 2.64-3.748 1.929-5.936l-5.999-18.464c-.711-2.188.068-4.585 1.929-5.937l15.706-11.412c1.862-1.352 2.64-3.749 1.929-5.936-.71-2.188-2.749-3.67-5.05-3.669h-19.414c-2.3 0-4.339-1.482-5.05-3.67l-5.999-18.464c-.711-2.188-2.75-3.669-5.051-3.669-2.3 0-4.339 1.481-5.05 3.669z"/></svg>