<svg xmlns="http://www.w3.org/2000/svg" version="1.1" xmlns:xlink="http://www.w3.org/1999/xlink" width="512" height="512" x="0" y="0" viewBox="0 0 510 510" style="enable-background:new 0 0 512 512" xml:space="preserve" fill-rule="evenodd" class=""><g><path d="M449.68 292.845h28.393c13.767 0 24.927 11.16 24.927 24.927v81.292c0 13.767-11.16 24.927-24.927 24.927H31.927C18.16 423.991 7 412.831 7 399.064v-81.292c0-13.767 11.16-24.927 24.927-24.927H60.33c9.978-24.212 29.902-43.276 54.681-52.093-11.997-9.315-19.74-23.874-19.74-40.18 0-27.996 22.823-50.841 50.818-50.841 20.525 0 38.259 12.258 46.279 29.817a67.3 67.3 0 0 1-5.103-25.773c0-37.315 30.419-67.766 67.735-67.766 37.35 0 67.766 30.452 67.766 67.766a67.317 67.317 0 0 1-5.025 25.587c8.059-17.461 25.736-29.631 46.17-29.631 28.021 0 50.84 22.846 50.84 50.841 0 16.306-7.742 30.866-19.746 40.181 24.785 8.819 44.706 27.882 54.675 52.092zm-371.725 0h56.97a125.993 125.993 0 0 1 22.122-40.657 77.489 77.489 0 0 0-10.958-.776c-29.641 0-55.356 16.817-68.134 41.433zm73.919 0h206.265c-5.684-15.073-14.58-28.57-25.85-39.661-19.887-19.569-47.175-31.642-77.289-31.642-30.1 0-57.38 12.075-77.268 31.645-11.27 11.09-20.168 24.587-25.858 39.658zm223.213 0h56.971c-12.77-24.616-38.491-41.433-68.147-41.433a77.5 77.5 0 0 0-10.937.773 125.95 125.95 0 0 1 22.113 40.66zM193.202 181.481a50.503 50.503 0 0 1 3.728 19.091 50.486 50.486 0 0 1-4.926 21.802c8.311-4.8 17.22-8.679 26.587-11.498-11.063-7.093-19.947-17.313-25.389-29.395zm-47.113 53.931c19.203 0 34.841-15.656 34.841-34.84 0-19.185-15.638-34.841-34.841-34.841-19.183 0-34.818 15.658-34.818 34.841s15.635 34.84 34.818 34.84zm170.657-53.747c-5.45 12.003-14.302 22.156-25.316 29.213a125.513 125.513 0 0 1 26.589 11.496 50.48 50.48 0 0 1-4.926-21.802 50.502 50.502 0 0 1 3.653-18.907zM255 205.542c28.532 0 51.766-23.262 51.766-51.767 0-28.504-23.234-51.766-51.766-51.766-28.503 0-51.735 23.263-51.735 51.766 0 28.504 23.232 51.767 51.735 51.767zm108.911 29.87c19.202 0 34.84-15.656 34.84-34.84 0-19.185-15.638-34.841-34.84-34.841-19.183 0-34.818 15.658-34.818 34.841s15.635 34.84 34.818 34.84zM487 317.772a8.927 8.927 0 0 0-8.927-8.927H31.927A8.927 8.927 0 0 0 23 317.772v81.292a8.927 8.927 0 0 0 8.927 8.927h446.146a8.927 8.927 0 0 0 8.927-8.927zm-81.611 19.363 5.395-16.606a13.31 13.31 0 0 1 25.317 0l5.396 16.606h17.459a13.311 13.311 0 0 1 7.824 24.078l-14.125 10.262 5.395 16.606a13.31 13.31 0 0 1-20.482 14.881l-14.125-10.263-14.126 10.263a13.311 13.311 0 0 1-20.482-14.881l5.396-16.606-14.126-10.262a13.311 13.311 0 0 1 7.824-24.078zm-9.181 16 9.008 6.545a13.312 13.312 0 0 1 4.836 14.881l-3.442 10.59 9.009-6.545a13.311 13.311 0 0 1 15.647 0l9.009 6.545-3.441-10.59a13.31 13.31 0 0 1 4.835-14.881l9.008-6.545h-11.135a13.31 13.31 0 0 1-12.658-9.197l-3.441-10.591-3.441 10.591a13.312 13.312 0 0 1-12.659 9.197zm-327.705-16 5.396-16.606a13.31 13.31 0 0 1 25.317 0l5.395 16.606h17.46a13.311 13.311 0 0 1 7.824 24.078l-14.126 10.262 5.396 16.606a13.31 13.31 0 0 1-20.482 14.881l-14.126-10.263-14.125 10.263a13.311 13.311 0 0 1-20.482-14.881l5.395-16.606-14.125-10.262a13.311 13.311 0 0 1 7.824-24.078zm-9.18 16 9.008 6.545a13.31 13.31 0 0 1 4.835 14.881l-3.441 10.59 9.009-6.545a13.311 13.311 0 0 1 15.647 0l9.009 6.545-3.442-10.59a13.312 13.312 0 0 1 4.836-14.881l9.008-6.545h-11.135a13.312 13.312 0 0 1-12.659-9.197l-3.441-10.591-3.441 10.591a13.31 13.31 0 0 1-12.658 9.197zm121.476-16 5.395-16.606a13.31 13.31 0 0 1 25.317 0l5.395 16.606h17.46a13.311 13.311 0 0 1 7.824 24.078l-14.126 10.262 5.396 16.606a13.31 13.31 0 0 1-20.482 14.881l-14.126-10.263-14.125 10.263a13.311 13.311 0 0 1-20.482-14.881l5.396-16.606-14.126-10.262a13.311 13.311 0 0 1 7.824-24.078zm-9.181 16 9.008 6.545a13.31 13.31 0 0 1 4.835 14.881l-3.441 10.59 9.009-6.545a13.311 13.311 0 0 1 15.647 0l9.009 6.545-3.441-10.59a13.31 13.31 0 0 1 4.835-14.881l9.008-6.545h-11.135a13.312 13.312 0 0 1-12.659-9.197l-3.441-10.591-3.441 10.591a13.31 13.31 0 0 1-12.658 9.197zm121.476-16 5.395-16.606a13.31 13.31 0 0 1 25.317 0l5.395 16.606h17.46a13.311 13.311 0 0 1 7.824 24.078l-14.126 10.262 5.396 16.606a13.31 13.31 0 0 1-20.482 14.881l-14.125-10.263-14.126 10.263a13.311 13.311 0 0 1-20.482-14.881l5.396-16.606-14.126-10.262a13.311 13.311 0 0 1 7.824-24.078zm-9.181 16 9.008 6.545a13.31 13.31 0 0 1 4.835 14.881l-3.441 10.59 9.009-6.545a13.311 13.311 0 0 1 15.647 0l9.009 6.545-3.441-10.59a13.31 13.31 0 0 1 4.835-14.881l9.008-6.545h-11.135a13.31 13.31 0 0 1-12.658-9.197l-3.441-10.591-3.441 10.591a13.312 13.312 0 0 1-12.659 9.197z" fill="#ffffff" opacity="1" data-original="#000000" class=""></path></g></svg>