<?xml version="1.0" encoding="UTF-8"?>
<svg version="1.1" xmlns="http://www.w3.org/2000/svg" width="435" height="796">
<path d="M0 0 C0.99 0.495 0.99 0.495 2 1 C0.14462203 6.91984605 -2.01664404 12.5387731 -4.66796875 18.14453125 C-5.01973175 18.89950897 -5.37149475 19.65448669 -5.73391724 20.43234253 C-6.48867119 22.05178768 -7.24543811 23.67029596 -8.00405884 25.28793335 C-10.04283653 29.63714 -12.06487407 33.99410174 -14.0859375 38.3515625 C-14.4987648 39.24125229 -14.9115921 40.13094208 -15.33692932 41.04759216 C-19.42728993 49.88424599 -23.38192157 58.77889246 -27.3125 67.6875 C-34.02051247 82.88124912 -40.93589709 97.96858769 -48 113 C-47.25943359 113.81404297 -47.25943359 113.81404297 -46.50390625 114.64453125 C-45.86324219 115.35996094 -45.22257813 116.07539062 -44.5625 116.8125 C-43.92441406 117.52019531 -43.28632813 118.22789063 -42.62890625 118.95703125 C-40.15273653 122.06263499 -39.86218932 124.6567959 -39.875 128.5 C-39.87242187 129.2734375 -39.86984375 130.046875 -39.8671875 130.84375 C-40 133 -40 133 -41 136 C-40.21367187 136.20882812 -39.42734375 136.41765625 -38.6171875 136.6328125 C-33.73530656 138.47801588 -29.53785006 141.11126762 -25.125 143.875 C-24.19896973 144.45217773 -23.27293945 145.02935547 -22.31884766 145.62402344 C-13.85355002 150.9700667 -5.84542448 156.78810014 2 163 C3.48886719 164.16982422 3.48886719 164.16982422 5.0078125 165.36328125 C21.70986794 178.75823455 37.97618877 193.96886224 51 211 C52.19109375 212.50046875 52.19109375 212.50046875 53.40625 214.03125 C67.71576473 232.14554267 67.71576473 232.14554267 72.390625 241.90234375 C73.86971758 244.31031372 73.86971758 244.31031372 76.92578125 244.56640625 C78.04339844 244.56511719 79.16101563 244.56382812 80.3125 244.5625 C87.29265715 244.82678212 90.09387063 246.09387063 95 251 C99.76161164 250.70696935 103.76933169 248.26796776 107.9140625 246.09765625 C108.67665375 245.70450729 109.439245 245.31135834 110.22494507 244.90629578 C112.69478406 243.63102384 115.15991154 242.34692702 117.625 241.0625 C119.32917806 240.18018291 121.03360587 239.29834805 122.73828125 238.41699219 C131.53660822 233.86303804 140.32393556 229.28724749 149.078125 224.64892578 C156.86316012 220.52649303 164.69538918 216.49512673 172.52481079 212.45785522 C180.80552907 208.18762857 189.07108572 203.89235512 197.25439453 199.43725586 C201.78473872 197 201.78473872 197 204 197 C204 197.99 204 198.98 204 200 C191.76070823 206.39575351 179.51295053 212.77471437 167.25 219.125 C158.96499846 223.415914 150.6918177 227.72709417 142.44506836 232.09106445 C137.53526201 234.68304076 132.60643112 237.23654712 127.66796875 239.7734375 C126.35920666 240.44668511 125.05045018 241.11994364 123.74169922 241.79321289 C121.17888255 243.11137661 118.61377616 244.42493876 116.04736328 245.73608398 C112.68179932 247.4600871 109.33828059 249.22366964 106 251 C105.13197754 251.44593506 104.26395508 251.89187012 103.36962891 252.35131836 C100.90753178 253.64157632 100.90753178 253.64157632 98 256 C97.18621114 258.90907211 97.18621114 258.90907211 97.75 261.9375 C98.13429265 267.33747429 97.60958156 269.75343346 94 274 C92.68730269 275.82227231 92.68730269 275.82227231 92 278 C92.43534881 280.37807295 92.43534881 280.37807295 93.52734375 282.83203125 C93.9039917 283.78279541 94.28063965 284.73355957 94.66870117 285.71313477 C95.08740479 286.73592529 95.5061084 287.75871582 95.9375 288.8125 C96.79151343 291.00324443 97.64036547 293.19600704 98.484375 295.390625 C98.91169922 296.50115234 99.33902344 297.61167969 99.77929688 298.75585938 C109.34619819 324.18085631 116.42585037 353.70299156 116 381 C117.010625 381.04125 118.02125 381.0825 119.0625 381.125 C123.79897939 381.78926235 126.88899472 384.49498878 130 388 C131.89950062 391.08746192 132 392.16736529 132 396 C171.93 396 211.86 396 253 396 C253 396.99 253 397.98 253 399 C213.07 399 173.14 399 132 399 C131.67 401.31 131.34 403.62 131 406 C128.87290325 411.08139778 125.77685482 412.65347482 121 415 C119.67454395 415.36339393 118.34233131 415.70498213 117 416 C116.90203125 416.78117187 116.8040625 417.56234375 116.703125 418.3671875 C116.15873542 422.58151375 115.58222152 426.79075992 115 431 C114.80664062 432.4233667 114.80664062 432.4233667 114.609375 433.87548828 C110.80998957 461.48699417 104.72912789 489.4944907 92.71484375 514.828125 C91.86874309 517.39879148 91.97822612 518.51488161 93 521 C94.2375 522.485 94.2375 522.485 95.5 524 C98.9559068 528.14708816 99.13213522 530.95772311 99.0625 536.25 C99.04896484 537.58804687 99.04896484 537.58804687 99.03515625 538.953125 C99.01775391 539.96632813 99.01775391 539.96632813 99 541 C111.15670625 547.3525977 123.32103342 553.69017212 135.5 560 C144.76072 564.79796742 154.01391192 569.60993643 163.25732422 574.44116211 C168.58474226 577.2238988 173.91818595 579.99467214 179.2578125 582.75390625 C180.49544455 583.39387664 181.73307477 584.03385059 182.97070312 584.67382812 C185.3565021 585.90740364 187.74337527 587.13882152 190.13085938 588.36914062 C191.21431641 588.92923828 192.29777344 589.48933594 193.4140625 590.06640625 C194.3726416 590.56084229 195.3312207 591.05527832 196.31884766 591.56469727 C197.20362793 592.03834717 198.0884082 592.51199707 199 593 C199.94020996 593.49363037 200.88041992 593.98726074 201.84912109 594.49584961 C202.55891113 594.99221924 203.26870117 595.48858887 204 596 C204 596.99 204 597.98 204 599 C199.71140759 597.67434052 195.85571619 596.02191597 191.87890625 593.9453125 C190.70827637 593.33679443 189.53764648 592.72827637 188.33154297 592.10131836 C187.07515168 591.44262878 185.81880511 590.78385393 184.5625 590.125 C183.25427515 589.44304516 181.94584149 588.76149075 180.63720703 588.08032227 C177.35996543 586.37324279 174.08529823 584.66129306 170.8114624 582.94769287 C168.18424604 581.57322646 165.55504674 580.2025729 162.92578125 578.83203125 C160.15337667 577.386639 157.38123562 575.94075794 154.61010742 574.49291992 C149.51508647 571.83091709 144.41621974 569.17654181 139.3125 566.53125 C137.59873169 565.64288452 137.59873169 565.64288452 135.8503418 564.73657227 C133.55338646 563.54751263 131.25538881 562.36046408 128.95629883 561.17553711 C123.52583078 558.37209383 118.12045342 555.53620701 112.76171875 552.59765625 C111.79637207 552.07373291 110.83102539 551.54980957 109.83642578 551.01000977 C108.03191791 550.02771077 106.23424025 549.03272307 104.44482422 548.02319336 C103.64963379 547.59272705 102.85444336 547.16226074 102.03515625 546.71875 C101.3481665 546.33654297 100.66117676 545.95433594 99.95336914 545.56054688 C97.96551577 544.78127358 97.96551577 544.78127358 95.93920898 545.76367188 C94.25514597 546.8373336 92.59405349 547.94686194 90.9375 549.0625 C86.43419884 552.03276247 83.29809854 552.0929491 78 552 C76.68 552 75.36 552 74 552 C72.30058404 554.14274187 70.91180094 556.17707331 69.5 558.5 C68.61720897 559.88532327 67.73033723 561.2680528 66.83984375 562.6484375 C66.37690918 563.36741211 65.91397461 564.08638672 65.43701172 564.82714844 C51.34508754 586.13501884 33.5113279 606.53256101 14 623 C13.49452637 623.43521973 12.98905273 623.87043945 12.46826172 624.31884766 C-3.58523601 638.09157123 -21.35152163 650.01912425 -40 660 C-39.96519531 660.64066406 -39.93039063 661.28132812 -39.89453125 661.94140625 C-39.60976247 671.04044664 -42.21699121 676.22318446 -48 683 C-47.30777344 684.49720581 -47.30777344 684.49720581 -46.6015625 686.0246582 C-25.21647106 732.28604306 -25.21647106 732.28604306 -15.04071045 754.70892334 C-13.9406927 757.13056233 -12.8378645 759.55090999 -11.73486328 761.97119141 C-9.82424998 766.16679968 -7.92490707 770.36735801 -6.03302002 774.57144165 C-5.30731493 776.18019104 -4.5783101 777.78745632 -3.84588623 779.39315796 C-2.83460703 781.61223258 -1.83573198 783.83648462 -0.83984375 786.0625 C-0.53554947 786.72325027 -0.23125519 787.38400055 0.08226013 788.06477356 C2.11415631 792.65753108 2.11415631 792.65753108 1 796 C-2.33525341 793.27311917 -3.7656082 789.6094534 -5.484375 785.7734375 C-5.8164949 785.04656738 -6.14861481 784.31969727 -6.49079895 783.57080078 C-7.58358511 781.17504991 -8.66677899 778.77508894 -9.75 776.375 C-10.51493795 774.69324652 -11.28048958 773.01177204 -12.04663086 771.33056641 C-14.00069328 767.03872974 -15.94713481 762.7434842 -17.89154053 758.44726562 C-19.55471363 754.77529884 -21.22436518 751.10629012 -22.89453125 747.4375 C-24.72323816 743.42000096 -26.55095976 739.40207558 -28.37255859 735.38134766 C-31.70832088 728.02083305 -35.06884467 720.67248139 -38.45703125 713.3359375 C-39.5685632 710.92390304 -40.67970603 708.51168969 -41.79074097 706.09942627 C-42.50715981 704.54705438 -43.22548924 702.99556264 -43.9458313 701.44500732 C-44.94521213 699.29362639 -45.93806064 697.13933845 -46.9296875 694.984375 C-47.22684158 694.34946136 -47.52399567 693.71454773 -47.83015442 693.06039429 C-49.35535353 689.72856135 -50.45809836 686.62928105 -51 683 C-51.66 683.33 -52.32 683.66 -53 684 C-59.39176204 684.80891594 -64.75081515 683.84781876 -70 680 C-71.01960782 678.68160034 -72.02197932 677.34953819 -73 676 C-78.1318873 677.53579992 -83.26087715 679.07974037 -88.3828125 680.6484375 C-118.22610873 689.68651504 -147.84195651 694.24442579 -179 695 C-179.495 693.515 -179.495 693.515 -180 692 C-178.50726563 691.89510254 -178.50726563 691.89510254 -176.984375 691.78808594 C-141.74425314 689.27663987 -108.28926733 684.3793867 -75 672 C-75.04133057 671.39115967 -75.08266113 670.78231934 -75.12524414 670.1550293 C-75.47050317 664.19103432 -74.42522204 659.9202701 -71 655 C-67.20429268 651.20429268 -63.28495425 649.05317372 -57.828125 648.96484375 C-50.97121682 649.43654381 -46.76633233 652.12217452 -42 657 C-20.86647238 644.96918443 -1.43274908 631.65314089 16.54296875 615.234375 C18.15464463 613.76874924 19.78192582 612.32006451 21.42578125 610.890625 C39.01598746 595.51672866 53.34627361 576.69116859 66.25 557.3125 C66.64509766 556.73653076 67.04019531 556.16056152 67.44726562 555.56713867 C69.5061154 552.43418594 69.5061154 552.43418594 69.859375 548.796875 C68.526883 546.01075537 66.73535843 543.54880769 65 541 C63.39277585 536.17832754 63.61370857 532.29521246 65.0625 527.4375 C67.87998928 522.43872869 71.50349496 518.83216835 77 517 C78.89470816 516.9314505 80.7916834 516.91519628 82.6875 516.9375 C83.68136719 516.94652344 84.67523438 516.95554687 85.69921875 516.96484375 C86.45847656 516.97644531 87.21773438 516.98804688 88 517 C101.48196108 483.74993502 109.28563259 450.66347791 113 415 C112.08734375 414.89300781 111.1746875 414.78601563 110.234375 414.67578125 C106.96983889 413.99369822 105.66821785 413.37831663 103.25 411.1875 C102.67765625 410.68605469 102.1053125 410.18460937 101.515625 409.66796875 C97.63142024 405.39334135 97.57198591 401.3382044 97.68359375 395.7578125 C98.28938011 390.4777487 100.6245571 387.3754429 104.375 383.625 C107.31753587 381.80343018 109.60659939 381.47675876 113 381 C109.18127727 345.99389901 103.09445571 311.13772613 88 279 C87.13117188 279.04640625 86.26234375 279.0928125 85.3671875 279.140625 C75.92142691 279.43646538 75.92142691 279.43646538 71.4375 277.3125 C64.20853081 270.45424717 64.20853081 270.45424717 63.796875 265.609375 C63.65567434 256.99613503 65.59443041 252.67878226 71 246 C59.60632726 228.5639854 59.60632726 228.5639854 47 212 C46.53867676 211.43716309 46.07735352 210.87432617 45.60205078 210.29443359 C33.48204935 195.62750445 20.16395389 181.54271117 5 170 C3.71648619 168.98950162 2.43401794 167.97767441 1.15234375 166.96484375 C-7.92605039 159.84430746 -17.24841538 153.28967535 -27.0546875 147.21044922 C-28.91249602 146.05444839 -30.75343455 144.87497966 -32.59375 143.69140625 C-34.18703125 142.69947266 -34.18703125 142.69947266 -35.8125 141.6875 C-36.72644531 141.11386719 -37.64039063 140.54023438 -38.58203125 139.94921875 C-40.94126305 138.72763856 -40.94126305 138.72763856 -43.1640625 139.703125 C-44.67090024 140.76752953 -46.12533069 141.90575397 -47.5625 143.0625 C-51.40114816 146.11373315 -54.84494456 146.40552189 -59.5859375 146.34375 C-65.10933592 145.55724667 -68.83678294 142.31234745 -72.4375 138.25 C-74.83503452 133.26312821 -75.77018461 128.31055384 -74 123 C-74.67514648 122.82186768 -75.35029297 122.64373535 -76.04589844 122.46020508 C-80.73933213 121.20376262 -85.39952279 119.90488304 -90.015625 118.38671875 C-119.71939233 108.67193978 -149.88169307 105.03265932 -181 104 C-181 103.01 -181 102.02 -181 101 C-143.81032552 100.23495527 -107.98808071 107.68127992 -73 120 C-72.24074219 119.04867187 -71.48148437 118.09734375 -70.69921875 117.1171875 C-67.91793443 113.63231852 -65.33794329 112.28004884 -61 111 C-59.25535503 110.92512253 -57.50777945 110.90390482 -55.76171875 110.9296875 C-54.86799561 110.93983887 -53.97427246 110.94999023 -53.0534668 110.96044922 C-52.37582275 110.97350098 -51.69817871 110.98655273 -51 111 C-50.62939453 110.18362061 -50.25878906 109.36724121 -49.87695312 108.52612305 C-42.27480842 91.78302743 -34.65861082 75.04652249 -27.00521851 58.32678223 C-23.26705297 50.16025433 -19.53782163 41.9898713 -15.83203125 33.80859375 C-15.49235321 33.05917511 -15.15267517 32.30975647 -14.80270386 31.53762817 C-13.18578657 27.97014862 -11.57063733 24.40189212 -9.95898438 20.83203125 C-6.78271758 13.81249145 -3.52197641 6.85371173 0 0 Z " fill="#ACACAC" transform="translate(182,0)"/>
<path d="M0 0 C0.99 0 1.98 0 3 0 C1.98291011 33.66567543 -5.81587677 69.31782323 -20.28515625 99.828125 C-21.13125691 102.39879148 -21.02177388 103.51488161 -20 106 C-18.7625 107.485 -18.7625 107.485 -17.5 109 C-14.0440932 113.14708816 -13.86786478 115.95772311 -13.9375 121.25 C-13.94652344 122.14203125 -13.95554687 123.0340625 -13.96484375 123.953125 C-13.98224609 124.96632813 -13.98224609 124.96632813 -14 126 C-1.84329375 132.3525977 10.32103342 138.69017212 22.5 145 C31.76072 149.79796742 41.01391192 154.60993643 50.25732422 159.44116211 C55.58474226 162.2238988 60.91818595 164.99467214 66.2578125 167.75390625 C67.49544455 168.39387664 68.73307477 169.03385059 69.97070312 169.67382812 C72.3565021 170.90740364 74.74337527 172.13882152 77.13085938 173.36914062 C78.21431641 173.92923828 79.29777344 174.48933594 80.4140625 175.06640625 C81.3726416 175.56084229 82.3312207 176.05527832 83.31884766 176.56469727 C84.20362793 177.03834717 85.0884082 177.51199707 86 178 C86.94020996 178.49363037 87.88041992 178.98726074 88.84912109 179.49584961 C89.55891113 179.99221924 90.26870117 180.48858887 91 181 C91 181.99 91 182.98 91 184 C86.71140759 182.67434052 82.85571619 181.02191597 78.87890625 178.9453125 C77.70827637 178.33679443 76.53764648 177.72827637 75.33154297 177.10131836 C74.07515168 176.44262878 72.81880511 175.78385393 71.5625 175.125 C70.25427515 174.44304516 68.94584149 173.76149075 67.63720703 173.08032227 C64.35996543 171.37324279 61.08529823 169.66129306 57.8114624 167.94769287 C55.18424604 166.57322646 52.55504674 165.2025729 49.92578125 163.83203125 C47.15337667 162.386639 44.38123562 160.94075794 41.61010742 159.49291992 C36.51508647 156.83091709 31.41621974 154.17654181 26.3125 151.53125 C25.16998779 150.93900635 24.02747559 150.3467627 22.8503418 149.73657227 C20.55338646 148.54751263 18.25538881 147.36046408 15.95629883 146.17553711 C10.52583078 143.37209383 5.12045342 140.53620701 -0.23828125 137.59765625 C-1.20362793 137.07373291 -2.16897461 136.54980957 -3.16357422 136.01000977 C-4.96808209 135.02771077 -6.76575975 134.03272307 -8.55517578 133.02319336 C-9.35036621 132.59272705 -10.14555664 132.16226074 -10.96484375 131.71875 C-11.6518335 131.33654297 -12.33882324 130.95433594 -13.04663086 130.56054688 C-15.03448423 129.78127358 -15.03448423 129.78127358 -17.06079102 130.76367188 C-18.74485403 131.8373336 -20.40594651 132.94686194 -22.0625 134.0625 C-26.56580116 137.03276247 -29.70190146 137.0929491 -35 137 C-36.32 137 -37.64 137 -39 137 C-40.69941596 139.14274187 -42.08819906 141.17707331 -43.5 143.5 C-44.38279103 144.88532327 -45.26966277 146.2680528 -46.16015625 147.6484375 C-46.62309082 148.36741211 -47.08602539 149.08638672 -47.56298828 149.82714844 C-61.65491246 171.13501884 -79.4886721 191.53256101 -99 208 C-99.75821045 208.65282959 -99.75821045 208.65282959 -100.53173828 209.31884766 C-116.58523601 223.09157123 -134.35152163 235.01912425 -153 245 C-152.96519531 245.64066406 -152.93039063 246.28132812 -152.89453125 246.94140625 C-152.60976247 256.04044664 -155.21699121 261.22318446 -161 268 C-160.53851563 268.99813721 -160.07703125 269.99627441 -159.6015625 271.0246582 C-138.21647106 317.28604306 -138.21647106 317.28604306 -128.04071045 339.70892334 C-126.9406927 342.13056233 -125.8378645 344.55090999 -124.73486328 346.97119141 C-122.82424998 351.16679968 -120.92490707 355.36735801 -119.03302002 359.57144165 C-118.30731493 361.18019104 -117.5783101 362.78745632 -116.84588623 364.39315796 C-115.83460703 366.61223258 -114.83573198 368.83648462 -113.83984375 371.0625 C-113.53554947 371.72325027 -113.23125519 372.38400055 -112.91773987 373.06477356 C-110.88584369 377.65753108 -110.88584369 377.65753108 -112 381 C-115.33525341 378.27311917 -116.7656082 374.6094534 -118.484375 370.7734375 C-118.8164949 370.04656738 -119.14861481 369.31969727 -119.49079895 368.57080078 C-120.58358511 366.17504991 -121.66677899 363.77508894 -122.75 361.375 C-123.51493795 359.69324652 -124.28048958 358.01177204 -125.04663086 356.33056641 C-127.00069328 352.03872974 -128.94713481 347.7434842 -130.89154053 343.44726562 C-132.55471363 339.77529884 -134.22436518 336.10629012 -135.89453125 332.4375 C-137.72323816 328.42000096 -139.55095976 324.40207558 -141.37255859 320.38134766 C-144.70832088 313.02083305 -148.06884467 305.67248139 -151.45703125 298.3359375 C-152.5685632 295.92390304 -153.67970603 293.51168969 -154.79074097 291.09942627 C-155.50715981 289.54705438 -156.22548924 287.99556264 -156.9458313 286.44500732 C-157.94521213 284.29362639 -158.93806064 282.13933845 -159.9296875 279.984375 C-160.22684158 279.34946136 -160.52399567 278.71454773 -160.83015442 278.06039429 C-162.35535353 274.72856135 -163.45809836 271.62928105 -164 268 C-164.66 268.33 -165.32 268.66 -166 269 C-172.39176204 269.80891594 -177.75081515 268.84781876 -183 265 C-184.01960782 263.68160034 -185.02197932 262.34953819 -186 261 C-191.1318873 262.53579992 -196.26087715 264.07974037 -201.3828125 265.6484375 C-231.22610873 274.68651504 -260.84195651 279.24442579 -292 280 C-292.495 278.515 -292.495 278.515 -293 277 C-291.50726563 276.89510254 -291.50726563 276.89510254 -289.984375 276.78808594 C-254.74425314 274.27663987 -221.28926733 269.3793867 -188 257 C-188.04133057 256.39115967 -188.08266113 255.78231934 -188.12524414 255.1550293 C-188.47050317 249.19103432 -187.42522204 244.9202701 -184 240 C-180.20429268 236.20429268 -176.28495425 234.05317372 -170.828125 233.96484375 C-163.97121682 234.43654381 -159.76633233 237.12217452 -155 242 C-133.86647238 229.96918443 -114.43274908 216.65314089 -96.45703125 200.234375 C-94.84535537 198.76874924 -93.21807418 197.32006451 -91.57421875 195.890625 C-73.98401254 180.51672866 -59.65372639 161.69116859 -46.75 142.3125 C-46.35490234 141.73653076 -45.95980469 141.16056152 -45.55273438 140.56713867 C-43.4938846 137.43418594 -43.4938846 137.43418594 -43.140625 133.796875 C-44.473117 131.01075537 -46.26464157 128.54880769 -48 126 C-49.60722415 121.17832754 -49.38629143 117.29521246 -47.9375 112.4375 C-45.12001072 107.43872869 -41.49650504 103.83216835 -36 102 C-34.10529184 101.9314505 -32.2083166 101.91519628 -30.3125 101.9375 C-29.31863281 101.94652344 -28.32476562 101.95554687 -27.30078125 101.96484375 C-26.54152344 101.97644531 -25.78226562 101.98804688 -25 102 C-11.51803892 68.74993502 -3.71436741 35.66347791 0 0 Z " fill="#ADADAD" transform="translate(295,415)"/>
<path d="M0 0 C0.99 0.495 0.99 0.495 2 1 C0.14462203 6.91984605 -2.01664404 12.5387731 -4.66796875 18.14453125 C-5.01973175 18.89950897 -5.37149475 19.65448669 -5.73391724 20.43234253 C-6.48867119 22.05178768 -7.24543811 23.67029596 -8.00405884 25.28793335 C-10.04283653 29.63714 -12.06487407 33.99410174 -14.0859375 38.3515625 C-14.4987648 39.24125229 -14.9115921 40.13094208 -15.33692932 41.04759216 C-19.42728993 49.88424599 -23.38192157 58.77889246 -27.3125 67.6875 C-34.02051247 82.88124912 -40.93589709 97.96858769 -48 113 C-47.25943359 113.81404297 -47.25943359 113.81404297 -46.50390625 114.64453125 C-45.86324219 115.35996094 -45.22257813 116.07539062 -44.5625 116.8125 C-43.92441406 117.52019531 -43.28632813 118.22789063 -42.62890625 118.95703125 C-40.15273653 122.06263499 -39.86218932 124.6567959 -39.875 128.5 C-39.87242187 129.2734375 -39.86984375 130.046875 -39.8671875 130.84375 C-40 133 -40 133 -41 136 C-40.21367187 136.20882812 -39.42734375 136.41765625 -38.6171875 136.6328125 C-33.73530656 138.47801588 -29.53785006 141.11126762 -25.125 143.875 C-24.19896973 144.45217773 -23.27293945 145.02935547 -22.31884766 145.62402344 C-13.85355002 150.9700667 -5.84542448 156.78810014 2 163 C3.48886719 164.16982422 3.48886719 164.16982422 5.0078125 165.36328125 C21.70986794 178.75823455 37.97618877 193.96886224 51 211 C52.19109375 212.50046875 52.19109375 212.50046875 53.40625 214.03125 C59.73889765 222.04769466 65.47791217 230.40783398 71 239 C71.58910156 239.9075 72.17820313 240.815 72.78515625 241.75 C74 244 74 244 74 247 C70.40231294 245.80077098 69.9961801 244.88823797 67.99609375 241.765625 C67.14035767 240.44908936 67.14035767 240.44908936 66.26733398 239.10595703 C65.66348877 238.16349121 65.05964355 237.22102539 64.4375 236.25 C58.94748442 227.86030349 53.36345857 219.76007544 47 212 C46.53867676 211.43716309 46.07735352 210.87432617 45.60205078 210.29443359 C33.48204935 195.62750445 20.16395389 181.54271117 5 170 C3.71648619 168.98950162 2.43401794 167.97767441 1.15234375 166.96484375 C-7.92605039 159.84430746 -17.24841538 153.28967535 -27.0546875 147.21044922 C-28.91249602 146.05444839 -30.75343455 144.87497966 -32.59375 143.69140625 C-34.18703125 142.69947266 -34.18703125 142.69947266 -35.8125 141.6875 C-36.72644531 141.11386719 -37.64039063 140.54023438 -38.58203125 139.94921875 C-40.94126305 138.72763856 -40.94126305 138.72763856 -43.1640625 139.703125 C-44.67090024 140.76752953 -46.12533069 141.90575397 -47.5625 143.0625 C-51.40114816 146.11373315 -54.84494456 146.40552189 -59.5859375 146.34375 C-65.10933592 145.55724667 -68.83678294 142.31234745 -72.4375 138.25 C-74.83503452 133.26312821 -75.77018461 128.31055384 -74 123 C-74.67514648 122.82186768 -75.35029297 122.64373535 -76.04589844 122.46020508 C-80.73933213 121.20376262 -85.39952279 119.90488304 -90.015625 118.38671875 C-119.71939233 108.67193978 -149.88169307 105.03265932 -181 104 C-181 103.01 -181 102.02 -181 101 C-143.81032552 100.23495527 -107.98808071 107.68127992 -73 120 C-72.24074219 119.04867187 -71.48148437 118.09734375 -70.69921875 117.1171875 C-67.91793443 113.63231852 -65.33794329 112.28004884 -61 111 C-59.25535503 110.92512253 -57.50777945 110.90390482 -55.76171875 110.9296875 C-54.86799561 110.93983887 -53.97427246 110.94999023 -53.0534668 110.96044922 C-52.37582275 110.97350098 -51.69817871 110.98655273 -51 111 C-50.62939453 110.18362061 -50.25878906 109.36724121 -49.87695312 108.52612305 C-42.27480842 91.78302743 -34.65861082 75.04652249 -27.00521851 58.32678223 C-23.26705297 50.16025433 -19.53782163 41.9898713 -15.83203125 33.80859375 C-15.49235321 33.05917511 -15.15267517 32.30975647 -14.80270386 31.53762817 C-13.18578657 27.97014862 -11.57063733 24.40189212 -9.95898438 20.83203125 C-6.78271758 13.81249145 -3.52197641 6.85371173 0 0 Z " fill="#A8A8A8" transform="translate(182,0)"/>
<path d="M0 0 C4.71201462 4.0545242 7.45738853 8.32105087 7.9375 14.5625 C7.45676746 21.77348814 4.19068164 26.05755972 -0.3125 31.3125 C0.37972656 32.80970581 0.37972656 32.80970581 1.0859375 34.3371582 C22.47102894 80.59854306 22.47102894 80.59854306 32.64678955 103.02142334 C33.7468073 105.44306233 34.8496355 107.86340999 35.95263672 110.28369141 C37.86325002 114.47929968 39.76259293 118.67985801 41.65447998 122.88394165 C42.38018507 124.49269104 43.1091899 126.09995632 43.84161377 127.70565796 C44.85289297 129.92473258 45.85176802 132.14898462 46.84765625 134.375 C47.15195053 135.03575027 47.45624481 135.69650055 47.76976013 136.37727356 C49.80165631 140.97003108 49.80165631 140.97003108 48.6875 144.3125 C45.35224659 141.58561917 43.9218918 137.9219534 42.203125 134.0859375 C41.8710051 133.35906738 41.53888519 132.63219727 41.19670105 131.88330078 C40.10391489 129.48754991 39.02072101 127.08758894 37.9375 124.6875 C37.17256205 123.00574652 36.40701042 121.32427204 35.64086914 119.64306641 C33.68680672 115.35122974 31.74036519 111.0559842 29.79595947 106.75976562 C28.13278637 103.08779884 26.46313482 99.41879012 24.79296875 95.75 C22.96426184 91.73250096 21.13654024 87.71457558 19.31494141 83.69384766 C15.97917912 76.33333305 12.61865533 68.98498139 9.23046875 61.6484375 C8.1189368 59.23640304 7.00779397 56.82418969 5.89675903 54.41192627 C5.18034019 52.85955438 4.46201076 51.30806264 3.7416687 49.75750732 C2.74228787 47.60612639 1.74943936 45.45183845 0.7578125 43.296875 C0.46065842 42.66196136 0.16350433 42.02704773 -0.14265442 41.37289429 C-1.66785353 38.04106135 -2.77059836 34.94178105 -3.3125 31.3125 C-4.3025 31.8075 -4.3025 31.8075 -5.3125 32.3125 C-11.70426204 33.12141594 -17.06331515 32.16031876 -22.3125 28.3125 C-23.33210782 26.99410034 -24.33447932 25.66203819 -25.3125 24.3125 C-30.4443873 25.84829992 -35.57337715 27.39224037 -40.6953125 28.9609375 C-70.53860873 37.99901504 -100.15445651 42.55692579 -131.3125 43.3125 C-131.8075 41.8275 -131.8075 41.8275 -132.3125 40.3125 C-131.31734375 40.24256836 -130.3221875 40.17263672 -129.296875 40.10058594 C-94.05675314 37.58913987 -60.60176733 32.6918867 -27.3125 20.3125 C-27.35383057 19.70365967 -27.39516113 19.09481934 -27.43774414 18.4675293 C-27.78300317 12.50353432 -26.73772204 8.2327701 -23.3125 3.3125 C-16.58354942 -3.41645058 -8.30333739 -4.23000207 0 0 Z " fill="#ABABAB" transform="translate(134.3125,651.6875)"/>
<path d="M0 0 C37.18967448 -0.76504473 73.01191929 6.68127992 108 19 C108.75539063 18.04867187 109.51078125 17.09734375 110.2890625 16.1171875 C113.03129734 12.66365625 115.74951312 11.31911662 120 10 C124.46348506 9.62804291 126.24171538 9.49447692 130 12 C129.625 14.375 129.625 14.375 128 17 C125.78125 17.6015625 125.78125 17.6015625 123.125 18 C119.52556296 18.56696335 118.24869049 18.79275793 115.375 21.1875 C113.5851001 24.84865888 113.36311853 26.96641738 114 31 C115.82668938 34.57537156 115.82668938 34.57537156 119 37 C123.07925109 38.00336418 126.07693569 37.5366653 129.6875 35.4375 C130.450625 34.963125 131.21375 34.48875 132 34 C134.8125 34.3125 134.8125 34.3125 137 35 C137 36.32 137 37.64 137 39 C131.97037337 43.80608767 128.22198417 45.43245256 121.4140625 45.34375 C115.89066408 44.55724667 112.16321706 41.31234745 108.5625 37.25 C106.16496548 32.26312821 105.22981539 27.31055384 107 22 C106.32485352 21.82186768 105.64970703 21.64373535 104.95410156 21.46020508 C100.26066787 20.20376262 95.60047721 18.90488304 90.984375 17.38671875 C61.28060767 7.67193978 31.11830693 4.03265932 0 3 C0 2.01 0 1.02 0 0 Z " fill="#FCFCFC" transform="translate(1,101)"/>
<path d="M0 0 C3.52787301 1.95657197 5.70285021 4.10855063 7 8 C48.91 8 90.82 8 134 8 C134 8.99 134 9.98 134 11 C92.09 11 50.18 11 7 11 C6.34 12.98 5.68 14.96 5 17 C1.95721749 19.62785762 -0.07316643 20.8675952 -4.0625 21.4375 C-7.41465104 20.93824346 -9.29834822 20.02623884 -12 18 C-14.6790573 13.98141405 -14.69610694 10.72358279 -14 6 C-10.43219445 0.29151113 -6.64122651 -1.12124603 0 0 Z " fill="#ABABAB" transform="translate(301,388)"/>
<path d="M0 0 C4.6618312 3.25244037 7.3187669 6.11642677 8.5 11.75 C8.561875 12.78125 8.62375 13.8125 8.6875 14.875 C5.9375 15.25 5.9375 15.25 2.6875 14.875 C0.5 12 0.5 12 -1.3125 8.875 C-5.00970147 6.41019902 -8.02405966 6.0907327 -12.3125 6.875 C-15.4991503 8.6448823 -15.4991503 8.6448823 -17.3125 11.875 C-17.95348808 16.13086274 -17.67067638 19.80047087 -16.3125 23.875 C-12.61779859 25.88069505 -9.47399693 26.30848926 -5.3125 25.875 C-0.68251997 23.93686883 0.76730265 21.42283582 2.6875 16.875 C4.6675 16.875 6.6475 16.875 8.6875 16.875 C8.22248644 21.61813827 7.72616331 25.12731525 4.6875 28.875 C0.37272841 32.04699793 -3.93328821 34.17580105 -9.375 33.69140625 C-15.30242529 32.72018961 -19.37513128 30.43405852 -23.3125 25.875 C-26.23817917 21.20761216 -25.92370168 16.20226407 -25.3125 10.875 C-23.65912717 5.99531585 -20.56797658 2.71198439 -16.3125 -0.125 C-10.91330143 -1.92473286 -5.37692735 -1.82612627 0 0 Z " fill="#FEFEFC" transform="translate(305.3125,382.125)"/>
<path d="M0 0 C0.99 0 1.98 0 3 0 C-1.08659804 25.12952826 -38.43928493 58.3348723 -57 74 C-57.50547363 74.43521973 -58.01094727 74.87043945 -58.53173828 75.31884766 C-74.05560468 88.6371864 -92.12516682 102.81014237 -111 111 C-111.99 110.67 -112.98 110.34 -114 110 C-110.7609286 106.34482623 -107.07509843 104.24461666 -102.8125 102 C-84.91667954 92.23826879 -68.50126554 79.40146356 -53.66015625 65.47265625 C-51.50648006 63.47078103 -49.32019017 61.56812291 -47.0625 59.6875 C-29.62481317 44.53850957 -14.82041839 24.83621523 -3.26000977 4.92700195 C-2.25085874 3.23592932 -1.13399595 1.61002038 0 0 Z " fill="#A7A7A7" transform="translate(253,549)"/>
<path d="M0 0 C3.53134179 0.56612534 6.1611956 1.43959725 9.23046875 3.265625 C10.42144165 3.97247437 10.42144165 3.97247437 11.63647461 4.69360352 C12.89923218 5.46401978 12.89923218 5.46401978 14.1875 6.25 C15.06736572 6.78359131 15.94723145 7.31718262 16.85375977 7.86694336 C30.79313347 16.44242507 43.73709339 26.17978828 56 37 C56.78761719 37.67675781 57.57523438 38.35351562 58.38671875 39.05078125 C70.86997006 49.96567841 82.94498304 61.79664114 93 75 C93.79277344 75.99902344 94.58554688 76.99804688 95.40234375 78.02734375 C101.73725593 86.04437311 107.47692096 94.4062917 113 103 C113.58910156 103.9075 114.17820312 104.815 114.78515625 105.75 C116 108 116 108 116 111 C112.40231294 109.80077098 111.9961801 108.88823797 109.99609375 105.765625 C109.42560303 104.88793457 108.8551123 104.01024414 108.26733398 103.10595703 C107.66348877 102.16349121 107.05964355 101.22102539 106.4375 100.25 C100.94748442 91.86030349 95.36345857 83.76007544 89 76 C88.53867676 75.43716309 88.07735352 74.87432617 87.60205078 74.29443359 C75.48204935 59.62750445 62.16395389 45.54271117 47 34 C45.71648619 32.98950162 44.43401794 31.97767441 43.15234375 30.96484375 C32.25019497 22.41413882 20.9117103 14.75141623 9.04296875 7.609375 C8.43227539 7.24046143 7.82158203 6.87154785 7.19238281 6.49145508 C5.5491554 5.50455848 3.89789409 4.53107351 2.24609375 3.55859375 C1.50488281 3.04425781 0.76367188 2.52992188 0 2 C0 1.34 0 0.68 0 0 Z " fill="#A6A6A6" transform="translate(140,136)"/>
<path d="M0 0 C3 1 3 1 4.73901367 4.13818359 C5.39278536 5.55333472 6.0348786 6.97391408 6.66796875 8.3984375 C7.19540932 9.55144096 7.19540932 9.55144096 7.73350525 10.72773743 C8.89476322 13.27243755 10.04108339 15.82358345 11.1875 18.375 C11.99690909 20.15644919 12.80730524 21.93745021 13.61865234 23.71801758 C15.28234648 27.37268286 16.94044302 31.02980993 18.59423828 34.68896484 C20.77281114 39.50536906 22.97284916 44.31157298 25.18359375 49.11328125 C28.79836776 56.96816621 32.38604295 64.83506666 35.95928955 72.70892334 C37.0593073 75.13056233 38.1621355 77.55090999 39.26513672 79.97119141 C41.17575002 84.16679968 43.07509293 88.36735801 44.96697998 92.57144165 C45.69268507 94.18019104 46.4216899 95.78745632 47.15411377 97.39315796 C48.16539297 99.61223258 49.16426802 101.83648462 50.16015625 104.0625 C50.46445053 104.72325027 50.76874481 105.38400055 51.08226013 106.06477356 C53.11415631 110.65753108 53.11415631 110.65753108 52 114 C48.66474659 111.27311917 47.2343918 107.6094534 45.515625 103.7734375 C45.1835051 103.04656738 44.85138519 102.31969727 44.50920105 101.57080078 C43.41641489 99.17504991 42.33322101 96.77508894 41.25 94.375 C40.48506205 92.69324652 39.71951042 91.01177204 38.95336914 89.33056641 C36.99930672 85.03872974 35.05286519 80.7434842 33.10845947 76.44726562 C31.44528638 72.77529887 29.77564509 69.10628543 28.10546875 65.4375 C26.27638265 61.41943817 24.44841689 57.4008957 22.62744141 53.37915039 C19.66924872 46.84863875 16.69479465 40.32648409 13.67927551 33.82220459 C12.18600621 30.60109504 10.69767063 27.37771438 9.20925903 24.15435791 C8.49353829 22.60849457 7.77522577 21.06382824 7.0541687 19.52044678 C6.05303126 17.37726171 5.06084494 15.23013373 4.0703125 13.08203125 C3.77315842 12.4522789 3.47600433 11.82252655 3.16984558 11.1736908 C1.47015239 7.4611427 0.48826454 4.05275045 0 0 Z " fill="#A7A7A7" transform="translate(131,682)"/>
<path d="M0 0 C0 0.99 0 1.98 0 3 C-12.23929177 9.39575351 -24.48704947 15.77471437 -36.75 22.125 C-45.03413726 26.41546638 -53.30523891 30.72842003 -61.55273438 35.08886719 C-66.47797993 37.68724178 -71.41861342 40.25496373 -76.3671875 42.80859375 C-77.01541473 43.14320114 -77.66364197 43.47780853 -78.33151245 43.82255554 C-81.56666729 45.49200578 -84.80287232 47.15937848 -88.04052734 48.82397461 C-95.1858511 52.48892851 -95.1858511 52.48892851 -102.171875 56.4453125 C-105 58 -105 58 -108 58 C-108 57.01 -108 56.02 -108 55 C-106.28623169 54.12432373 -106.28623169 54.12432373 -104.5378418 53.23095703 C-100.20017614 51.01417139 -95.86329089 48.79586246 -91.52661133 46.57714844 C-89.66809193 45.62655308 -87.80937555 44.67634271 -85.95043945 43.7265625 C-75.49876459 38.38616679 -65.0699378 33.00769153 -54.69099426 27.52714539 C-47.60770027 23.78728717 -40.49542905 20.10614116 -33.375 16.4375 C-24.46011132 11.84247614 -15.55479204 7.23309107 -6.74560547 2.43725586 C-2.21526128 0 -2.21526128 0 0 0 Z " fill="#A7A7A7" transform="translate(386,197)"/>
<path d="M0 0 C3.2561101 1.89446406 5.3487671 3.30400843 6.73046875 6.90234375 C7.49776352 10.86036925 7.15298259 12.69403482 5.3125 16.375 C2.23262188 19.87107787 0.6632396 20.82305962 -3.9375 21.3125 C-7.43355571 20.95575962 -9.20520785 20.09609412 -12 18 C-14.6790573 13.98141405 -14.69610694 10.72358279 -14 6 C-10.41017261 0.25627618 -6.66214612 -1.06297693 0 0 Z " fill="#FDCC55" transform="translate(301,388)"/>
<path d="M0 0 C0.66 0.33 1.32 0.66 2 1 C0.14462203 6.91984605 -2.01664404 12.5387731 -4.66796875 18.14453125 C-5.01973175 18.89950897 -5.37149475 19.65448669 -5.73391724 20.43234253 C-6.48867119 22.05178768 -7.24543811 23.67029596 -8.00405884 25.28793335 C-10.04283653 29.63714 -12.06487407 33.99410174 -14.0859375 38.3515625 C-14.4987648 39.24125229 -14.9115921 40.13094208 -15.33692932 41.04759216 C-19.42728993 49.88424599 -23.38192157 58.77889246 -27.3125 67.6875 C-34.02051247 82.88124912 -40.93589709 97.96858769 -48 113 C-48.99 113 -49.98 113 -51 113 C-49.14462203 107.08015395 -46.98335596 101.4612269 -44.33203125 95.85546875 C-43.98026825 95.10049103 -43.62850525 94.34551331 -43.26608276 93.56765747 C-42.51132881 91.94821232 -41.75456189 90.32970404 -40.99594116 88.71206665 C-38.95716347 84.36286 -36.93512593 80.00589826 -34.9140625 75.6484375 C-34.29482155 74.31390282 -34.29482155 74.31390282 -33.66307068 72.95240784 C-29.57270416 64.11574124 -25.61859253 55.2208903 -21.6875 46.3125 C-16.73583406 35.10330503 -11.71963292 23.92883289 -6.5625 12.8125 C-5.73721802 11.02936401 -5.73721802 11.02936401 -4.89526367 9.21020508 C-1.1280299 1.1280299 -1.1280299 1.1280299 0 0 Z " fill="#A6A6A6" transform="translate(182,0)"/>
<path d="M0 0 C3.4481709 1.33577097 6.76244445 2.81698935 10.0703125 4.46875 C11.03864014 4.95190674 12.00696777 5.43506348 13.00463867 5.93286133 C14.03435791 6.45001709 15.06407715 6.96717285 16.125 7.5 C17.20177002 8.03971436 18.27854004 8.57942871 19.38793945 9.13549805 C26.44275233 12.68354788 33.454983 16.30256661 40.43115234 20.00244141 C47.67804374 23.84382172 54.96218513 27.61206082 62.25 31.375 C71.4639224 36.13509848 80.67587028 40.89885026 89.875 45.6875 C91.26380371 46.40848877 91.26380371 46.40848877 92.68066406 47.14404297 C97.51598966 49.66427873 102.28668275 52.25805659 107 55 C107 55.99 107 56.98 107 58 C102.71140759 56.67434052 98.85571619 55.02191597 94.87890625 52.9453125 C93.70827637 52.33679443 92.53764648 51.72827637 91.33154297 51.10131836 C90.07515168 50.44262878 88.81880511 49.78385393 87.5625 49.125 C86.25427515 48.44304516 84.94584149 47.76149075 83.63720703 47.08032227 C80.35996543 45.37324279 77.08529823 43.66129306 73.8114624 41.94769287 C71.18424604 40.57322646 68.55504674 39.2025729 65.92578125 37.83203125 C62.21783541 35.89888109 58.51097488 33.96367135 54.8046875 32.02734375 C48.3766288 28.67169796 41.93846985 25.33561477 35.5 22 C23.32102053 15.69019714 11.15670615 9.35259764 -1 3 C-0.67 2.01 -0.34 1.02 0 0 Z " fill="#A6A6A6" transform="translate(279,541)"/>
<path d="M0 0 C33.50882246 -0.68932435 66.70358996 4.89113126 98.4375 15.6875 C99.29045654 15.97278564 100.14341309 16.25807129 101.0222168 16.55200195 C103.05111701 17.27300911 105.03246468 18.12530454 107 19 C107.495 20.485 107.495 20.485 108 22 C101.93182096 20.7629976 96.12121365 19.14373037 90.25 17.1875 C64.48204396 8.88658428 37.84007555 4.49502541 10.8125 3.4375 C9.24145508 3.37272461 9.24145508 3.37272461 7.63867188 3.30664062 C5.09253603 3.20200491 2.54632822 3.09982454 0 3 C0 2.01 0 1.02 0 0 Z " fill="#A7A7A7" transform="translate(1,101)"/>
<path d="M0 0 C0 0.66 0 1.32 0 2 C-28.3418717 13.68781114 -58.62486445 19.40845116 -89.125 21.375 C-89.79856537 21.41887848 -90.47213074 21.46275696 -91.16610718 21.50796509 C-103.03652849 22.25017438 -103.03652849 22.25017438 -107 21 C-107 20.34 -107 19.68 -107 19 C-106.00484375 18.93006836 -105.0096875 18.86013672 -103.984375 18.78808594 C-69.88939902 16.3582506 -36.89613039 12.1618422 -4.75244141 -0.14672852 C-2 -1 -2 -1 0 0 Z " fill="#A7A7A7" transform="translate(109,673)"/>
<path d="M0 0 C0.99 0 1.98 0 3 0 C1.92727883 35.50707081 -7.03403407 71.80049754 -22 104 C-22.99 104 -23.98 104 -25 104 C-23.42774286 99.16879213 -21.78985998 94.38589229 -19.984375 89.63671875 C-9.02635825 60.6348111 -2.95614246 30.80611613 0 0 Z " fill="#A7A7A7" transform="translate(295,415)"/>
<path d="M0 0 C3 1 3 1 4.05566406 2.95166016 C4.37245117 3.80550293 4.68923828 4.6593457 5.015625 5.5390625 C5.37615967 6.49949463 5.73669434 7.45992676 6.1081543 8.44946289 C6.48496338 9.49739014 6.86177246 10.54531738 7.25 11.625 C7.64550049 12.71095459 8.04100098 13.79690918 8.44848633 14.91577148 C9.65463468 18.26980198 10.83368622 21.63192555 12 25 C12.33112793 25.95374512 12.66225586 26.90749023 13.00341797 27.89013672 C21.11900988 51.71717377 27.39439136 78.71951362 27 104 C26.01 104 25.02 104 24 104 C23.91024902 103.17725586 23.82049805 102.35451172 23.72802734 101.50683594 C19.84471733 66.61991381 12.53665066 33.49759622 -1 1 C-0.67 0.67 -0.34 0.34 0 0 Z " fill="#A7A7A7" transform="translate(271,277)"/>
<path d="M0 0 C0.99 1.98 1.98 3.96 3 6 C2.360625 6.515625 1.72125 7.03125 1.0625 7.5625 C-1.64002035 10.75638769 -1.92716612 12.84846877 -2 17 C-0.66457328 19.78307606 -0.66457328 19.78307606 1 22 C1 22.66 1 23.32 1 24 C2.43725871 24.16873478 3.87481838 24.33490737 5.3125 24.5 C6.51326172 24.63921875 6.51326172 24.63921875 7.73828125 24.78125 C10.11896555 25.04813463 10.11896555 25.04813463 13 25 C13.66 26.98 14.32 28.96 15 31 C13.21927258 32.78072742 10.72356123 32.25615294 8.3125 32.3125 C3.00606015 32.26214233 0.01322719 31.71223515 -4 28 C-8.65239728 22.71890039 -9.29109249 19.67946969 -9.21875 12.76171875 C-8.84175976 8.00221695 -7.00237518 5.15425021 -3.9375 1.625 C-2 0 -2 0 0 0 Z " fill="#FDFDFD" transform="translate(255,247)"/>
<path d="M0 0 C0.78503906 -0.00257813 1.57007813 -0.00515625 2.37890625 -0.0078125 C4.4375 0.125 4.4375 0.125 6.4375 1.125 C5.7775 3.105 5.1175 5.085 4.4375 7.125 C3.76203125 7.22296875 3.0865625 7.3209375 2.390625 7.421875 C-1.53520204 8.07996161 -4.77775732 8.63920691 -8.1875 10.75 C-10.17724424 14.18683097 -10.26947236 17.24468578 -9.5625 21.125 C-8.59376968 22.48122245 -7.59815785 23.81917053 -6.5625 25.125 C-6.6875 27.75 -6.6875 27.75 -7.5625 30.125 C-8.5525 30.785 -9.5425 31.445 -10.5625 32.125 C-14.68747602 27.45726398 -17.28400891 24.13270378 -17.875 17.75 C-17.35607889 11.7305151 -15.56650233 7.73980333 -11.0625 3.75 C-7.49148308 0.82113963 -4.59427341 -0.01513764 0 0 Z " fill="#FEFEFE" transform="translate(263.5625,516.875)"/>
<path d="M0 0 C2.5625 2.0625 2.5625 2.0625 4.5625 4.0625 C4.5625 5.0525 4.5625 6.0425 4.5625 7.0625 C1.875 8.3125 1.875 8.3125 -1.4375 9.0625 C-3.12925663 7.76114875 -4.79454805 6.42494796 -6.4375 5.0625 C-10.45119164 4.48911548 -12.63482984 4.65224636 -16.25 6.5 C-18.5834355 9.23345302 -18.81345004 10.26865171 -19.375 13.6875 C-19.76953125 16.06640625 -19.76953125 16.06640625 -20.4375 18.0625 C-23.5625 19.625 -23.5625 19.625 -26.4375 20.0625 C-27.4375 19.0625 -27.4375 19.0625 -27.75 15.5 C-27.66318506 9.45551004 -25.29190722 4.91690722 -21.0625 0.6875 C-13.98683681 -3.69267245 -7.26792758 -4.09646827 0 0 Z " fill="#FEFEFE" transform="translate(134.4375,651.9375)"/>
<path d="M0 0 C0.53625 0.639375 1.0725 1.27875 1.625 1.9375 C4.2007341 4.17432172 4.88318676 4.2923489 8.125 4.5625 C9.40375 4.706875 10.6825 4.85125 12 5 C14 8 14 8 13.625 10.1875 C13.315625 11.0846875 13.315625 11.0846875 13 12 C6.39040099 12.55079992 1.52880499 11.81565414 -4 8 C-7 4.8125 -7 4.8125 -7 2 C-2.25 0 -2.25 0 0 0 Z " fill="#FDFDFD" transform="translate(116,672)"/>
<path d="M0 0 C1.98 0.99 3.96 1.98 6 3 C4.49364535 7.21779303 1.75987578 8.7747674 -2 11 C-6.25800538 12.41933513 -10.22911538 12.72651677 -14.4375 11 C-14.953125 10.67 -15.46875 10.34 -16 10 C-15.01 8.02 -14.02 6.04 -13 4 C-11.14375 4.061875 -11.14375 4.061875 -9.25 4.125 C-5.99716438 4.125 -3.71812283 3.95704844 -1 2 C-0.67 1.34 -0.34 0.68 0 0 Z " fill="#FEFEFE" transform="translate(272,540)"/>
<path d="M0 0 C3.80489745 1.49478114 5.66190835 3.69442214 8 7 C8.94238698 9.82716095 9.13465647 11.63176123 9.125 14.5625 C9.12757813 15.34753906 9.13015625 16.13257813 9.1328125 16.94140625 C9 19 9 19 8 21 C6.02 20.34 4.04 19.68 2 19 C1.34 15.04 0.68 11.08 0 7 C-0.66 7 -1.32 7 -2 7 C-1.125 1.125 -1.125 1.125 0 0 Z " fill="#FEFEFE" transform="translate(133,114)"/>
<path d="M0 0 C1.62100654 4.86301963 1.39061285 8.7413586 -0.125 13.625 C-2.32641481 17.58754665 -4.38071849 19.34586023 -8 22 C-10 19 -10 19 -9.75 16.5 C-9 14 -9 14 -7 11 C-6.71052049 8.6800285 -6.62343999 6.39431605 -6.5390625 4.05859375 C-6 2 -6 2 -4.0859375 0.72265625 C-2 0 -2 0 0 0 Z " fill="#FEFEFE" transform="translate(141,660)"/>
<path d="M0 0 C4.62017379 3.48366045 7.90735285 6.05114329 9 12 C9.19047978 15.74610227 9.18684691 18.43945927 8 22 C6.02 21.34 4.04 20.68 2 20 C1.81824219 18.96939453 1.81824219 18.96939453 1.6328125 17.91796875 C1.46523438 17.01691406 1.29765625 16.11585938 1.125 15.1875 C0.96257812 14.29417969 0.80015625 13.40085937 0.6328125 12.48046875 C0.08811551 9.77272154 0.08811551 9.77272154 -2 7 C-1.67873872 4.36565746 -1.18644952 2.37289903 0 0 Z " fill="#FDFDFD" transform="translate(272,519)"/>
<path d="M0 0 C1.98 0 3.96 0 6 0 C5.53498644 4.74313827 5.03866331 8.25231525 2 12 C-1.72101015 14.73549508 -5.37607976 16.43952482 -10 17 C-10 14.69 -10 12.38 -10 10 C-8.906875 9.46375 -7.81375 8.9275 -6.6875 8.375 C-2.95532156 6.27470525 -1.55739859 4.030914 0 0 Z " fill="#FFFEFE" transform="translate(308,399)"/>
<path d="M0 0 C0.66 0.33 1.32 0.66 2 1 C2.6249225 11.72783633 2.6249225 11.72783633 0.25 16.5625 C-1.72398304 18.70098163 -3.55641088 20.42912128 -6 22 C-8.35745938 15.79615953 -8.35745938 15.79615953 -6.625 11.9375 C-6.08875 10.968125 -5.5525 9.99875 -5 9 C-5.04125 7.948125 -5.0825 6.89625 -5.125 5.8125 C-5.08375 4.884375 -5.0425 3.95625 -5 3 C-2.625 1.0625 -2.625 1.0625 0 0 Z " fill="#FDFDFD" transform="translate(278,255)"/>
<path d="M0 0 C10.72783633 -0.6249225 10.72783633 -0.6249225 15.5625 1.75 C17.70098163 3.72398304 19.42912128 5.55641088 21 8 C17.71662309 10.18891794 16.80441099 10.45290607 13 10 C11.33333333 9 9.66666667 8 8 7 C7.13375 7.020625 6.2675 7.04125 5.375 7.0625 C3 7 3 7 1.1875 5.1875 C0 3 0 3 0 0 Z " fill="#FEFEFE" transform="translate(257,245)"/>
<path d="M0 0 C0.99 0 1.98 0 3 0 C3 2.31 3 4.62 3 7 C2.01 7 1.02 7 0 7 C0 4.69 0 2.38 0 0 Z " fill="#DAD8D3" transform="translate(295,381)"/>
<path d="M0 0 C1.20628008 2.33214148 2.1654738 4.49642139 3 7 C2.01 7.33 1.02 7.66 0 8 C-0.66 5.69 -1.32 3.38 -2 1 C-1.34 0.67 -0.68 0.34 0 0 Z " fill="#D4D4D4" transform="translate(130,675)"/>
<path d="M0 0 C0.99 0 1.98 0 3 0 C3 1.98 3 3.96 3 6 C2.01 6 1.02 6 0 6 C0 4.02 0 2.04 0 0 Z " fill="#D9D9D9" transform="translate(295,409)"/>
<path d="M0 0 C1.5625 1.75 1.5625 1.75 3 4 C2.6875 6.25 2.6875 6.25 2 8 C0.4375 6.25 0.4375 6.25 -1 4 C-0.6875 1.75 -0.6875 1.75 0 0 Z " fill="#D2D2D2" transform="translate(269,270)"/>
<path d="M0 0 C3.465 1.485 3.465 1.485 7 3 C6.01 4.485 6.01 4.485 5 6 C3.02 5.01 1.04 4.02 -1 3 C-0.67 2.01 -0.34 1.02 0 0 Z " fill="#CDCDCD" transform="translate(134,132)"/>
<path d="M0 0 C0.99 0 1.98 0 3 0 C2.34 2.31 1.68 4.62 1 7 C0.01 6.34 -0.98 5.68 -2 5 C-1.34 3.35 -0.68 1.7 0 0 Z " fill="#C8C8C8" transform="translate(130,113)"/>
</svg>
