<svg clip-rule="evenodd" fill-rule="evenodd" height="512" image-rendering="optimizeQuality" shape-rendering="geometricPrecision" text-rendering="geometricPrecision" viewBox="0 0 4335 4335" width="512" xmlns="http://www.w3.org/2000/svg"><g id="Layer_x0020_1"><path d="m1278 2743c-271 0-574-229-637-739-4-35 21-64 53-71 35-3 63 21 70 53 53 437 299 630 514 630 219 0 462-193 514-630 4-35 36-56 71-53 35 4 56 36 53 71-64 510-367 739-638 739z"/><path d="m2493 3933h-398v-429c0-35-28-64-63-64s-63 29-63 64v429h-1377v-429c0-35-29-64-64-64s-63 29-63 64v429h-402c-35 0-63-28-63-63v-338c3-399 285-734 660-818v40c0 26 1 22 3 33 6 35 22 68 47 94l450 479c35 37 82 55 132 55 51 0 97-22 132-58l454-475c32-34 51-77 51-125v-37c364 92 628 419 628 812v338c0 35-29 63-64 63z"/><path d="m701 2060h-4c-49-3-95-28-130-70-95-117-120-374-78-768 15-127 99-180 162-204 60-25 106-36 145-43 70-17 109-24 190-112 49-53 102-109 183-116 412-32 859 126 902 454 28 225 52 630-74 785-36 42-81 67-131 71-17 0-31-4-45-15-14-10-22-28-22-42-3-84-38-324-137-408-28-25-60-32-95-28-67 7-116-32-155-60-18-14-42-32-53-32-31 3-60 3-88 3-373 18-500 25-503 518 0 18-7 35-21 46-15 14-29 21-46 21z"/><path d="m1810 2594v163c0 18-7 33-18 43l-454 475c-10 14-28 21-46 21-17 0-31-7-45-18l-451-478c-10-10-15-21-16-33-1-4-2-9-2-13v-123l17 17c127 131 299 214 483 214 185 0 356-83 484-214 17-17 33-35 48-54z"/><path d="m1807 2292h-349c-35 0-63-28-63-63s28-63 63-63h349c35 0 63 28 63 63s-32 63-63 63z"/><path d="m1289 2412c-130 0-233-81-233-179 0-99 103-180 233-180 127 0 229 81 229 180 0 98-102 179-229 179z"/><path d=""/><path d="m2743 2757c-10 0-24-3-35-10-21-14-32-39-25-67l74-310h-398c-56 0-102-46-102-102v-1205c0-56 46-102 102-102h157v1043c0 100 81 182 181 182h1194c100 0 182-78 182-179v-1049h156c57 0 106 46 106 102v1208c0 56-46 102-106 102h-915l-536 377c-10 7-24 10-35 10z"/><path d="m3891 2067h-1194c-35 0-63-28-63-63v-1539c0-35 28-64 63-64h1194c35 0 64 29 64 64v1542c0 35-29 60-64 60zm-229-1254h-736c-35 0-63-28-63-63s28-63 63-63h736c36 0 64 28 64 63s-32 63-64 63zm0 324h-736c-35 0-63-28-63-63s28-63 63-63h736c36 0 64 28 64 63s-32 63-64 63zm0 321h-736c-35 0-63-28-63-64 0-35 28-63 63-63h736c36 0 64 28 64 64 0 35-32 63-64 63zm0 320h-736c-35 0-63-28-63-63s28-63 63-63h736c36 0 64 28 64 63s-32 63-64 63z"/></g></svg>