<svg id="Layer_1" enable-background="new 0 0 512 512" viewBox="0 0 512 512" xmlns="http://www.w3.org/2000/svg"><path clip-rule="evenodd" d="m260.01 77.25 168.1 125.15c9.7 7.22 23.47 5.2 30.69-4.5 3.48-4.67 4.93-10.45 4.07-16.27-.85-5.82-3.89-10.94-8.57-14.42l-179.13-133.35c-5.7-4.25-12.24-6.37-18.77-6.37-6.56 0-13.11 2.14-18.83 6.42l-178.8 133.82c-9.68 7.24-11.66 21.02-4.42 30.7 3.49 4.66 8.62 7.69 14.44 8.53 5.83.84 11.6-.62 16.26-4.12l167.78-125.57c2.13-1.6 5.05-1.6 7.18-.02zm-129.56 181.7c-4.06-4.06-4.06-10.66 0-14.72l39.22-39.22c4.06-4.06 10.66-4.06 14.72 0l12.61 12.61-16.98 16.98c-2.34 2.34-2.34 6.14 0 8.49 1.17 1.17 2.71 1.76 4.24 1.76 1.54 0 3.07-.59 4.24-1.76l16.98-16.98 17.59 17.59-12.42 12.42c-2.34 2.34-2.34 6.14 0 8.49 1.17 1.17 2.71 1.76 4.24 1.76 1.54 0 3.07-.58 4.24-1.76l12.42-12.42 19.57 19.57-53.92 53.94zm33.7 176.86c-3.54-7.98-8.83-13.24-16.47-16.35l-5.68 22.05zm31.47-8.12-19.73 5.09c-4.99-12.37-13.28-20.63-25.18-25.03l5.12-19.86 27.83 11.97zm116.14-95.31-53.94 53.94 66.35 66.34c4.06 4.06 10.66 4.06 14.72 0l39.22-39.22c1.95-1.95 3.03-4.57 3.03-7.36s-1.08-5.41-3.03-7.36l-12.21-12.21-16.98 16.98c-1.17 1.17-2.71 1.76-4.24 1.76-1.54 0-3.07-.58-4.24-1.76-2.34-2.34-2.34-6.14 0-8.49l16.98-16.98-17.59-17.59-12.42 12.42c-1.17 1.17-2.71 1.76-4.24 1.76-1.54 0-3.07-.58-4.24-1.76-2.34-2.34-2.34-6.14 0-8.49l12.42-12.42zm-6.08-46.06-110.34 110.34 10.57 24.59 117.35-117.35zm-118.83 101.86 110.34-110.34-17.59-17.58-117.34 117.34zm164.65-112.52-19.76 19.76-43.65-43.65 19.76-19.76zm16.01-43.54-16.12-16.12c-3.65-3.65-8.54-5.67-13.77-5.67-5.22 0-10.11 2.02-13.77 5.67l-7.52 7.52 43.65 43.66 7.52-7.53c7.6-7.58 7.6-19.94.01-27.53zm53.44-20.1c.8.6 1.63 1.15 2.47 1.67v271.82h-333.72v-271.34c.87-.53 1.72-1.1 2.54-1.72l164.2-122.89zm-161.33 51.25 55.76-55.76c5.93-5.92 13.83-9.18 22.25-9.18 8.43 0 16.33 3.26 22.25 9.18l16.12 16.12c12.27 12.27 12.27 32.24 0 44.51l-55.76 55.76 66.35 66.34c4.22 4.22 6.54 9.85 6.54 15.85s-2.32 11.63-6.54 15.85l-39.22 39.22c-4.37 4.37-10.11 6.55-15.85 6.55s-11.48-2.18-15.85-6.55l-66.34-66.35-41.19 41.19c-.76.76-1.71 1.3-2.74 1.57l-70.25 18.11c-.49.13-1 .19-1.49.19-1.57 0-3.1-.62-4.25-1.76-1.5-1.5-2.1-3.69-1.56-5.74l18.11-70.25c.27-1.04.81-1.98 1.56-2.74l41.19-41.19-66.75-66.74c-8.74-8.74-8.74-22.96 0-31.69l39.22-39.22c8.74-8.74 22.96-8.74 31.69 0z" fill-rule="evenodd"/></svg>