<svg xmlns="http://www.w3.org/2000/svg" version="1.1" xmlns:xlink="http://www.w3.org/1999/xlink" width="512" height="512" x="0" y="0" viewBox="0 0 66 66" style="enable-background:new 0 0 512 512" xml:space="preserve" class=""><g><path d="m63.6 23.4-10-7.7 7.3-6.5c1-.9 1.5-2.1 1.6-3.4 0-1.3-.5-2.5-1.4-3.5-1-.8-2.2-1.3-3.5-1.3s-2.5.6-3.4 1.6l-7.2 8L35.8 2C34.2.7 31.9.7 30.3 2l-12.4 9.6V8h.7c.6 0 1-.4 1-1V2.3c0-.6-.4-1-1-1H5.8c-.5 0-1 .5-1 1V7c0 .6.5 1 1 1h1.1v12l-4.5 3.4C1.6 24 1.1 25 1.1 26c0 1.3.7 2.4 1.9 3 .5.2 1 .4 1.5.4.3 0 .5 0 .8-.1V64c0 .6.5 1 1 1h53.4c.6 0 1-.4 1-1V29.3c.3.1.5.1.8.1.5 0 1-.1 1.5-.3 1.1-.6 1.9-1.7 1.9-3 0-1.1-.5-2.1-1.3-2.7zM15.8 8v5.2l-3.4 2.6-3.5 2.7V8zm42.9 20.4V63H7.3V28.1L33 8.3l9.5 7.3-5.3 6c-1.7-.2-3.3.4-4.6 1.6-1.1 1.1-1.9 3.8-2.5 6.2H15.8c-2.1 0-3.9 1.7-3.9 3.9v8.9h-1.8c-.6 0-1 .4-1 1v12.5c0 .6.4 1 1 1h3.2v3.6c0 .5.5 1 1 1H19c.6 0 1-.5 1-1v-3.6h7.6v3.6c0 .5.4 1 1 1h4.6c.5 0 1-.5 1-1v-3.6h3.2c.5 0 1-.4 1-1V43.2c0-.6-.5-1-1-1h-1.6v-8.9c0-.2 0-.4-.1-.6.7-.2 1.4-.4 2.2-.6 2.3-.6 3.8-2.5 4-4.9v-.9l6.6-5.9 10.2 7.9zm-28.9 5.9c.2.1.4.2.6.2s.3 0 .5-.1c0 0 .9-.4 2.9-1.1v8.9H32c-.6 0-1 .4-1 1v1.6H16.5v-1.6c0-.6-.5-1-1-1H14v-8.9c0-1 .8-1.9 1.9-1.9h13.9c-.2 1-.3 1.7-.3 2-.2.4 0 .7.3.9zM31 46.9v2.6H16.5v-2.6zm-16.5-2.7v6.2c0 .5.4 1 1 1H32c.6 0 1-.5 1-1v-6.2h3.2v10.5h-25V44.2H13zm17.2-12.3c.5-2.8 1.4-6.3 2.4-7.2.7-.7 1.6-1.1 2.6-1.1.5 0 1 .1 1.5.3 1.3.5 2 1.7 1.9 3.1-.1 1.2-.8 2.7-2.5 3.1-2.9.8-4.8 1.4-5.9 1.8z" fill="#000000" opacity="1" data-original="#000000"></path><path d="M30.2 21.9c0 .4-.2.7-.5.9l-2.5 1.4-1.4 2.5c-.2.3-.5.5-.9.5s-.7-.2-.9-.5l-1.3-2.5-2.5-1.4c-.3-.2-.5-.5-.5-.9s.2-.7.5-.9l2.5-1.4 1.3-2.5c.4-.6 1.4-.6 1.8 0l1.4 2.5 2.5 1.4c.3.2.5.5.5.9zM28.2 38.2c0 .4-.2.7-.5.9l-2.2 1.2-1.2 2.2c-.2.3-.5.5-.9.5s-.7-.2-.9-.5l-1.2-2.2-2.2-1.2c-.3-.2-.5-.5-.5-.9s.2-.7.5-.9l2.2-1.2 1.2-2.2c.4-.6 1.4-.6 1.8 0l1.2 2.2 2.2 1.2c.3.2.5.6.5.9zM56.8 40.4l-4.3-10.6c-.1-.4-.5-.6-.9-.6H46c-.4 0-.8.2-.9.6l-4.3 10.6c-.1.3-.1.7.1.9.2.3.5.4.8.4h4v14h-1.2c-1 0-1.8.8-1.8 1.8v2.1c0 1 .8 1.8 1.8 1.8h8.6c1 0 1.8-.8 1.8-1.8v-2.1c0-1-.8-1.8-1.8-1.8h-1.2v-14h1.3v8.4c0 .5.5 1 1 1 .6 0 1-.5 1-1v-8.4h.6c.3 0 .6-.2.8-.4s.3-.6.2-.9zm-6.9 15.4h-2.2v-14h2.2z" fill="#000000" opacity="1" data-original="#000000"></path></g></svg>