<svg id="Layer_1" enable-background="new 0 0 512 512" height="512" viewBox="0 0 512 512" width="512" xmlns="http://www.w3.org/2000/svg"><path clip-rule="evenodd" d="m93.922 400.028v89.558h21.468v-89.558c4.418 0 8-3.582 8-8h11.722c8.377 0 12.748 6.694 15.268 15.268l24.186 82.291h6.198v-102.604c-11.94-28.738-29.073-45.849-59.037-45.849h-8.391c-8.377 0-15.268-6.891-15.268-15.268v-24.176l-29.117-18.789c-14.916-9.625-19.294-29.65-9.7-44.597 7.893-12.296 22.867-17.453 36.251-13.55-4.147-8.463-12.885-14.246-22.958-14.246-13.973 0-25.37 11.397-25.37 25.371v89.986c0 24.346 13.384 46.591 34.655 58.162h-34.024c-13.077.001-23.805-10.727-23.805-23.803v-116.882c0-4.418-3.582-8-8-8s-8 3.582-8 8v116.882c0 21.909 17.895 39.805 39.804 39.805h46.118zm221.314-73.539v155.098c0 4.4-3.6 8-8 8h-102.472c-4.4 0-8-3.6-8-8v-155.098h-43.645c-3.3 0-6-2.7-6-6v-11.235c0-3.3 2.699-6 6-6h205.762c3.3 0 6 2.7 6 6v11.235c0 3.3-2.699 6-6 6zm102.842 73.539h46.117c21.909 0 39.804-17.896 39.804-39.805v-116.881c0-4.418-3.582-8-8-8s-8 3.582-8 8v116.882c0 13.077-10.728 23.805-23.805 23.805h-34.024c21.27-11.571 34.655-33.816 34.655-58.162v-89.987c0-13.974-11.397-25.371-25.37-25.371-10.074 0-18.811 5.782-22.958 14.246 13.384-3.903 28.359 1.253 36.251 13.55 9.594 14.947 5.216 34.972-9.7 44.597l-29.117 18.789v24.176c0 8.377-6.891 15.268-15.268 15.268h-8.391c-29.964 0-47.096 17.111-59.036 45.848v102.605h6.198l24.186-82.291c2.52-8.574 6.891-15.268 15.268-15.268h11.722c0 4.418 3.582 8 8 8v89.558h21.468zm-25.341-106.784-81.508.016c-9.016 0-16.325-7.309-16.325-16.325s7.309-16.324 16.325-16.324h76.76l28.784-18.574c7.572-4.86 17.65-2.662 22.51 4.91s2.662 17.65-4.91 22.51l-32.836 21.188c-2.728 1.752-5.782 2.587-8.8 2.599zm45.81-151.951c-17.836 0-32.295 14.459-32.295 32.295s14.46 32.295 32.295 32.295c17.836 0 32.295-14.459 32.295-32.295s-14.459-32.295-32.295-32.295zm-109.582-118.154c-36.253 0-65.641 29.389-65.641 65.642s29.388 65.641 65.641 65.641c7.326 0 14.372-1.201 20.951-3.416l40.682 10.901-9.061-33.815c8.207-10.958 13.069-24.567 13.069-39.311.001-36.253-29.388-65.642-65.641-65.642zm-88.764 91.951c0-25.754 0-51.507 0-77.261 0-8.491-6.925-15.416-15.416-15.416-37.636 0-75.272 0-112.908 0-8.491 0-15.415 6.925-15.415 15.416v77.261c0 8.491 6.925 15.415 15.415 15.415h13.045v31.402l30.166-31.402h69.697c8.491 0 15.416-6.925 15.416-15.415zm-107.282-49.004c-4.418 0-8-3.582-8-8s3.582-8 8-8h70.825c4.418 0 8 3.582 8 8s-3.582 8-8 8zm0 36.746c-4.418 0-8-3.582-8-8s3.582-8 8-8h70.825c4.418 0 8 3.582 8 8s-3.582 8-8 8zm-13.656 190.412c-3.018-.013-6.072-.847-8.8-2.598l-32.836-21.188c-7.572-4.86-9.77-14.939-4.91-22.51 4.86-7.572 14.939-9.77 22.511-4.91l28.784 18.574h76.76c9.016 0 16.325 7.309 16.325 16.324 0 9.016-7.309 16.325-16.325 16.325zm-47.474-151.951c17.836 0 32.295 14.459 32.295 32.295s-14.459 32.295-32.295 32.295-32.295-14.459-32.295-32.295 14.459-32.295 32.295-32.295zm227.783-62.885c-4.418 0-8-3.582-8-8s3.582-8 8-8h58.786c4.418 0 8 3.582 8 8s-3.582 8-8 8zm0 36.745c-4.418 0-8-3.582-8-8s3.582-8 8-8h58.786c4.418 0 8 3.582 8 8s-3.582 8-8 8z" fill-rule="evenodd"/></svg>