<?xml version="1.0"?>
<svg xmlns="http://www.w3.org/2000/svg" data-name="Layer 1" id="Layer_1" viewBox="0 0 128 128"><title/>
    <path d="M125.15093,21.189,97.80444,34H30.19556L2.84907,21.189A2,2,0,0,0,1.15182,24.811l27.7498,13a1.99876,1.99876,0,0,0,.84863.189H98.24975a2.00038,2.00038,0,0,0,.84863-.189l27.7498-13a2,2,0,1,0-1.69725-3.62207Z" fill="currentColor"/>
    <path d="M87.99983,54H40.00017a2.00009,2.00009,0,0,0-2,2V94a2.00009,2.00009,0,0,0,2,2H87.99983a2.00009,2.00009,0,0,0,2-2V56A2.00009,2.00009,0,0,0,87.99983,54Zm-2,38H42.00016V58h4V74a2,2,0,1,0,4,0V58h4V86a2,2,0,1,0,4,0V58H70V86a2,2,0,1,0,4,0V58h4V74a2,2,0,1,0,4,0V58h4Z" fill="currentColor" />
    <path d="M125.99955,8H2.00045a2,2,0,0,0,0,4h123.9991a2,2,0,0,0,0-4Z" fill="currentColor" />
    <path d="M2.00045,4h123.9991a2,2,0,0,0,0-4H2.00045a2,2,0,0,0,0,4Z" fill="currentColor" />
    <path d="M64,30a160.6163,160.6163,0,0,0,18.1541-.90717C86.73128,28.54358,92.99979,27.79132,92.99979,23s-6.26851-5.54358-10.84569-6.09283A160.602,160.602,0,0,0,64,16a160.60353,160.60353,0,0,0-18.1541.90717C41.26878,17.45642,35.00021,18.20868,35.00021,23s6.26857,5.54358,10.84569,6.09283A160.61786,160.61786,0,0,0,64,30ZM39.00018,23c0-1.65686,11.19279-3,24.99982-3s24.99982,1.34314,24.99982,3S77.807,26,64,26,39.00018,24.65686,39.00018,23Z" fill="currentColor" />
    <path d="M126.83744,33.81592a1.9999,1.9999,0,0,0-1.67577-3.63184L99.56072,42H28.43928L2.83833,30.18408a1.9999,1.9999,0,0,0-1.67577,3.63184L26.00027,45.27979v59.73535L.78122,124.41455a2,2,0,0,0,2.43846,3.1709L28.68055,108H99.319l25.46088,19.58545a2.00034,2.00034,0,0,0,2.43944-3.1709l-25.21954-19.39941V45.27979ZM30.00025,46H97.99975v58H30.00025Z" fill="currentColor" /></svg>
