<svg xmlns="http://www.w3.org/2000/svg" version="1.1" xmlns:xlink="http://www.w3.org/1999/xlink" width="512" height="512" x="0" y="0" viewBox="0 0 25.4 25.4" style="enable-background:new 0 0 512 512" xml:space="preserve"><g><path d="M12.654.896 2.32 9.906h-.002a.376.376 0 0 0-.102.399c.046.127.182.269.338.27H5.09v8.66c-.07.08-.138.162-.201.248l-.791-1.915c.099-.07.14-.2.091-.317l-.349-.848.26-.617a1.06 1.06 0 0 0-1.377-1.394l-1.31.544a1.062 1.062 0 0 0 .015 1.961l.617.25.351.848c.048.116.169.18.288.16l1.213 2.936a14.845 14.845 0 0 1-1.634 2.001l-1.066 1.102a.264.264 0 0 0 .19.45h21.431c.146-.001.264-.12.264-.266v-1.594h1.29a.265.265 0 0 0 .263-.264v-1.857a.265.265 0 0 0-.264-.266h-1.29v-1.594a.265.265 0 0 0-.263-.263H21.48l.21-2.922h.036a.265.265 0 1 0 0-.53.265.265 0 0 0-.264-.265h-.496v-4.248h2.535c.157 0 .296-.142.342-.27a.374.374 0 0 0-.102-.4L13.4.896a.565.565 0 0 0-.746 0zm.11.603v1.852l-7.508 6.694-2.262-.027zm.53.005 9.772 8.515c-.755.01-1.51.017-2.264.025l-7.508-6.693zm-.265 2.321.529.472v2.298h-1.059V4.297zm-1.057.942v1.828h-1.05v-.893zm2.115.002 1.058.944v.882h-1.058zm-3.693 1.405v4.564c0 .58.275 1.24.648 1.52.622.42 1.719 1.214 1.986 1.408v5.404c0 .147.119.266.266.265h1.851v1.063c-1.164-.001-2.317.008-3.48.008v-5.752a.836.836 0 0 0-.838-.827H7.251a.835.835 0 0 0-.836.827v3.699c-.305.108-.549.245-.795.409v-8.333zm5.281.01 1.058.944v4.51h-1.058zm-4.752.94h4.222V8.19h-4.222zm6.34.476 1.08.964-.01 1.748h-1.07zm-6.34 1.116h1.049v1.596h-1.05zm1.576 0h1.059v2.922h-.264a.265.265 0 0 0-.266.266v1.109a82.022 82.022 0 0 0-.529-.38zm1.588 0h1.058v1.596h-1.058zm4.764.3 1.586 1.413v2.803h-.793v-1.328a.265.265 0 0 0-.264-.267h-.53zm-6.88 1.825v1.418a41.95 41.95 0 0 0-.609-.423c-.26-.318-.42-.64-.435-.995zm2.116 0h1.058v.797h-1.058zm3.176 0h1.066l-.006.797h-1.06zm-3.705 1.326h4.498v.534h-4.498zm1.058 6.64V13.23h3.44v.797a.264.264 0 0 0 .529 0v-1.86h.53v1.86a.265.265 0 0 0 .529 0v-.265h.793v1.062h-2.414a.265.265 0 0 0-.264.266h-.002a.265.265 0 0 0 0 .529h.038l.208 2.922H15.41a.266.266 0 0 0-.266.265zm-1.058-5.577h.529v5.576h-.53zm-2.73 1.127a.3.3 0 0 1 .308.297v5.752h-.43a14.84 14.84 0 0 1-.32-.557 3.27 3.27 0 0 0-2.863-1.7c-.193.002-.387.022-.579.058v-3.553c0-.164.131-.297.307-.297zm-7.695.482c.205 0 .398.123.483.329a.525.525 0 0 1-.002.41l-.261.623-1.104.459-.626-.254a.525.525 0 0 1-.29-.29.525.525 0 0 1 .285-.69l1.309-.546a.527.527 0 0 1 .206-.041zm-.166.414a.27.27 0 0 0-.087.02l-.953.396a.265.265 0 1 0 .201.489l.955-.395a.265.265 0 0 0 .143-.345.265.265 0 0 0-.26-.165zm15.339.1h.51v.531a.265.265 0 1 0 .529 0v-.53h.53v1.858a.264.264 0 0 0 .528 0v-1.859h.776l-.229 3.188h-2.418zm-8.188 1.594v.279h-.015a.265.265 0 0 0 0 .53h.015v.253a.265.265 0 0 0 .53 0v-1.062a.265.265 0 0 0-.53 0zm-6.707-.196.19.46-.817.34-.19-.462zm.201 1.028.935 2.265-.071.125c-.074.13-.15.258-.229.384l-1.07-2.593zm6.31 2.324c.467.848.981 1.609 1.546 2.308a.264.264 0 0 0-.026.11v1.594h-9.43l.633-.652a15.22 15.22 0 0 0 2.285-3.026c.067-.11.13-.224.192-.336a2.74 2.74 0 0 1 1.006-1.04c.409-.24.901-.368 1.395-.382.998 0 1.918.546 2.399 1.424zm5.753-1.033h3.176v1.328h-3.176zm3.705 0h3.174v1.328H19.38zm-11.146.53a.265.265 0 0 0-.188.454l.033.033a.265.265 0 1 0 .375-.374l-.033-.034a.265.265 0 0 0-.187-.078zm-.717 1.142a.265.265 0 0 0 0 .373l.033.033a.264.264 0 1 0 .375-.373l-.033-.033a.263.263 0 0 0-.375 0zm6.306.185h3.174v1.33h-3.174zm3.704 0h3.175v1.33h-3.175zm3.704 0h2.878v1.33H21.23zm-10.191.008h2.254v1.323h-1.248c-.386-.43-.712-.881-1.006-1.323zm-5.639.336a.265.265 0 0 0-.001.376l.033.033a.265.265 0 0 0 .374-.373l-.033-.034a.266.266 0 0 0-.373-.002zm3.703 0a.265.265 0 0 0 0 .376l.034.033a.265.265 0 0 0 .375-.373l-.033-.034a.266.266 0 0 0-.376-.002zm-4.2 1.063-.034.033a.265.265 0 0 0 .002.375c.103.103.27.103.373 0l.033-.033a.265.265 0 1 0-.374-.375zm5.26 0a.265.265 0 0 0 0 .375l.032.033c.104.103.27.103.373 0a.265.265 0 0 0 .003-.375l-.034-.033a.267.267 0 0 0-.187-.076.265.265 0 0 0-.188.076zm1.806.45h3.175v1.331H11.97zm3.705 0h3.176v1.331h-3.176zm3.705 0h3.174v1.331H19.38zm-12.92.081a.265.265 0 0 0-.002.373l.033.033a.264.264 0 1 0 .375-.373l-.033-.033a.265.265 0 0 0-.187-.078.265.265 0 0 0-.186.078zm2.115 0a.265.265 0 0 0 0 .373l.033.033a.264.264 0 1 0 .375-.373l-.033-.033a.265.265 0 0 0-.375 0z" fill="#ffffff" opacity="1" data-original="#000000"></path></g></svg>