<svg xmlns="http://www.w3.org/2000/svg" version="1.1" xmlns:xlink="http://www.w3.org/1999/xlink" width="512" height="512" x="0" y="0" viewBox="0 0 128 128" style="enable-background:new 0 0 512 512" xml:space="preserve">
<g>
<path d="M110 55h-2a6.007 6.007 0 0 0-6 6v6H26v-6a6.007 6.007 0 0 0-6-6h-2a6.007 6.007 0 0 0-6 6v51a6.007 6.007 0 0 0 6 6h7.84l-5.402 6.751a2 2 0 1 0 3.123 2.498l7.4-9.249h66.078l7.4 9.249a2 2 0 1 0 3.122-2.498l-5.4-6.751H110a6.007 6.007 0 0 0 6-6V61a6.007 6.007 0 0 0-6-6ZM96 71h6v33h-6Zm-10 0h6v33h-6Zm-10 0h6v33h-6Zm-10 0h6v33h-6Zm-10 0h6v33h-6Zm-10 0h6v33h-6Zm-10 0h6v33h-6Zm-10 0h6v33h-6ZM16 61a2.003 2.003 0 0 1 2-2h2a2.003 2.003 0 0 1 2 2v43h-6Zm96 51a2.003 2.003 0 0 1-2 2H18a2.003 2.003 0 0 1-2-2v-4h96Zm0-8h-6V61a2.003 2.003 0 0 1 2-2h2a2.003 2.003 0 0 1 2 2Z" fill="currentColor" opacity="1" data-original="#000000"></path>
<path d="M71.466 44.372A8.434 8.434 0 0 0 69 50.435a8.55 8.55 0 0 0 2.618 6.094 8.782 8.782 0 0 0 10.468 1.296 8.742 8.742 0 0 0 10.448-1.402A8.434 8.434 0 0 0 95 50.36a8.554 8.554 0 0 0-2.618-6.095L84 36.123V28a6.007 6.007 0 0 0-6-6h-5V2a2 2 0 0 0-4 0v20H59V2a2 2 0 0 0-4 0v20h-5a6.007 6.007 0 0 0-6 6v7.778l-8.534 8.594A8.434 8.434 0 0 0 33 50.435a8.55 8.55 0 0 0 2.618 6.094 8.782 8.782 0 0 0 10.468 1.296 8.742 8.742 0 0 0 10.448-1.402A8.434 8.434 0 0 0 59 50.36a8.554 8.554 0 0 0-2.618-6.095L48 36.123V28a2.003 2.003 0 0 1 2-2h28a2.003 2.003 0 0 1 2 2v7.778Zm-17.871 2.762A4.583 4.583 0 0 1 55 50.396a4.464 4.464 0 0 1-1.304 3.208 4.723 4.723 0 0 1-6.343.253 1.999 1.999 0 0 0-2.594.022 4.733 4.733 0 0 1-6.354-.219A4.58 4.58 0 0 1 37 50.398a4.464 4.464 0 0 1 1.304-3.208l7.536-7.588Zm28.245-7.532 7.755 7.532A4.583 4.583 0 0 1 91 50.396a4.464 4.464 0 0 1-1.304 3.208 4.723 4.723 0 0 1-6.343.253 1.999 1.999 0 0 0-2.594.022 4.733 4.733 0 0 1-6.354-.219A4.58 4.58 0 0 1 73 50.398a4.464 4.464 0 0 1 1.304-3.208ZM13.28 34.074a2 2 0 0 0 3.261 1.478l4.695-3.818L27.1 33.38a2 2 0 0 0 2.397-2.67l-2.223-5.542 3.378-4.946a2 2 0 0 0 .088-2.116 1.977 1.977 0 0 0-1.861-1.008l-6.081.37-3.752-4.713a2 2 0 0 0-3.5.738l-1.513 5.782-5.71 2.056a2 2 0 0 0-.384 3.577l5.122 3.206Zm3.098-11.391a2 2 0 0 0 1.257-1.375l.768-2.936 1.911 2.401a1.971 1.971 0 0 0 1.688.751l3.043-.185-1.677 2.455a1.998 1.998 0 0 0-.205 1.872l1.11 2.766-2.953-.83a2.006 2.006 0 0 0-1.802.375l-2.388 1.941-.111-3.01a2.003 2.003 0 0 0-.938-1.622l-2.532-1.585ZM119.678 21.331l-5.71-2.056-1.514-5.782a2 2 0 0 0-3.499-.738l-3.752 4.714-6.081-.371a2 2 0 0 0-1.773 3.124l3.378 4.946-2.223 5.542a2 2 0 0 0 2.397 2.67l5.863-1.646 4.695 3.818a2 2 0 0 0 3.26-1.478l.22-5.96 5.123-3.206a2 2 0 0 0-.384-3.577Zm-7.76 3.955a2.003 2.003 0 0 0-.937 1.621l-.11 3.011-2.389-1.941a2.002 2.002 0 0 0-1.802-.374l-2.952.829 1.109-2.766a1.998 1.998 0 0 0-.205-1.872l-1.677-2.455 3.043.185a1.968 1.968 0 0 0 1.688-.75l1.91-2.402.77 2.936a2 2 0 0 0 1.256 1.375l2.83 1.018Z" fill="currentColor" opacity="1" data-original="#000000">
</path>
</g>
</svg>