<svg xmlns="http://www.w3.org/2000/svg" version="1.1" xmlns:xlink="http://www.w3.org/1999/xlink" width="512" height="512" x="0" y="0" viewBox="0 0 48 48" style="enable-background:new 0 0 512 512" xml:space="preserve" class="">
<g>
<g data-name="Dining Table">
<path d="M29.109 37.871 27 36.465V24h10a2 2 0 0 0 2-2v-2a2 2 0 0 0-2-2h-3.051A10.015 10.015 0 0 0 25 9.051V8h1a1 1 0 0 0 0-2h-4a1 1 0 0 0 0 2h1v1.051A10.015 10.015 0 0 0 14.051 18H10a2 2 0 0 0-2 2v2a2 2 0 0 0 2 2h11v12.465l-2.109 1.406A2 2 0 0 0 18 39.535V40a2 2 0 0 0 2 2h8a2 2 0 0 0 2-2v-.465a2 2 0 0 0-.891-1.664ZM24 11a8.008 8.008 0 0 1 7.931 7H16.069A8.008 8.008 0 0 1 24 11ZM10 22v-2h27v2Zm18 18h-8v-.465l2.109-1.406A2 2 0 0 0 23 36.465V24h2v12.465a2 2 0 0 0 .891 1.664L28 39.535Z" fill="currentColor" opacity="1" data-original="#000000" class=""></path>
<path d="m46.374 30.4 1.608-12.133A2 2 0 0 0 46.006 16H44.92a2 2 0 0 0-1.926 1.481l-2.587 9.662h-6.164a2.986 2.986 0 0 0-2.892 2.248l-.287 1.109a2 2 0 0 0 1.9 2.5l-1.932 7.762a1 1 0 0 0 .73 1.212A.961.961 0 0 0 32 42a1 1 0 0 0 .97-.758L35.022 33H43.2l1.825 8.217A1 1 0 0 0 46 42a1.018 1.018 0 0 0 .218-.024 1 1 0 0 0 .76-1.193l-1.854-8.341a2.992 2.992 0 0 0 1.25-2.042ZM33 31l.286-1.109a.988.988 0 0 1 .956-.747h6.932a1 1 0 0 0 .966-.741L44.92 18H46l-1.608 12.133a1 1 0 0 1-.981.867H33ZM16.58 32.227a1.993 1.993 0 0 0 .357-1.727l-.286-1.106a2.988 2.988 0 0 0-2.893-2.25H7.593l-2.587-9.663A2 2 0 0 0 3.08 16H1.994a2 2 0 0 0-1.976 2.264L1.626 30.4a2.991 2.991 0 0 0 1.161 1.98L.919 40.783a1 1 0 0 0 1.953.434L4.7 33h8.175l2.052 8.242A1 1 0 0 0 15.9 42a.961.961 0 0 0 .242-.03 1 1 0 0 0 .729-1.212L14.935 33h.07a1.981 1.981 0 0 0 1.575-.773ZM4.589 31a1 1 0 0 1-.981-.867L1.994 18h1.08l2.785 10.4a1 1 0 0 0 .966.741h6.932a.99.99 0 0 1 .957.748L15 31Z" fill="currentColor" opacity="1" data-original="#000000" class=""></path>
</g>
</g>
</svg>