<svg xmlns="http://www.w3.org/2000/svg" version="1.1" xmlns:xlink="http://www.w3.org/1999/xlink" width="512" height="512" x="0" y="0" viewBox="0 0 512 512" style="enable-background:new 0 0 512 512" xml:space="preserve" class="">
<g>
<path d="M504.484 416.813h-.5v-80.657c0-19.254-13.82-35.332-32.062-38.851v-81.383c0-21.824-17.754-39.578-39.578-39.578H79.656c-21.824 0-39.578 17.754-39.578 39.578v81.383c-18.242 3.52-32.062 19.597-32.062 38.851v80.656h-.5A7.516 7.516 0 0 0 0 424.329v80.156A7.514 7.514 0 0 0 7.516 512h40.078a7.517 7.517 0 0 0 6.976-4.723l14.14-35.355h374.58l14.14 35.355a7.517 7.517 0 0 0 6.976 4.723h40.078a7.514 7.514 0 0 0 7.516-7.516v-80.156a7.516 7.516 0 0 0-7.516-7.516zM79.656 191.375h352.688c13.539 0 24.547 11.012 24.547 24.547v80.656h-25.047v-54.836l7.222-14.445a7.516 7.516 0 0 0-10.082-10.082l-13.421 6.71a207.84 207.84 0 0 0-55.36-7.503 207.833 207.833 0 0 0-55.355 7.504l-13.422-6.711a7.517 7.517 0 0 0-10.082 10.082l7.219 14.445v54.836h-65.125v-54.836l7.222-14.445a7.51 7.51 0 0 0-1.41-8.672 7.51 7.51 0 0 0-8.672-1.41l-13.426 6.71c-18.03-4.98-36.636-7.503-55.355-7.503s-37.328 2.523-55.36 7.504l-13.421-6.711a7.51 7.51 0 0 0-8.672 1.41 7.51 7.51 0 0 0-1.41 8.672l7.222 14.445v54.836H55.11v-80.656c0-13.535 11.012-24.547 24.547-24.547zm337.176 113.238a7.464 7.464 0 0 0-2.621.282c-17.55 5.12-35.723 7.714-54.008 7.714s-36.453-2.593-54.004-7.714a7.577 7.577 0 0 0-2.625-.282c.016-.172.02-.347.02-.52V239.97c0-.172-.004-.348-.02-.52a7.495 7.495 0 0 0 2.625-.281c17.551-5.121 35.719-7.715 54.004-7.715s36.457 2.594 54.004 7.715c.86.25 1.75.344 2.625.281-.012.172-.02.348-.02.52v64.125c0 .172.008.347.02.52zm-208.406 0a7.486 7.486 0 0 0-2.625.282c-17.551 5.12-35.719 7.714-54.004 7.714s-36.453-2.593-54.008-7.714a7.55 7.55 0 0 0-2.621-.282c.012-.172.02-.347.02-.52V239.97c0-.172-.008-.348-.02-.52a7.464 7.464 0 0 0 2.621-.281c17.555-5.121 35.723-7.715 54.008-7.715s36.453 2.594 54.004 7.715c.86.25 1.746.344 2.625.281-.012.172-.02.348-.02.52v64.125c0 .172.008.347.02.52zm-185.38 55.09h137.766a7.516 7.516 0 0 0 0-15.031H23.047v-8.516c0-13.535 11.012-24.547 24.547-24.547h27.918l-2.578 5.157a7.51 7.51 0 0 0 1.41 8.671 7.51 7.51 0 0 0 8.672 1.41l13.421-6.714a207.836 207.836 0 0 0 110.715 0l13.426 6.71c2.86 1.434 6.41.856 8.672-1.406a7.512 7.512 0 0 0 1.41-8.671l-2.578-5.157h55.836l-2.578 5.157a7.51 7.51 0 0 0 1.41 8.671 7.51 7.51 0 0 0 8.672 1.41l13.422-6.71a207.84 207.84 0 0 0 55.36 7.504c18.718 0 37.327-2.524 55.355-7.504l13.421 6.71c2.864 1.43 6.415.852 8.676-1.41a7.51 7.51 0 0 0 1.406-8.671l-2.574-5.157h27.918c13.54 0 24.547 11.012 24.547 24.547v8.516H196.215a7.515 7.515 0 0 0-7.512 7.515 7.513 7.513 0 0 0 7.512 7.516h292.738v57.11H23.047zM496.97 496.97h-27.473l-14.144-35.352a7.51 7.51 0 0 0-6.977-4.726H63.625a7.51 7.51 0 0 0-6.977 4.726l-14.14 35.352H15.03v-65.125H496.97zM159.813 143.281h192.375a7.516 7.516 0 0 0 7.515-7.515V7.516A7.514 7.514 0 0 0 352.188 0H159.813a7.514 7.514 0 0 0-7.516 7.516v128.25a7.516 7.516 0 0 0 7.516 7.515zm7.515-128.25h177.344V128.25H167.328zm0 0" fill="currentColor" opacity="1" data-original="#000000" class=""></path>
<path d="M328.14 24.047H183.86a7.516 7.516 0 0 0-7.516 7.515v80.157a7.519 7.519 0 0 0 7.515 7.515h144.282a7.516 7.516 0 0 0 7.515-7.515V31.563a7.514 7.514 0 0 0-7.515-7.516zm-49.355 15.031a67.137 67.137 0 0 0-4.312 13.14c-19.352-7.706-34.891-2.402-45.051 4.063-8.23 5.239-13.988 11.93-17.008 15.965-8.043.426-15.062 2.168-21.039 5.18V39.078zm41.84 65.125h-129.25v-8.32c5.46-5.785 13.875-8.711 25.047-8.711a7.521 7.521 0 0 0 6.445-3.649c.824-1.375 20.559-33.406 53.813-13.457a7.514 7.514 0 0 0 7.543.098 7.546 7.546 0 0 0 3.84-6.508c0-.14.199-12.996 7.785-24.578h24.777zm0 0" fill="currentColor" opacity="1" data-original="#000000" class=""></path>
<path d="M304.094 95.188a7.516 7.516 0 0 0 7.515-7.516v-8.016c0-4.152-3.363-7.515-7.515-7.515s-7.516 3.363-7.516 7.515v8.016a7.516 7.516 0 0 0 7.516 7.516zM256 72.14a7.516 7.516 0 0 0-7.516 7.516v8.016a7.516 7.516 0 0 0 15.031 0v-8.016A7.514 7.514 0 0 0 256 72.141zm0 0" fill="currentColor" opacity="1" data-original="#000000" class=""></path>
</g>
</svg>