<svg id="Capa_1" enable-background="new 0 0 512.259 512.259" height="512" viewBox="0 0 512.259 512.259" width="512" xmlns="http://www.w3.org/2000/svg"><g><g id="Page-1_37_"><g id="_x30_38---Refresh-House" clip-rule="evenodd" fill-rule="evenodd" transform="translate(-1 -1)"><path id="Path_219_" d="m513.129 309.68c.014-3.382-1.94-6.463-5.005-7.892-2.132-1.138-4.652-1.299-6.912-.441l-42.69 15.74-42.037 15.439-18.379 6.762c-3.077 1.149-5.262 3.91-5.671 7.169-.41 3.259 1.024 6.475 3.721 8.35l11.405 7.945 10.664 7.45 11.114 7.768c-51.735 74.331-145.188 107.281-232.103 81.836s-147.844-103.591-151.324-194.087c-.256-6.641-3.453-12.825-8.725-16.873-5.271-4.048-12.07-5.541-18.553-4.075-10.564 2.401-17.919 11.985-17.505 22.81 4.217 109.741 78.098 204.507 183.494 235.367s218.723-9.092 281.463-99.228l33.174 23.19c2.681 1.911 6.207 2.161 9.13.646 2.924-1.515 4.753-4.539 4.738-7.832l-.062-74.319z"/><path id="Path_218_" d="m4.863 211.667c.409.305.843.574 1.298.803 2.132 1.138 4.652 1.299 6.912.441l42.69-15.74 60.416-22.201c3.077-1.149 5.262-3.91 5.671-7.169.41-3.259-1.024-6.475-3.721-8.35l-33.139-23.19c51.759-74.272 145.18-107.176 232.059-81.731s147.788 103.55 151.298 194.01c.251 6.645 3.446 12.833 8.718 16.885s12.074 5.548 18.559 4.081c10.57-2.402 17.928-11.997 17.505-22.828-4.217-109.741-78.098-204.507-183.494-235.367s-218.723 9.092-281.463 99.228l-33.174-23.19c-2.68-1.91-6.204-2.161-9.126-.648s-4.754 4.534-4.742 7.825v110.054c-.03 2.84 1.374 5.505 3.733 7.087z"/><path id="Path_217_" d="m345.405 124.716h-8.828c-4.875 0-8.828 3.952-8.828 8.828v15.404l26.483 25.379v-40.783c.001-4.876-3.952-8.828-8.827-8.828z"/><path id="Path_216_" d="m230.646 318.923v52.966h52.965v-52.966c0-14.626-11.857-26.483-26.483-26.483-14.625 0-26.482 11.857-26.482 26.483z"/><path id="Path_215_" d="m345.405 371.888c4.875 0 8.828-3.952 8.828-8.828v-114.758h-194.207v114.759c0 4.875 3.952 8.828 8.828 8.828h44.138v-52.966c0-24.377 19.761-44.138 44.138-44.138s44.138 19.761 44.138 44.138v52.966h44.137z"/><path id="Path_214_" d="m379.294 222.799-119.702-114.706c-.652-.659-1.54-1.03-2.467-1.03s-1.816.371-2.467 1.03l-119.703 114.706c-1.288 1.197-1.772 3.028-1.244 4.705s1.974 2.9 3.715 3.143h239.395c1.741-.243 3.187-1.466 3.715-3.143.53-1.677.046-3.508-1.242-4.705z"/></g></g></g></svg>