<svg id="Capa_1" enable-background="new 0 0 512.063 512.063" height="512" viewBox="0 0 512.063 512.063" width="512" xmlns="http://www.w3.org/2000/svg"><g><g id="Page-1_37_"><g id="_x30_38---Refresh-House" transform="translate(-1)"><path id="Shape_86_" d="m513.031 306.776c-.048-5.579-2.795-10.789-7.373-13.98-4.577-3.19-10.416-3.966-15.667-2.08l-99.627 36.693c-5.981 2.128-10.265 7.428-11.093 13.722-.855 6.351 1.92 12.646 7.185 16.299l25.028 17.399c-49.944 65.428-135.575 92.478-214.042 67.613s-132.89-96.294-136.037-178.546c-.454-10.785-6.628-20.508-16.194-25.507-9.567-4.999-21.074-4.514-30.187 1.271-9.113 5.786-14.446 15.994-13.992 26.778 5.288 136.897 117.611 245.256 254.608 245.625 15.227-.006 30.424-1.354 45.414-4.028 63.965-11.173 121.214-46.44 159.966-98.543l25.182 17.604c5.201 3.672 12.016 4.133 17.664 1.196s9.184-8.782 9.165-15.148l-.06-71.834zm-49.092 83.909c-1.857-1.297-4.153-1.802-6.382-1.405-2.23.397-4.21 1.664-5.505 3.522-58.549 84.144-164.329 121.446-262.708 92.639-98.378-28.809-167.331-117.275-171.246-219.71-.251-6.361 4.073-11.995 10.283-13.397 3.765-.865 7.721-.005 10.786 2.347 3.102 2.39 4.979 6.037 5.12 9.95 3.542 91.115 64.898 169.781 152.408 195.405s181.606-7.524 233.734-82.338c2.691-3.861 1.748-9.171-2.108-11.87l-32.137-22.426 99.78-36.634v34.526 71.817z"/><path id="Shape_85_" d="m8.31 219.036c.656.488 1.353.919 2.082 1.289 4.211 2.244 9.181 2.576 13.653.913l99.627-36.651c5.981-2.128 10.265-7.428 11.093-13.722.855-6.351-1.92-12.646-7.185-16.299l-25.003-17.442c49.944-65.428 135.575-92.478 214.042-67.613s132.891 96.295 136.038 178.547c.454 10.785 6.628 20.508 16.194 25.507 9.567 4.999 21.074 4.514 30.187-1.271 9.113-5.786 14.446-15.994 13.992-26.778-4.251-108.116-76.132-201.836-179.45-233.97s-215.675 4.284-280.497 90.918l-25.223-17.606c-5.199-3.671-12.013-4.133-17.66-1.198s-9.185 8.777-9.169 15.141v106.257c-.047 5.58 2.681 10.819 7.279 13.978zm41.814-97.766c1.857 1.297 4.152 1.802 6.382 1.405s4.21-1.664 5.505-3.522c58.548-84.143 164.329-121.445 262.707-92.638s167.332 117.274 171.247 219.709c.251 6.361-4.073 11.995-10.283 13.397-3.765.858-7.718-.002-10.786-2.347-3.102-2.39-4.979-6.037-5.12-9.95-4.401-113.715-97.708-203.72-211.507-204.023-12.635.004-25.244 1.12-37.683 3.337-55.543 9.717-104.88 41.273-136.994 87.62-2.691 3.861-1.748 9.171 2.108 11.87l32.137 22.426-99.738 36.625v-106.334z"/><path id="Shape_84_" d="m171.698 383.977h170.667c14.138 0 25.6-11.462 25.6-25.6v-110.933h4.77c8.533.034 16.193-5.225 19.226-13.201 3.359-8.205 1.367-17.63-5.026-23.774l-18.97-18.176v-64.316c0-9.426-7.641-17.067-17.067-17.067h-25.6c-9.426 0-17.067 7.641-17.067 17.067v7.074l-37.009-35.465c-7.927-7.618-20.455-7.618-28.382 0l-115.712 110.883c-6.402 6.139-8.395 15.569-5.026 23.774 3.032 7.973 10.687 13.232 19.217 13.201h4.779v110.933c0 14.139 11.461 25.6 25.6 25.6zm59.733-17.066v-51.2c0-14.138 11.462-25.6 25.6-25.6s25.6 11.462 25.6 25.6v51.2zm119.467-8.534c0 4.713-3.82 8.533-8.533 8.533h-42.667v-51.2c0-23.564-19.103-42.667-42.667-42.667s-42.667 19.103-42.667 42.667v51.2h-42.667c-4.713 0-8.533-3.82-8.533-8.533v-110.933h187.733v110.933zm-25.6-230.4h25.6v47.957l-25.6-24.533zm-187.366 99.909c-.768-1.748-.37-3.789.998-5.12l115.712-110.857c.638-.628 1.494-.985 2.389-.998.894.008 1.749.367 2.381.998l51.2 49.058.358.333 42.334 40.567c.094.102.188.188.29.282l21.538 20.642c1.369 1.331 1.767 3.372.998 5.12-.486 1.476-1.859 2.478-3.413 2.492h-231.398c-1.551-.028-2.913-1.04-3.387-2.517z"/></g></g></g></svg>