<svg xmlns="http://www.w3.org/2000/svg" version="1.1" xmlns:xlink="http://www.w3.org/1999/xlink" width="512" height="512" x="0" y="0" viewBox="0 0 512 512" style="enable-background:new 0 0 512 512" xml:space="preserve" class="">
<g>
<path d="M151.318 202.2v-32.287a7 7 0 1 1 14 0V202.2a7 7 0 1 1-14 0zm7 46.842a7 7 0 0 0-7 7v32.287a7 7 0 1 0 14 0v-32.287a7 7 0 0 0-7-7zM503 310.739V496a7 7 0 0 1-7 7H16a7 7 0 0 1-7-7V95.4a7 7 0 0 1 7-7h172.679a7 7 0 0 1 7 7v208.338h69.783V277.23a7 7 0 0 1 7-7h18.613a26.83 26.83 0 0 1-3.344-13v-52.768a7 7 0 0 1 7-7h95.218a7 7 0 0 1 7 7v52.768c0 4.71-1.215 9.141-3.344 13h18.613a7 7 0 0 1 7 7v26.508H496c3.866.001 7 3.135 7 7.001zm-14 7H349.34v22.558H489zm-174.27-47.508h55.219c7.168 0 12.999-5.832 12.999-13v-45.768H301.73v45.768c0 7.168 5.832 13 13 13zm-35.268 33.508h125.755v-19.508H279.462zm-83.783 14v42.747H335.34v-42.747zM23 102.4v119.721h158.679V102.4zM181.679 489V236.121H23V489zm14 0H335.34V374.486H195.679zM489 489V354.297H349.34V489zM248.546 346.112h33.928a7 7 0 1 0 0-14h-33.928a7 7 0 1 0 0 14zm231.307 37.742v74.588a7 7 0 0 1-7 7h-106.4a7 7 0 0 1-7-7v-74.588a7 7 0 0 1 7-7h106.4a7 7 0 0 1 7 7zm-14 7h-92.4v60.588h92.4zM247.656 146.057v-38.364h.019a6.98 6.98 0 0 1 2.113-5.03l60.946-58.981V16a7 7 0 0 1 7-7h49.211a7 7 0 0 1 7 7v27.681l60.945 58.981a6.982 6.982 0 0 1 2.113 5.03h.019v38.364a7 7 0 0 1-7 7H254.656a6.998 6.998 0 0 1-7-6.999zm175.366-7v-24.364H261.656v24.364zM324.734 23v16.648h35.211V23zm-52.779 77.693h140.769l-48.61-47.044h-43.546zm10.519 288.166h-33.928a7 7 0 1 0 0 14h33.928a7 7 0 1 0 0-14z" fill="#ffffff" opacity="1" data-original="#000000" class=""></path>
</g>
</svg>