<svg xmlns="http://www.w3.org/2000/svg" version="1.1" xmlns:xlink="http://www.w3.org/1999/xlink" width="512" height="512" x="0" y="0" viewBox="0 0 512 512" style="enable-background:new 0 0 512 512" xml:space="preserve" class="">
<g>
<path d="M100.688 131.748h-47.13c-8.28 0-15-6.72-15-15v-63.18c0-8.29 6.72-15 15-15h280.63c8.28 0 15 6.71 15 15v63.18c0 8.28-6.72 15-15 15h-76.85M224.659 131.748h-92.911M7.5 69.625h30.815v30.815H7.5z" style="stroke-width:15;stroke-linecap:round;stroke-linejoin:round;stroke-miterlimit:10;" fill="currentColor" stroke="#ffffff" stroke-width="15" stroke-linecap="round" stroke-linejoin="round" stroke-miterlimit="10" data-original="#000000" opacity="1" class=""></path>
<path d="M349.186 85.033h16.062c8.284 0 15 6.716 15 15v65.6a15 15 0 0 1-12.534 14.796l-161.307 26.888a15 15 0 0 0-12.534 14.796V256" style="stroke-width:15;stroke-linecap:round;stroke-linejoin:round;stroke-miterlimit:10;" fill="currentColor" stroke="#ffffff" stroke-width="15" stroke-linecap="round" stroke-linejoin="round" stroke-miterlimit="10" data-original="#000000" opacity="1" class=""></path>
<path d="M170.577 255.998h46.593v31.063h-46.593z" style="stroke-width:15;stroke-linecap:round;stroke-linejoin:round;stroke-miterlimit:10;" fill="currentColor" stroke="#ffffff" stroke-width="15" stroke-linecap="round" stroke-linejoin="round" stroke-miterlimit="10" data-original="#000000" opacity="1" class=""></path>
<path d="M162.808 404.729v37.64c0 17.16 13.91 31.07 31.07 31.07 17.15 0 31.06-13.91 31.06-31.07v-155.31h-62.13v84.99" style="stroke-width:15;stroke-linecap:round;stroke-linejoin:round;stroke-miterlimit:10;" fill="currentColor" stroke="#ffffff" stroke-width="15" stroke-linecap="round" stroke-linejoin="round" stroke-miterlimit="10" data-original="#000000" opacity="1" class=""></path>
<path d="M162.812 318.124h62.125v31.063h-62.125zM100.685 38.56v139.996c0 8.461 6.859 15.32 15.32 15.32h.423c8.461 0 15.32-6.859 15.32-15.32V84.944c0-8.461 6.859-15.32 15.32-15.32h.424c8.461 0 15.32 6.859 15.32 15.32v.176c0 8.461 6.859 15.32 15.32 15.32h.423c8.461 0 15.32-6.859 15.32-15.32v-.176c0-8.461 6.859-15.32 15.32-15.32h.423c8.461 0 15.32 6.859 15.32 15.32v.176c0 8.461 6.859 15.32 15.32 15.32h0c8.461 0 15.32-6.859 15.32-15.32V38.563l-154.893-.003zM471.94 328.85v144H286.87V329.38" style="stroke-width:15;stroke-linecap:round;stroke-linejoin:round;stroke-miterlimit:10;" fill="currentColor" stroke="#ffffff" stroke-width="15" stroke-linecap="round" stroke-linejoin="round" stroke-miterlimit="10" data-original="#000000" opacity="1" class=""></path>
<path d="M348.971 380.53h61.544v92.317h-61.544zM471.939 472.848h30.599M256.235 472.848h30.598M456.27 276.73l48.23 37.9-19.34 24.61-105.42-82.85-105.41 82.85-19.34-24.61 115.08-90.45a15.65 15.65 0 0 1 19.34 0l41.15 32.34" style="stroke-width:15;stroke-linecap:round;stroke-linejoin:round;stroke-miterlimit:10;" fill="currentColor" stroke="#ffffff" stroke-width="15" stroke-linecap="round" stroke-linejoin="round" stroke-miterlimit="10" data-original="#000000" opacity="1" class=""></path>
</g>
</svg>