<?xml version="1.0"?>
<svg xmlns="http://www.w3.org/2000/svg" data-name="Layer 1" id="Layer_1" viewBox="0 0 64 64"><title/><path d="M49,25.9H46.91A2.92,2.92,0,0,1,44,23V11.92A2.92,2.92,0,0,1,46.91,9H49v2H46.91a.92.92,0,0,0-.92.92V23a.92.92,0,0,0,.92.92H49Z"/><path d="M40,22H38a6.79,6.79,0,0,1-4.87-2.21l-4.67-4.67a3,3,0,0,1,0-4.24,3.08,3.08,0,0,1,4.24,0l4.42,4.42L35.7,16.71l-4.42-4.42a1,1,0,0,0-1.41,0,1,1,0,0,0,0,1.41l4.67,4.67A4.88,4.88,0,0,0,38,20h2Z"/><path d="M45,15H44c-2.35,0-4.47-2.06-4.71-2.29l-3-3A5.86,5.86,0,0,0,33,8V6c2.35,0,4.47,2.06,4.71,2.29l3,3A5.86,5.86,0,0,0,44,13h1Z"/><path d="M31,12H21a3,3,0,0,1,0-6H33V8H21a1,1,0,0,0,0,2H31Z"/><path d="M60,28H50a1,1,0,0,1-1-1V7.86a1,1,0,0,1,1-1H60a1,1,0,0,1,1,1V27A1,1,0,0,1,60,28Zm-9-2h8V8.86H51Z"/><path d="M17.09,55H15V53h2.08a.92.92,0,0,0,.92-.92V41a.92.92,0,0,0-.92-.92H15v-2h2.08A2.92,2.92,0,0,1,20,41V52.08A2.92,2.92,0,0,1,17.09,55Z"/><path d="M33.43,54a3,3,0,0,1-2.12-.88L26.89,48.7l1.41-1.41,4.42,4.42a1,1,0,0,0,1.41,0,1,1,0,0,0,0-1.41l-4.67-4.67A4.88,4.88,0,0,0,26,44H19V42h7a6.79,6.79,0,0,1,4.87,2.21l4.67,4.67A3,3,0,0,1,33.43,54Z"/><path d="M31,58c-2.35,0-4.47-2.06-4.71-2.29l-3-3A5.86,5.86,0,0,0,20,51H19V49h1c2.35,0,4.47,2.06,4.71,2.29l3,3A5.86,5.86,0,0,0,31,56Z"/><path d="M43,58H31V56H43a1,1,0,0,0,0-2H33V52H43a3,3,0,0,1,0,6Z"/><path d="M14,57.14H4a1,1,0,0,1-1-1V37a1,1,0,0,1,1-1H14a1,1,0,0,1,1,1V56.14A1,1,0,0,1,14,57.14Zm-9-2h8V38H5Z"/><path d="M40.09,43A3,3,0,0,1,38,42.15l-7.7-7.7A7,7,0,1,1,34.5,30.2l7.7,7.7h0A3,3,0,0,1,40.09,43ZM30.5,32.26a1,1,0,0,1,.71.29l8.18,8.18a1,1,0,0,0,1.41,0,1,1,0,0,0,0-1.41h0l-8.18-8.18a1,1,0,0,1-.2-1.14,5,5,0,1,0-2.36,2.36A1,1,0,0,1,30.5,32.26Z"/><path d="M27.92,30.85a3,3,0,0,1-2.12-5.12,3.07,3.07,0,0,1,4.24,0A3,3,0,0,1,30,30h0A3,3,0,0,1,27.92,30.85Zm0-4a1,1,0,0,0-.71,1.71,1,1,0,0,0,1.41,0h0a1,1,0,0,0-.71-1.71Z"/><path d="M35.14,43.15a1,1,0,0,1-.71-.29L31.6,40a1,1,0,0,1,0-1.41l2.12-2.12,1.41,1.41-1.42,1.41,1.42,1.41,1.41-1.41L38,40.73l-2.12,2.12A1,1,0,0,1,35.14,43.15Z"/><path d="M13,32H11A21.08,21.08,0,0,1,21.5,13.81l1,1.73A19.07,19.07,0,0,0,13,32Z"/><path d="M42.5,50.19l-1-1.73A19.07,19.07,0,0,0,51,32h2A21.08,21.08,0,0,1,42.5,50.19Z"/></svg>
