<svg xmlns="http://www.w3.org/2000/svg" version="1.1" xmlns:xlink="http://www.w3.org/1999/xlink" width="512" height="512" x="0" y="0" viewBox="0 0 512 512" style="enable-background:new 0 0 512 512" xml:space="preserve" class="">
<g>
<path d="m505.62 297.68-36.416-20.809v-74.184c0-5.746-4.658-10.405-10.405-10.405h-41.618c-5.746 0-10.405 4.658-10.405 10.405v38.601c-50.254-28.821-50.358-31.214-57.225-26.844l-57.225 32.774v-200.6C292.327 23.633 273.694 5 250.709 5H42.618C19.633 5 1 23.633 1 46.618V462.8c0 22.985 18.633 41.618 41.618 41.618H458.8c5.746 0 10.405-4.658 10.405-10.405v-151.49c28.404 16.231 27.572 16.231 31.214 16.231 5.746 0 10.405-4.658 10.405-10.405-.001-44.427 1.663-46.716-5.204-50.669zm-78.034-84.589h20.809v52.023l-20.809-11.861zM203.889 297.68c-6.971 3.954-5.202 6.763-5.202 50.67-.023 5.746 4.617 10.423 10.363 10.446 1.84.007 3.65-.474 5.244-1.394l26.011-14.879v57.849H21.809V109.045h249.709v150.033zM21.809 46.618c0-11.493 9.317-20.809 20.809-20.809h208.091c11.493 0 20.809 9.317 20.809 20.809v41.618H21.809V46.618zm0 416.182v-41.618h218.495v62.427H42.618c-11.492 0-20.809-9.317-20.809-20.809zm301.732 20.809v-83.236h62.427v83.236zm124.854 0h-41.618v-93.641c0-5.746-4.658-10.405-10.405-10.405h-83.236c-5.746 0-10.405 4.658-10.405 10.405v93.641h-41.618V330.558l93.641-53.479 93.641 53.479zm41.618-153.155c-141.814-81.051-131.305-75.745-135.259-75.745s7.283-5.722-135.259 75.745v-17.688l135.259-77.306 135.259 77.306z" fill="currentColor" opacity="1" data-original="#000000" class=""></path>
<path d="M167.473 441.991h-41.618c-5.746 0-10.405 4.658-10.405 10.405 0 5.746 4.658 10.405 10.405 10.405h41.618c5.746 0 10.405-4.658 10.405-10.405-.001-5.747-4.659-10.405-10.405-10.405zM105.045 46.618c-5.746 0-10.405 4.658-10.405 10.405s4.658 10.405 10.405 10.405c5.746 0 10.405-4.658 10.405-10.405s-4.658-10.405-10.405-10.405zM188.282 46.618h-41.618c-5.746 0-10.405 4.658-10.405 10.405s4.658 10.405 10.405 10.405h41.618c5.746 0 10.405-4.658 10.405-10.405s-4.659-10.405-10.405-10.405zM117.219 266.882c-4.08 4.08-4.08 10.695 0 14.774 4.08 4.08 10.695 4.08 14.774 0 8.116-8.068 21.224-8.068 29.341 0 4.08 4.08 10.695 4.08 14.774 0 4.08-4.08 4.08-10.695 0-14.774-16.481-15.722-42.408-15.722-58.889 0z" fill="currentColor" opacity="1" data-original="#000000" class=""></path>
<path d="M87.774 237.437c-4.08 4.08-4.08 10.695 0 14.774 4.08 4.08 10.695 4.08 14.774 0 24.373-24.343 63.857-24.343 88.23 0 4.08 4.08 10.695 4.08 14.774 0 4.08-4.08 4.08-10.695 0-14.774-32.488-32.524-85.19-32.553-117.714-.065-.02.022-.042.044-.064.065zM146.664 296.327c-5.746 0-10.405 4.658-10.405 10.405 0 5.746 4.658 10.405 10.405 10.405s10.405-4.658 10.405-10.405c-.001-5.747-4.659-10.405-10.405-10.405z" fill="currentColor" opacity="1" data-original="#000000" class=""></path>
</g>
</svg>