<svg xmlns="http://www.w3.org/2000/svg" version="1.1" xmlns:xlink="http://www.w3.org/1999/xlink" width="512" height="512" x="0" y="0" viewBox="0 0 512 512" style="enable-background:new 0 0 512 512" xml:space="preserve" fill-rule="evenodd" class="">
<g>
<path d="M137.27 230.49H87.89c-10.49 0-19.03-8.54-19.03-19.03 0-10.5 8.54-19.04 19.03-19.04h49.38c10.5 0 19.04 8.54 19.04 19.04 0 10.49-8.54 19.03-19.04 19.03zm-49.38-26.07c-3.88 0-7.04 3.16-7.04 7.04s3.16 7.04 7.04 7.04h49.38c3.89 0 7.04-3.16 7.04-7.04s-3.15-7.04-7.04-7.04z" fill="currentColor" opacity="1" data-original="#000000" class=""></path>
<path d="M94.33 204.42c-3.31 0-6-2.69-6-6v-19.13c0-3.31 2.69-5.99 6-5.99s6 2.68 6 5.99v19.13c0 3.31-2.69 6-6 6zM130.84 204.42c-3.32 0-6-2.69-6-6v-19.13a5.99 5.99 0 0 1 6-5.99c3.31 0 5.99 2.68 5.99 5.99v19.13c0 3.31-2.68 6-5.99 6z" fill="currentColor" opacity="1" data-original="#000000" class=""></path>
<path d="M176.29 185.29H33.46c-10.67 0-19.36-8.68-19.36-19.35V48.72c0-10.67 8.69-19.35 19.36-19.35H191.7c10.68 0 19.36 8.68 19.36 19.35v47.29c0 3.31-2.69 6-6 6s-5.99-2.69-5.99-6V48.72c0-4.06-3.31-7.36-7.37-7.36H33.46c-4.06 0-7.36 3.3-7.36 7.36v117.22c0 4.06 3.3 7.36 7.36 7.36h142.83c3.31 0 6 2.68 6 5.99 0 3.32-2.69 6-6 6zM491.9 230.49H335.71c-3.31 0-6-2.68-6-5.99s2.69-6 6-6H485.9v-92.26H335.71c-3.31 0-6-2.68-6-5.99s2.69-6 6-6H491.9c3.31 0 5.99 2.69 5.99 6V224.5c0 3.31-2.68 5.99-5.99 5.99z" fill="currentColor" opacity="1" data-original="#000000" class=""></path>
<path d="M490.14 196.35H335.71c-3.31 0-6-2.69-6-6s2.69-5.99 6-5.99h154.43c3.31 0 5.99 2.68 5.99 5.99s-2.68 6-5.99 6zM490.14 160.39H335.71c-3.31 0-6-2.69-6-6s2.69-6 6-6h154.43c3.31 0 5.99 2.69 5.99 6s-2.68 6-5.99 6zM274.94 381.15h-37.88c-3.31 0-5.99-2.69-5.99-6v-43.59c0-3.32 2.68-6 5.99-6h37.88a5.99 5.99 0 0 1 5.99 6v43.59c0 3.31-2.68 6-5.99 6zm-31.88-12h25.88v-31.6h-25.88z" fill="currentColor" opacity="1" data-original="#000000" class=""></path>
<path d="M256 419.62c-3.31 0-6-2.68-6-6v-38.47c0-3.31 2.69-6 6-6s6 2.69 6 6v38.47c0 3.32-2.69 6-6 6z" fill="currentColor" opacity="1" data-original="#000000" class=""></path>
<path d="M331.59 447.44c-3.31 0-6-2.68-6-5.99 0-8.9-27.11-21.83-69.59-21.83s-69.6 12.93-69.6 21.83c0 3.31-2.68 5.99-5.99 5.99s-6-2.68-6-5.99c0-7.17 4.52-17.38 26.07-25.31 14.92-5.49 34.64-8.51 55.52-8.51s40.6 3.02 55.52 8.51c21.55 7.94 26.07 18.14 26.07 25.31 0 3.31-2.69 5.99-6 5.99z" fill="currentColor" opacity="1" data-original="#000000" class=""></path>
<path d="M180.41 482.63c-13.01 0-23.6-10.58-23.6-23.59s10.59-23.59 23.6-23.59S204 446.03 204 459.04s-10.58 23.59-23.59 23.59zm0-35.19c-6.4 0-11.6 5.2-11.6 11.6 0 6.39 5.2 11.6 11.6 11.6 6.39 0 11.59-5.21 11.59-11.6 0-6.4-5.2-11.6-11.59-11.6zM331.59 482.63c-13.01 0-23.59-10.58-23.59-23.59s10.58-23.59 23.59-23.59 23.59 10.58 23.59 23.59-10.58 23.59-23.59 23.59zm0-35.19c-6.39 0-11.6 5.2-11.6 11.6 0 6.39 5.21 11.6 11.6 11.6 6.4 0 11.6-5.21 11.6-11.6 0-6.4-5.2-11.6-11.6-11.6zM256 482.63c-13.01 0-23.59-10.58-23.59-23.59s10.58-23.59 23.59-23.59 23.59 10.58 23.59 23.59-10.58 23.59-23.59 23.59zm0-35.19c-6.4 0-11.6 5.2-11.6 11.6 0 6.39 5.2 11.6 11.6 11.6 6.39 0 11.6-5.21 11.6-11.6 0-6.4-5.21-11.6-11.6-11.6z" fill="currentColor" opacity="1" data-original="#000000" class=""></path>
<path d="M256 443.91c-3.31 0-6-2.68-6-5.99v-24.3c0-3.31 2.69-5.99 6-5.99s6 2.68 6 5.99v24.3c0 3.31-2.69 5.99-6 5.99zM315.48 297.29H196.53c-14.47 0-26.23-11.77-26.23-26.23V116.25c0-14.47 11.76-26.24 26.23-26.24h118.95c14.46 0 26.23 11.77 26.23 26.24v154.81c0 14.46-11.77 26.23-26.23 26.23zM196.53 102.01c-7.85 0-14.24 6.39-14.24 14.24v154.81c0 7.85 6.39 14.23 14.24 14.23h118.95c7.85 0 14.23-6.38 14.23-14.23V116.25c0-7.85-6.38-14.24-14.23-14.24z" fill="currentColor" opacity="1" data-original="#000000" class=""></path>
<path d="M350.63 337.55H161.37c-9.09 0-16.48-7.39-16.48-16.48v-46.52c0-9.09 7.39-16.48 16.48-16.48h14.92c3.31 0 6 2.69 6 6v6.98c0 7.85 6.39 14.24 14.24 14.24h118.94c7.85 0 14.24-6.39 14.24-14.24v-6.98c0-3.31 2.69-6 6-6h14.92c9.09 0 16.48 7.39 16.48 16.48v46.52c0 9.09-7.39 16.48-16.48 16.48zm-189.26-67.49c-2.48 0-4.49 2.02-4.49 4.49v46.52a4.49 4.49 0 0 0 4.49 4.49h189.26a4.49 4.49 0 0 0 4.49-4.49v-46.52a4.49 4.49 0 0 0-4.49-4.49h-8.93v.99c0 14.47-11.76 26.24-26.23 26.24H196.53c-14.47 0-26.23-11.77-26.23-26.24v-.99z" fill="currentColor" opacity="1" data-original="#000000" class=""></path>
<path d="M496.36 282.71H361.12c-3.31 0-6-2.69-6-6v-2.16c0-2.47-2.01-4.49-4.49-4.49h-14.92c-3.31 0-6-2.68-6-5.99V224.5c0-3.31 2.69-6 6-6h160.65c8.56 0 15.52 6.96 15.52 15.52v33.17c0 8.56-6.96 15.52-15.52 15.52zm-129.7-11.99h129.7c1.91 0 3.52-1.62 3.52-3.53v-33.17c0-1.91-1.61-3.52-3.52-3.52H341.71v27.57h8.92c7.77 0 14.3 5.4 16.03 12.65zm-215.78 11.99H15.64c-8.56 0-15.52-6.96-15.52-15.52v-33.18c0-8.55 6.96-15.51 15.52-15.51h160.65c3.31 0 6 2.68 6 6v39.57c0 3.31-2.69 5.99-6 5.99h-14.92c-2.48 0-4.49 2.02-4.49 4.49v2.16c0 3.31-2.68 6-6 6zM15.64 230.49c-1.91 0-3.52 1.62-3.52 3.52v33.18c0 1.91 1.61 3.52 3.52 3.52h129.7c1.73-7.24 8.26-12.64 16.03-12.64h8.93v-27.58z" fill="currentColor" opacity="1" data-original="#000000" class=""></path>
<path d="M496.36 482.63h-34.58c-3.31 0-5.99-2.68-5.99-5.99V317.29h-94.67c-3.31 0-6-2.69-6-6v-34.58c0-3.31 2.69-6 6-6h135.24c3.31 0 6 2.69 6 6v199.93c0 3.31-2.69 5.99-6 5.99zm-28.58-11.99h22.58V282.71H367.11v22.58h94.67c3.31 0 6 2.69 6 6zM50.22 482.63H15.64c-3.31 0-6-2.68-6-5.99V276.71c0-3.31 2.69-6 6-6h135.24c3.32 0 6 2.69 6 6v34.58c0 3.31-2.68 6-6 6H56.22v159.35c0 3.31-2.69 5.99-6 5.99zm-28.58-11.99h22.58V311.29c0-3.31 2.69-6 6-6h94.67v-22.58H21.64z" fill="currentColor" opacity="1" data-original="#000000" class=""></path>
</g>
</svg>